<svg width="711" height="711" viewBox="0 0 711 711" fill="none" xmlns="http://www.w3.org/2000/svg">
<path d="M355.208 710.417C551.385 710.417 710.417 551.385 710.417 355.208C710.417 159.032 551.385 0 355.208 0C159.032 0 0 159.032 0 355.208C0 551.385 159.032 710.417 355.208 710.417Z" fill="#FF7618"/>
<path d="M355.208 673.819C531.172 673.819 673.819 531.172 673.819 355.208C673.819 179.244 531.172 36.5977 355.208 36.5977C179.244 36.5977 36.5977 179.244 36.5977 355.208C36.5977 531.172 179.244 673.819 355.208 673.819Z" fill="url(#paint0_radial_62_308)"/>
<path fill-rule="evenodd" clip-rule="evenodd" d="M355.187 144.583C380.586 144.568 403.791 158.97 415.05 181.739C409.024 185.311 403.475 189.631 398.536 194.599C374.661 218.464 335.962 218.464 312.086 194.599C307.142 189.638 301.594 185.317 295.572 181.739C306.779 159.041 329.874 144.647 355.187 144.583ZM421.406 203.99C421.682 206.423 421.821 208.869 421.82 211.318C421.797 254.232 456.56 289.043 499.474 289.077C501.924 289.075 504.37 289.212 506.803 289.49C504.887 292.127 502.767 294.611 500.466 296.922C468.022 329.369 468.022 381.97 500.466 414.417C502.768 416.74 504.887 419.238 506.803 421.889C504.37 422.165 501.924 422.304 499.474 422.302C456.64 422.336 421.918 457.04 421.86 499.875C421.863 502.337 421.726 504.798 421.447 507.244C418.795 505.321 416.298 503.195 413.974 500.886C381.511 468.463 328.921 468.463 296.458 500.886C294.135 503.195 291.637 505.319 288.986 507.244C288.721 504.796 288.599 502.336 288.615 499.875C288.536 457.05 253.825 422.359 211 422.302C208.565 422.302 206.132 422.165 203.714 421.889C205.625 419.248 207.745 416.763 210.051 414.457C242.502 382.015 242.509 329.409 210.067 296.957L210.051 296.941C207.739 294.637 205.612 292.152 203.693 289.509C206.126 289.233 208.572 289.094 211.021 289.096C253.862 289.039 288.578 254.323 288.636 211.481C288.621 209.034 288.746 206.588 289.007 204.153C291.658 206.076 294.156 208.202 296.479 210.511C328.921 242.963 381.528 242.969 413.977 210.527C413.982 210.522 413.989 210.516 413.994 210.511C416.296 208.167 418.773 206 421.405 204.03L421.406 203.99ZM528.745 295.785C561.749 311.986 575.37 351.876 559.169 384.88C552.675 398.109 541.974 408.809 528.745 415.303C525.154 409.279 520.821 403.731 515.845 398.789C491.994 374.916 491.994 336.234 515.845 312.361C520.835 307.355 525.171 301.737 528.745 295.64V295.785ZM414.987 529.185C398.742 562.206 358.806 575.806 325.784 559.561C312.582 553.067 301.901 542.385 295.407 529.185C301.43 525.607 306.977 521.286 311.921 516.324C335.801 492.471 374.49 492.471 398.371 516.324C403.324 521.228 408.872 525.494 414.885 529.02L414.987 529.185ZM181.545 415.158C148.542 398.957 134.921 359.067 151.122 326.064C157.616 312.834 168.317 302.134 181.545 295.64C185.126 301.659 189.447 307.207 194.405 312.154C218.272 336.009 218.28 374.696 194.425 398.563C194.418 398.57 194.412 398.576 194.405 398.582C189.452 403.557 185.133 409.124 181.545 415.158ZM355.186 577.197C384.742 577.159 411.72 560.359 424.79 533.849C467.121 551.705 515.913 531.862 533.768 489.53C542.482 468.869 542.487 445.565 533.781 424.9C572.212 405.964 588.015 359.46 569.079 321.029C561.525 305.696 549.115 293.287 533.781 285.731C551.621 243.392 531.76 194.609 489.421 176.771C468.755 168.064 445.452 168.068 424.79 176.784C406.114 138.354 359.82 122.34 321.389 141.016C305.796 148.595 293.2 161.19 285.621 176.784C243.258 158.944 194.454 178.823 176.614 221.187C167.925 241.823 167.915 265.09 176.59 285.733C138.171 304.691 122.395 351.206 141.355 389.625C148.905 404.925 161.29 417.31 176.59 424.86C158.723 467.186 178.552 515.984 220.878 533.849C241.561 542.581 264.897 542.581 285.579 533.849C298.651 560.359 325.629 577.159 355.186 577.197ZM431.665 512.939C432.427 508.542 432.807 504.087 432.8 499.625C432.834 462.843 462.651 433.036 499.432 433.013C503.908 433.022 508.377 432.642 512.788 431.878C526.861 462.586 513.374 498.889 482.665 512.961C466.487 520.374 447.884 520.374 431.706 512.961L431.665 512.939ZM512.706 279.002C508.31 278.241 503.855 277.86 499.392 277.867C462.609 277.844 432.794 248.037 432.76 211.255C432.753 206.791 432.36 202.336 431.583 197.941C462.287 183.861 498.593 197.336 512.674 228.041C520.086 244.203 520.098 262.79 512.706 278.961V279.002ZM278.811 197.899C278.047 202.311 277.668 206.778 277.676 211.255C277.597 248.053 247.738 277.838 210.94 277.826C206.478 277.818 202.023 278.199 197.627 278.961C183.554 248.253 197.04 211.951 227.75 197.878C243.928 190.466 262.531 190.466 278.709 197.878L278.811 197.899ZM197.728 431.856C202.126 432.61 206.581 432.989 211.042 432.991C247.824 433.036 277.629 462.841 277.674 499.623C277.665 504.099 278.046 508.568 278.809 512.979C248.131 527.116 211.801 513.707 197.664 483.03C190.191 466.815 190.177 448.145 197.625 431.919L197.728 431.856Z" fill="#FFE0CB"/>
<defs>
<radialGradient id="paint0_radial_62_308" cx="0" cy="0" r="1" gradientUnits="userSpaceOnUse" gradientTransform="translate(290.212 462.279) scale(418.095)">
<stop stop-color="#3A2A1D"/>
<stop offset="0.77" stop-color="#241405"/>
</radialGradient>
</defs>
</svg>
