<svg width="256" height="271" viewBox="0 0 256 271" fill="none" xmlns="http://www.w3.org/2000/svg">
<path d="M256 45.1787L246.756 190.337L158.373 0L256 45.1787ZM194.783 232.876L128.001 270.981L61.217 232.876L74.7999 199.958H181.2L194.783 232.876ZM128.001 72.2488L162.995 157.325H93.0053L128.001 72.2488ZM9.1494 190.337L0 45.1787L97.6267 0L9.1494 190.337Z" fill="url(#paint0_linear_56_4088)"/>
<path d="M256 45.1787L246.756 190.337L158.373 0L256 45.1787ZM194.783 232.876L128.001 270.981L61.217 232.876L74.7999 199.958H181.2L194.783 232.876ZM128.001 72.2488L162.995 157.325H93.0053L128.001 72.2488ZM9.1494 190.337L0 45.1787L97.6267 0L9.1494 190.337Z" fill="url(#paint1_linear_56_4088)"/>
<defs>
<linearGradient id="paint0_linear_56_4088" x1="6418.3" y1="24640.1" x2="25013.6" y2="15803.3" gradientUnits="userSpaceOnUse">
<stop stop-color="#E40035"/>
<stop offset="0.24" stop-color="#F60A48"/>
<stop offset="0.352" stop-color="#F20755"/>
<stop offset="0.494" stop-color="#DC087D"/>
<stop offset="0.745" stop-color="#9717E7"/>
<stop offset="1" stop-color="#6C00F5"/>
</linearGradient>
<linearGradient id="paint1_linear_56_4088" x1="5596.89" y1="3267.36" x2="18312.9" y2="17772.8" gradientUnits="userSpaceOnUse">
<stop stop-color="#FF31D9"/>
<stop offset="1" stop-color="#FF5BE1" stop-opacity="0"/>
</linearGradient>
</defs>
</svg>
