<svg width="863" height="863" viewBox="0 0 863 863" fill="none" xmlns="http://www.w3.org/2000/svg">
<path d="M506.302 827.259L356.575 681.257L678.133 352.888L833.152 504.82L506.302 827.259Z" fill="#8AB4F8"/>
<path d="M506.939 181.743L357.752 29.4189L31.5382 352.545C-10.5127 394.596 -10.5127 462.769 31.5382 504.869L352.85 828.289L504.783 686.159L259.976 428.707L506.939 181.743Z" fill="#4285F4"/>
<path d="M830.996 355.044L507.527 31.575C465.427 -10.525 397.156 -10.525 355.056 31.575C312.956 73.6749 312.956 141.946 355.056 184.046L678.525 507.515C720.625 549.615 788.896 549.615 830.996 507.515C873.096 465.415 873.096 397.144 830.996 355.044Z" fill="#8AB4F8"/>
<path d="M428.817 862.595C487.012 862.595 534.189 815.419 534.189 757.223C534.189 699.027 487.012 651.851 428.817 651.851C370.621 651.851 323.444 699.027 323.444 757.223C323.444 815.419 370.621 862.595 428.817 862.595Z" fill="#246FDB"/>
</svg>
