<svg width="548" height="548" viewBox="0 0 548 548" fill="none" xmlns="http://www.w3.org/2000/svg">
<g clip-path="url(#clip0_59_9477)">
<path d="M36.2523 274C36.2523 368.214 91.0524 449.36 170.301 487.931L56.9076 177.257C43.2915 207.692 36.2529 240.658 36.2523 274ZM274 511.748C301.611 511.748 328.168 506.9 353.039 498.259L351.352 495.097L278.215 294.866L206.975 502.052C228.052 508.375 250.605 511.748 274 511.748ZM306.669 162.503L392.663 418.166L416.48 338.917C426.597 306.037 434.395 282.431 434.395 261.986C434.395 232.479 423.857 212.245 415.005 196.648C402.78 176.835 391.609 160.185 391.609 140.794C391.609 118.874 408.049 98.64 431.655 98.64H434.606C390.799 58.4234 333.468 36.1533 274 36.2523C234.625 36.2449 195.865 46.0262 161.207 64.7161C126.55 83.4061 97.082 110.418 75.4552 143.323L90.631 143.745C115.501 143.745 153.861 140.583 153.861 140.583C166.929 139.951 168.405 158.709 155.548 160.185C155.548 160.185 142.691 161.871 128.148 162.503L214.985 420.063L267.045 264.094L229.949 162.503C221.64 162.045 213.346 161.342 205.079 160.395C192.221 159.552 193.697 139.951 206.554 140.583C206.554 140.583 245.757 143.745 269.152 143.745C294.023 143.745 332.383 140.583 332.383 140.583C345.24 139.951 346.926 158.709 334.069 160.185C334.069 160.185 321.212 161.66 306.669 162.503ZM393.506 479.5C429.473 458.587 459.322 428.602 480.07 392.541C500.82 356.479 511.743 315.605 511.748 274C511.748 232.689 501.209 193.908 482.661 159.974C486.428 197.307 480.776 234.989 466.221 269.574L393.506 479.5ZM274 548C201.331 548 131.638 519.132 80.253 467.747C28.8678 416.362 0 346.669 0 274C0 201.331 28.8678 131.638 80.253 80.253C131.638 28.8678 201.331 0 274 0C346.669 0 416.362 28.8678 467.747 80.253C519.132 131.638 548 201.331 548 274C548 346.669 519.132 416.362 467.747 467.747C416.362 519.132 346.669 548 274 548Z" fill="white"/>
</g>
<defs>
<clipPath id="clip0_59_9477">
<rect width="548" height="548" fill="white"/>
</clipPath>
</defs>
</svg>
