<svg width="33" height="33" viewBox="0 0 33 33" fill="none" xmlns="http://www.w3.org/2000/svg">
<rect width="32.9756" height="32.9756" rx="16.4878" fill="#262626"/>
<path d="M23.0823 14.3239V20.3781C23.0775 20.3849 23.0699 20.3911 23.0679 20.399C22.893 21.0977 22.4685 21.4295 21.7478 21.4295H11.2255C11.1825 21.4295 11.1396 21.4295 11.0966 21.4295C10.4048 21.4048 9.8944 20.8847 9.8944 20.1929C9.89211 18.2693 9.89211 16.3457 9.8944 14.4222C9.89616 14.3893 9.8996 14.3565 9.90471 14.3239C9.92807 14.3366 9.93906 14.3421 9.95005 14.349L15.2925 17.9114C16.0914 18.4442 16.8829 18.4452 17.6829 17.9114C19.2751 16.8509 20.8672 15.7902 22.4592 14.7292C22.6653 14.5919 22.8762 14.4589 23.0823 14.3239Z" fill="white"/>
<path d="M23.0822 12.9328C23.0331 13.064 23.007 13.2114 22.9294 13.323C22.8239 13.4752 22.6999 13.6321 22.5488 13.7321C20.758 14.9364 18.963 16.1343 17.1638 17.3258C16.7203 17.6198 16.2521 17.6184 15.8087 17.3258C14.0067 16.1304 12.2075 14.9309 10.411 13.7273C9.97954 13.4388 9.80092 12.9393 9.93798 12.4409C10.0781 11.9318 10.5144 11.5842 11.0578 11.5492C11.0963 11.5461 11.1351 11.5461 11.1735 11.5461C14.7159 11.5461 18.2581 11.5461 21.8 11.5461C22.3867 11.5461 22.8452 11.86 23.0187 12.3777C23.0431 12.4502 23.0616 12.5244 23.0829 12.5975L23.0822 12.9328Z" fill="white"/>
</svg>
