<svg width="33" height="33" viewBox="0 0 33 33" fill="none" xmlns="http://www.w3.org/2000/svg">
<rect width="32.9756" height="32.9756" rx="16.4878" fill="#262626"/>
<path d="M10.3049 22.6707L11.1782 19.4953C10.6393 18.5658 10.3561 17.5121 10.3566 16.4316C10.3582 13.0537 13.1201 10.3049 16.5137 10.3049C18.1605 10.3054 19.7064 10.9438 20.8691 12.102C22.0314 13.2603 22.6712 14.7999 22.6707 16.4373C22.6692 19.8158 19.9072 22.5646 16.5137 22.5646C15.4835 22.5641 14.4682 22.307 13.569 21.8185L10.3049 22.6707ZM13.7202 20.7092C14.5878 21.2219 15.4162 21.5289 16.5116 21.5295C19.3321 21.5295 21.6296 19.2449 21.6312 16.4363C21.6322 13.622 19.3455 11.3405 16.5158 11.3395C13.6932 11.3395 11.3972 13.6241 11.3962 16.4322C11.3957 17.5786 11.7332 18.437 12.3001 19.335L11.7829 21.2146L13.7202 20.7092ZM19.6152 17.8939C19.5769 17.83 19.4744 17.7919 19.3202 17.7151C19.1664 17.6383 18.41 17.2679 18.2687 17.2169C18.1279 17.1659 18.0254 17.1401 17.9224 17.2936C17.8198 17.4467 17.5248 17.7919 17.4352 17.8939C17.3456 17.9959 17.2556 18.0088 17.1018 17.932C16.948 17.8553 16.4521 17.694 15.8645 17.172C15.4074 16.766 15.0983 16.2647 15.0087 16.1112C14.9192 15.9581 14.9994 15.8752 15.076 15.7989C15.1454 15.7304 15.2298 15.6201 15.3069 15.5305C15.3851 15.4419 15.4105 15.378 15.4622 15.2754C15.5135 15.1734 15.4881 15.0838 15.4493 15.007C15.4105 14.9307 15.1029 14.1769 14.9751 13.8704C14.8498 13.572 14.7229 13.6122 14.6287 13.6076L14.3336 13.6024C14.2311 13.6024 14.0644 13.6406 13.9236 13.7941C13.7828 13.9476 13.3852 14.3176 13.3852 15.0714C13.3852 15.8252 13.9366 16.5532 14.0132 16.6553C14.0903 16.7573 15.0978 18.304 16.641 18.9672C17.0081 19.1248 17.2949 19.2191 17.518 19.2897C17.8866 19.4061 18.2221 19.3897 18.4872 19.3505C18.7828 19.3067 19.3973 18.98 19.5257 18.6225C19.6541 18.2644 19.6541 17.9578 19.6152 17.8939Z" fill="white"/>
</svg>
