<svg width="33" height="33" viewBox="0 0 33 33" fill="none" xmlns="http://www.w3.org/2000/svg">
<rect width="32.9756" height="32.9756" rx="16.4878" fill="#262626"/>
<path d="M21.7554 10.3049H11.2178C10.713 10.3049 10.3049 10.7034 10.3049 11.1961V21.7771C10.3049 22.2698 10.713 22.6707 11.2178 22.6707H21.7554C22.2601 22.6707 22.6707 22.2698 22.6707 21.7795V11.1961C22.6707 10.7034 22.2601 10.3049 21.7554 10.3049ZM13.9736 20.8424H12.138V14.9396H13.9736V20.8424ZM13.0558 14.1354C12.4665 14.1354 11.9907 13.6596 11.9907 13.0727C11.9907 12.4858 12.4665 12.01 13.0558 12.01C13.6427 12.01 14.1185 12.4858 14.1185 13.0727C14.1185 13.6572 13.6427 14.1354 13.0558 14.1354ZM20.8424 20.8424H19.0093V17.9731C19.0093 17.2896 18.9972 16.4081 18.0553 16.4081C17.1013 16.4081 16.9563 17.1544 16.9563 17.9248V20.8424H15.1256V14.9396H16.8839V15.7463H16.908C17.152 15.2826 17.751 14.7923 18.6422 14.7923C20.4995 14.7923 20.8424 16.0144 20.8424 17.6036V20.8424V20.8424Z" fill="white"/>
</svg>
