<svg width="33" height="33" viewBox="0 0 33 33" fill="none" xmlns="http://www.w3.org/2000/svg">
<rect width="32.9756" height="32.9756" rx="16.4878" fill="#262626"/>
<path fill-rule="evenodd" clip-rule="evenodd" d="M16.4878 10.4476C13.073 10.4476 10.3049 13.22 10.3049 16.641C10.3049 19.377 12.0763 21.6986 14.5334 22.5173C14.8425 22.5741 14.955 22.3831 14.955 22.2186C14.955 22.0721 14.9501 21.6819 14.947 21.1657C13.2269 21.5397 12.864 20.3353 12.864 20.3353C12.5833 19.6193 12.1777 19.4289 12.1777 19.4289C11.6163 19.0455 12.2203 19.053 12.2203 19.053C12.8405 19.0962 13.1669 19.691 13.1669 19.691C13.7185 20.637 14.6144 20.3637 14.9662 20.2055C15.0231 19.8054 15.1826 19.5328 15.3594 19.3782C13.9868 19.2218 12.5431 18.69 12.5431 16.317C12.5431 15.6412 12.7842 15.0879 13.1793 14.6551C13.1156 14.4986 12.9036 13.8686 13.2399 13.0166C13.2399 13.0166 13.7593 12.8496 14.9402 13.6509C15.4446 13.5134 15.965 13.4433 16.4878 13.4426C17.0133 13.4451 17.542 13.5137 18.036 13.6509C19.2163 12.8496 19.7345 13.016 19.7345 13.016C20.072 13.8686 19.8593 14.4986 19.7963 14.6551C20.192 15.0879 20.4319 15.6412 20.4319 16.317C20.4319 18.6962 18.9857 19.2199 17.6088 19.3732C17.8307 19.5643 18.028 19.9421 18.028 20.5202C18.028 21.3475 18.0205 22.0158 18.0205 22.2186C18.0205 22.3843 18.1318 22.5772 18.4459 22.5166C19.6771 22.1037 20.7474 21.3143 21.5055 20.2599C22.2637 19.2056 22.6713 17.9396 22.6707 16.641C22.6707 13.22 19.902 10.4476 16.4878 10.4476Z" fill="white"/>
</svg>
