<svg width="43" height="25" viewBox="0 0 43 25" fill="none" xmlns="http://www.w3.org/2000/svg">
<path d="M19.2271 10.246C19.548 9.92591 19.9094 9.64918 20.302 9.42285L19.1656 15.0128H18.2872C17.9493 14.5521 17.7773 13.987 17.7773 13.3543C17.7773 12.2793 18.2872 11.1736 19.2271 10.246Z" fill="white"/>
<path d="M21.0945 23.5146C23.8465 23.0601 26.5984 21.6411 28.7239 19.5218C29.4611 18.7943 30.1276 17.9982 30.7141 17.1445L30.0384 20.4494C29.9463 20.5354 29.8541 20.6214 29.7743 20.7074C28.0326 22.4289 25.9362 23.7496 23.6315 24.5774H20.8672L21.0883 23.5208L21.0945 23.5146Z" fill="white"/>
<path d="M38.9701 10.7993C38.9885 10.5843 39.0069 10.3693 39.0315 10.1543H40.6901L39.5229 15.9531H37.6187C38.3251 14.2638 38.7858 12.5316 38.9701 10.7932V10.7993Z" fill="white"/>
<path d="M38.2083 10.1543C38.1898 10.3386 38.1714 10.5229 38.1468 10.7072C37.9625 12.4763 37.4834 14.2393 36.734 15.947H34.2031C34.9403 14.4113 35.4317 12.8141 35.616 11.217C35.6651 10.8669 35.6958 10.5106 35.7143 10.1543H38.2021H38.2083Z" fill="white"/>
<path d="M40.6348 0.00585938H42.9998L42.1766 4.01098C41.8423 2.61447 41.3259 1.26792 40.6409 0.00585938L40.6348 0.00585938Z" fill="white"/>
<path d="M39.6949 0.00585938C40.0788 0.66411 40.4135 1.34989 40.6962 2.05756C41.1627 3.23548 41.4885 4.46437 41.6667 5.71869H38.6813C38.198 3.61523 37.221 1.657 35.8311 0.00585938L39.701 0.00585938H39.6949Z" fill="white"/>
<path d="M34.8914 10.1543C34.873 10.4737 34.8484 10.7993 34.8116 11.1249C34.6089 12.7466 34.0929 14.3806 33.2882 15.947H31.4453C32.2132 14.5648 32.7169 13.1213 32.9319 11.6654C33.0056 11.1556 33.0424 10.6519 33.0424 10.1543H34.8853H34.8914Z" fill="white"/>
<path d="M29.1784 24.5769H25.7139C27.1732 23.8606 28.527 22.947 29.7374 21.8618L29.1784 24.5769Z" fill="white"/>
<path d="M18.1091 21.0698L17.7589 22.7897C15.9898 22.5195 14.4418 21.7577 13.2132 20.5353C12.6793 20.0097 12.2241 19.4097 11.8618 18.7539H14.2882C14.4111 18.8952 14.5339 19.0242 14.6568 19.1532C15.6397 20.136 16.8068 20.7749 18.1214 21.0698H18.1091Z" fill="white"/>
<path d="M18.6004 18.7664L18.2933 20.2714C17.2194 20.0277 16.2281 19.5067 15.4185 18.7603H18.6127L18.6004 18.7725V18.7664Z" fill="white"/>
<path d="M8.16994 14.0238C8.44022 11.2902 9.64421 8.51365 11.6099 6.03809L10.9342 9.22007H11.4256C10.5042 10.9831 10.0128 12.8443 10.0128 14.6749V15.0189H9.73022L8.98079 18.7476H10.9281C11.3511 19.6237 11.9203 20.4214 12.6112 21.1064C13.9626 22.4456 15.658 23.281 17.5869 23.5759L17.3842 24.5771H14.0302C12.9786 24.1226 12.0205 23.4769 11.2045 22.6729C8.93165 20.4185 7.86279 17.347 8.17608 14.0115L8.16994 14.0238Z" fill="white"/>
<path d="M21.4997 4.70557L21.2908 5.71299H18.8828C19.7022 5.256 20.5837 4.92077 21.4997 4.71785V4.70557Z" fill="white"/>
<path d="M21.6843 3.84532C20.167 4.12175 18.6927 4.76675 17.3659 5.71274H15.1299C17.1816 3.75932 19.6326 2.55533 22.0283 2.1499L21.672 3.84532H21.6843Z" fill="white"/>
<path d="M35.0567 5.71869C34.5039 4.18298 33.6193 2.81313 32.4153 1.62757C31.7759 0.994212 31.0549 0.448847 30.2715 0.00585938L34.7435 0.00585938C36.2501 1.61185 37.3165 3.57964 37.8395 5.71869H35.0445H35.0567Z" fill="white"/>
<path d="M30.3455 3.69156C29.3627 2.72713 28.1832 2.02071 26.8257 1.603C26.4507 1.48968 26.0691 1.39941 25.6831 1.33271L25.9411 0.00585938H28.3368C29.6454 0.477499 30.8359 1.22785 31.8259 2.20499C32.8579 3.23699 33.6442 4.41641 34.1602 5.71869H33.0668L32.6798 7.58611L32.6491 7.46325C32.2191 6.0504 31.4389 4.79112 30.3332 3.69156H30.3455Z" fill="white"/>
<path d="M26.9981 17.9923C30.9049 14.1224 31.4455 8.82109 28.2635 5.66368C27.4035 4.81597 26.3408 4.2324 25.1429 3.94369L25.5115 2.1377C27.1271 2.42027 28.6013 3.12055 29.7623 4.2754C31.3165 5.81111 32.158 7.71538 32.2318 9.8408C32.2502 10.4159 32.2173 10.9915 32.1335 11.5608C31.7526 14.1654 30.3336 16.7945 28.1406 18.9629C26.2241 20.8672 23.7547 22.1879 21.2729 22.6732L21.6108 21.0392C23.5274 20.6215 25.4194 19.5649 27.0165 17.9923H26.9981Z" fill="white"/>
<path d="M13.4834 14.1715C13.4834 12.4945 14.0485 10.7684 15.0805 9.22656H16.5671C16.1419 9.76398 15.7849 10.352 15.5044 10.9773C15.0928 11.8864 14.8901 12.8201 14.8901 13.7415C14.8901 14.1715 14.9331 14.6138 15.0314 15.0315H13.5325C13.5018 14.749 13.4834 14.4664 13.4834 14.1715Z" fill="white"/>
<path d="M19.1532 9.22021C18.9771 9.36029 18.809 9.50999 18.6495 9.66864C17.556 10.7559 16.954 12.0643 16.954 13.3543C16.954 13.9563 17.0892 14.5215 17.3349 15.0129H15.8791C15.7635 14.5927 15.7057 14.1587 15.7071 13.7229C15.7071 12.1872 16.4073 10.5655 17.6359 9.22636H19.1593L19.1532 9.22021Z" fill="white"/>
<path d="M10.8481 14.6753C10.8481 12.8324 11.3703 10.9773 12.3593 9.22656H14.1161C13.1763 10.7868 12.6603 12.5007 12.6603 14.1777C12.6603 14.4664 12.6849 14.749 12.7217 15.0254H10.8604C10.8542 14.9108 10.8501 14.7961 10.8481 14.6814V14.6753Z" fill="white"/>
<path d="M3.93123 15.9161C3.93123 17.7774 4.27523 19.5649 4.93866 21.2112C5.42459 22.4239 6.08697 23.5583 6.90436 24.5775H3.23709C2.83471 23.9034 2.48556 23.1989 2.19281 22.4705C1.71119 21.2712 1.38102 20.0166 1.20996 18.7356L3.68552 6.70183C4.91409 4.45355 6.51122 2.34042 8.46464 0.41157C8.60593 0.270285 8.74721 0.135142 8.89464 0H12.4083C11.7285 0.541942 11.0785 1.12021 10.4611 1.73228C8.34179 3.83313 6.70165 6.15512 5.57751 8.64296C4.49023 11.0387 3.93738 13.4958 3.93738 15.9038L3.93123 15.9161Z" fill="white"/>
<path d="M1.43742 22.7775C1.68365 23.3949 1.96885 23.9961 2.29128 24.5774H0L0.780139 20.8057C0.952364 21.4742 1.16782 22.1308 1.42514 22.7714L1.43742 22.7775Z" fill="white"/>
<path d="M25.1857 11.9229C25.1243 12.8751 24.6513 13.8272 23.8773 14.5889C23.5434 14.9175 23.1675 15.2005 22.7593 15.4305L24.0247 9.31836C24.1598 9.40436 24.2704 9.50264 24.3933 9.60707C24.983 10.2029 25.2717 11.0199 25.2041 11.9413L25.1857 11.9229Z" fill="white"/>
<path d="M28.1281 11.2352C28.1281 9.79167 27.5752 8.48939 26.5309 7.4574C25.9967 6.93014 25.3498 6.53106 24.6389 6.29026L24.9645 4.72998C26.0088 4.97569 26.9302 5.49169 27.6673 6.23497C30.5299 9.06068 29.9893 13.8705 26.4203 17.4149C25.0444 18.7663 23.4226 19.7185 21.7764 20.1546L22.0835 18.6496C23.3735 18.2688 24.5836 17.5439 25.6034 16.5304C27.2251 14.9209 28.1219 13.0289 28.1219 11.2352H28.1281Z" fill="white"/>
<path d="M25.032 15.9527C24.2088 16.7758 23.2506 17.3655 22.2861 17.7341L22.5503 16.4441C23.2604 16.1375 23.9064 15.6998 24.4546 15.1541C25.376 14.2573 25.9288 13.127 26.0148 11.9906C26.107 10.848 25.7384 9.79757 24.9706 9.02972C24.7442 8.81017 24.4877 8.62401 24.2088 8.47686L24.4914 7.09473C25.0443 7.30358 25.548 7.61687 25.9657 8.03458C26.8503 8.913 27.3171 10.0187 27.3171 11.2411C27.3171 12.826 26.5063 14.4968 25.0443 15.9588L25.032 15.9527Z" fill="white"/>
<path d="M11.856 5.71869C12.2687 5.22069 12.7053 4.74303 13.1644 4.28741C15.2529 2.21728 17.6855 0.785999 20.1672 0.00585938H22.4708L22.2005 1.29585C19.3441 1.70742 16.5491 3.1387 14.3131 5.36855C14.1902 5.49141 14.0797 5.60198 13.9691 5.71869H11.856Z" fill="white"/>
<path d="M6.32668 8.97439C7.40781 6.57869 8.99266 4.3427 11.0382 2.31556C11.8789 1.47782 12.7825 0.705667 13.7411 0.00585938L17.9182 0.00585938C17.7953 0.0672877 17.6602 0.128716 17.5251 0.190144C15.7129 1.07471 14.0544 2.26028 12.5862 3.70999C11.0382 5.24569 9.80352 6.91654 8.91281 8.68568C8.05281 10.4057 7.52453 12.1748 7.35253 13.9439C7.01467 17.5068 8.17567 20.8116 10.6205 23.238C11.129 23.7442 11.6914 24.1933 12.2975 24.5772H7.97295C7.00862 23.4979 6.23952 22.2591 5.70011 20.9161C5.07354 19.3558 4.76025 17.6726 4.76025 15.9096C4.76025 13.6061 5.28854 11.278 6.32668 8.96825V8.97439Z" fill="white"/>
<path d="M5.07402 0.00585938H7.71544C6.36401 1.35728 5.19688 2.7947 4.18945 4.30584L5.07402 0.00585938Z" fill="white"/>
</svg>
