<svg width="21" height="39" viewBox="0 0 21 39" fill="none" xmlns="http://www.w3.org/2000/svg">
<g clip-path="url(#clip0_33_5781)">
<path d="M20.2076 11.6141L10.1023 5.80752L0 11.6141V5.80752L10.1038 0.000976562L20.2091 5.80752V11.6141H20.2076Z" fill="#A435F0"/>
<path d="M0 16.4902H5.29303V29.29C5.29303 32.5969 7.77382 34.2092 10.1038 34.2092C12.4539 34.2092 14.9166 32.554 14.9166 29.2456V16.4902H20.2091V29.5952C20.2091 32.6413 19.247 34.9922 17.3224 36.604C15.3968 38.2148 12.9919 38.9993 10.0593 38.9993C7.12951 38.9993 4.72314 38.2163 2.84358 36.604C0.962058 34.9937 0 32.73 0 29.7254V16.4902Z" fill="white"/>
</g>
<defs>
<clipPath id="clip0_33_5781">
<rect width="20.2091" height="39" fill="white"/>
</clipPath>
</defs>
</svg>
