<svg width="269" height="158" viewBox="0 0 269 158" fill="none" xmlns="http://www.w3.org/2000/svg">
<g clip-path="url(#clip0_54_3984)">
<path d="M76.454 57.0306C76.454 60.2621 76.8037 62.8822 77.4156 64.8036C78.1149 66.725 78.989 68.821 80.2128 71.0918C80.6498 71.7905 80.8247 72.4892 80.8247 73.1005C80.8247 73.9739 80.3002 74.8473 79.1638 75.7206L73.6568 79.3887C72.8701 79.9128 72.0834 80.1748 71.3841 80.1748C70.5099 80.1748 69.6358 79.7381 68.7617 78.9521C67.5379 77.642 66.4889 76.2446 65.6148 74.8473C64.7407 73.3625 63.8666 71.7031 62.905 69.6944C56.0868 77.7293 47.5203 81.7468 37.2056 81.7468C29.8629 81.7468 24.0062 79.6507 19.723 75.4586C15.4397 71.2665 13.2544 65.6769 13.2544 58.69C13.2544 51.2664 15.8768 45.2402 21.209 40.6987C26.5412 36.1572 33.6216 33.8865 42.6252 33.8865C45.5972 33.8865 48.6567 34.1485 51.891 34.5852C55.1252 35.0219 58.4469 35.7206 61.9435 36.5066V30.131C61.9435 23.4935 60.5448 18.8647 57.835 16.1572C55.0378 13.4498 50.3175 12.1398 43.5867 12.1398C40.5273 12.1398 37.3804 12.4891 34.1461 13.2751C30.9118 14.0612 27.765 15.0219 24.7055 16.2446C23.3069 16.8559 22.2579 17.2053 21.646 17.3799C21.0342 17.5546 20.5971 17.6419 20.2474 17.6419C19.0237 17.6419 18.4118 16.7686 18.4118 14.9345V10.655C18.4118 9.25765 18.5866 8.20962 19.0237 7.59826C19.4607 6.98691 20.2474 6.37555 21.4712 5.7642C24.5307 4.19214 28.202 2.8821 32.4853 1.83406C36.7685 0.698691 41.314 0.174673 46.1217 0.174673C56.5238 0.174673 64.1288 2.53275 69.0239 7.24892C73.8316 11.9651 76.2792 19.1267 76.2792 28.7337V57.0306H76.454ZM40.9643 70.3058C43.849 70.3058 46.821 69.7817 49.9679 68.7337C53.1147 67.6857 55.912 65.7643 58.2721 63.1442C59.6707 61.4848 60.7197 59.6507 61.2442 57.5547C61.7686 55.4586 62.1183 52.9258 62.1183 49.9564V46.2883C59.5833 45.6769 56.8735 45.1529 54.0763 44.8035C51.2791 44.4542 48.5693 44.2795 45.8595 44.2795C40.0028 44.2795 35.7195 45.4149 32.8349 47.773C29.9503 50.1311 28.5517 53.4498 28.5517 57.8167C28.5517 61.9215 29.6006 64.9782 31.786 67.0743C33.8839 69.2577 36.9433 70.3058 40.9643 70.3058ZM111.157 79.7381C109.584 79.7381 108.535 79.4761 107.835 78.8647C107.136 78.3407 106.524 77.118 106 75.4586L85.4576 7.94761C84.9331 6.20088 84.6709 5.06551 84.6709 4.45415C84.6709 3.05677 85.3702 2.27074 86.7688 2.27074H95.3352C96.9961 2.27074 98.1325 2.53275 98.7444 3.14411C99.4437 3.66813 99.9681 4.89084 100.493 6.55023L115.178 64.3669L128.814 6.55023C129.252 4.8035 129.776 3.66813 130.475 3.14411C131.175 2.62009 132.398 2.27074 133.972 2.27074H140.965C142.626 2.27074 143.762 2.53275 144.461 3.14411C145.161 3.66813 145.773 4.89084 146.122 6.55023L159.933 65.0656L175.056 6.55023C175.58 4.8035 176.192 3.66813 176.804 3.14411C177.503 2.62009 178.64 2.27074 180.213 2.27074H188.343C189.741 2.27074 190.528 2.96944 190.528 4.45415C190.528 4.89084 190.441 5.32752 190.353 5.85154C190.266 6.37555 190.091 7.07424 189.741 8.03494L168.675 75.5459C168.15 77.2927 167.538 78.428 166.839 78.9521C166.14 79.4761 165.003 79.8254 163.517 79.8254H156C154.339 79.8254 153.203 79.5634 152.503 78.9521C151.804 78.3407 151.192 77.2053 150.843 75.4586L137.293 19.1267L123.832 75.3713C123.395 77.118 122.87 78.2534 122.171 78.8647C121.472 79.4761 120.248 79.7381 118.675 79.7381H111.157ZM223.483 82.0962C218.937 82.0962 214.392 81.5722 210.021 80.5241C205.65 79.4761 202.241 78.3407 199.969 77.0307C198.57 76.2446 197.609 75.3713 197.259 74.5852C196.909 73.7992 196.734 72.9258 196.734 72.1398V67.6857C196.734 65.8516 197.434 64.9782 198.745 64.9782C199.269 64.9782 199.794 65.0656 200.318 65.2402C200.843 65.4149 201.63 65.7643 202.504 66.1136C205.476 67.4237 208.71 68.4717 212.119 69.1704C215.616 69.8691 219.025 70.2184 222.521 70.2184C228.028 70.2184 232.311 69.2577 235.284 67.3363C238.256 65.4149 239.829 62.6202 239.829 59.0394C239.829 56.5939 239.042 54.5852 237.469 52.9258C235.895 51.2664 232.923 49.7817 228.64 48.3843L215.965 44.4542C209.584 42.4455 204.864 39.476 201.979 35.5459C199.095 31.7031 197.608 27.4236 197.608 22.8821C197.608 19.214 198.395 15.9826 199.969 13.1878C201.542 10.393 203.64 7.94761 206.262 6.02621C208.885 4.01747 211.857 2.53275 215.353 1.48472C218.85 0.436682 222.521 0 226.367 0C228.29 0 230.301 0.0873363 232.224 0.349345C234.235 0.611354 236.07 0.9607 237.906 1.31005C239.654 1.74673 241.315 2.18341 242.888 2.70743C244.462 3.23144 245.686 3.75546 246.56 4.27948C247.784 4.97817 248.658 5.67686 249.182 6.46289C249.707 7.16158 249.969 8.12228 249.969 9.34499V13.4498C249.969 15.2839 249.27 16.2446 247.958 16.2446C247.259 16.2446 246.123 15.8952 244.637 15.1965C239.654 12.9258 234.06 11.7904 227.853 11.7904C222.871 11.7904 218.937 12.5764 216.227 14.2358C213.518 15.8952 212.119 18.428 212.119 22.0088C212.119 24.4542 212.993 26.5503 214.741 28.2096C216.49 29.869 219.724 31.5284 224.357 33.0131L236.77 36.9433C243.063 38.952 247.609 41.7468 250.319 45.3276C253.028 48.9084 254.34 53.0132 254.34 57.5547C254.34 61.3101 253.553 64.7162 252.067 67.6857C250.493 70.6551 248.395 73.2752 245.686 75.3713C242.976 77.5547 239.742 79.1267 235.983 80.2621C232.049 81.4848 227.941 82.0962 223.483 82.0962Z" fill="white"/>
<path fill-rule="evenodd" clip-rule="evenodd" d="M240.004 124.542C211.245 145.765 169.461 157.031 133.535 157.031C83.1848 157.031 37.8175 138.428 3.55156 107.511C0.84176 105.066 3.28932 101.747 6.52361 103.669C43.5867 125.153 89.3037 138.166 136.594 138.166C168.5 138.166 203.553 131.529 235.808 117.904C240.616 115.721 244.724 121.048 240.004 124.542Z" fill="#FF9900"/>
<path fill-rule="evenodd" clip-rule="evenodd" d="M251.979 110.917C248.308 106.201 227.679 108.647 218.325 109.782C215.528 110.131 215.091 107.686 217.626 105.852C234.06 94.3234 261.07 97.6422 264.217 101.485C267.364 105.415 263.343 132.402 247.958 145.328C245.598 147.337 243.326 146.289 244.375 143.668C247.871 135.022 255.651 115.546 251.979 110.917Z" fill="#FF9900"/>
</g>
<defs>
<clipPath id="clip0_54_3984">
<rect width="268.206" height="157.031" fill="white"/>
</clipPath>
</defs>
</svg>
