<svg width="300" height="218" viewBox="0 0 300 218" fill="none" xmlns="http://www.w3.org/2000/svg">
<path d="M296.287 82.0995C295.475 81.4468 287.899 75.6528 271.921 75.6528C267.703 75.6715 263.493 76.038 259.332 76.7488C256.24 55.2817 238.717 44.8153 237.931 44.3457L233.64 41.8398L230.819 45.9639C227.285 51.5037 224.705 57.6107 223.191 64.0251C220.33 76.2793 222.07 87.7891 228.216 97.629C220.794 101.818 208.889 102.849 206.479 102.94H9.36693C4.21841 102.947 0.040629 107.161 0.0125705 112.376C-0.217342 129.865 2.70828 147.25 8.64537 163.675C15.4355 181.71 25.5374 194.995 38.6801 203.125C53.4074 212.26 77.3346 217.48 104.457 217.48C116.71 217.519 128.94 216.396 140.986 214.127C157.731 211.013 173.845 205.085 188.66 196.587C200.867 189.427 211.853 180.319 221.194 169.613C236.811 151.708 246.114 131.767 253.033 114.046H255.79C272.888 114.046 283.402 107.116 289.2 101.309C293.054 97.6053 296.062 93.0936 298.014 88.0894L299.238 84.4616L296.287 82.0995Z" fill="#2496ED"/>
<path d="M27.6366 97.0955H54.0505C55.3244 97.0955 56.3567 96.0496 56.3567 94.7597V70.93C56.3638 69.6397 55.337 68.5883 54.0635 68.5811C54.0593 68.5811 54.0547 68.5811 54.0505 68.5811H27.6366C26.3626 68.5811 25.3303 69.627 25.3303 70.9169V70.93V94.7593C25.3303 96.0496 26.3626 97.0955 27.6366 97.0955Z" fill="#2496ED"/>
<path d="M64.0381 97.0955H90.4521C91.726 97.0955 92.7583 96.0496 92.7583 94.7597V70.93C92.7654 69.6397 91.7386 68.5883 90.4646 68.5811C90.4604 68.5811 90.4558 68.5811 90.4516 68.5811H64.0377C62.7567 68.5811 61.7185 69.6325 61.7185 70.93V94.7593C61.726 96.0517 62.7621 97.0955 64.0381 97.0955Z" fill="#2496ED"/>
<path d="M100.991 97.0955H127.405C128.679 97.0955 129.711 96.0496 129.711 94.7597V70.93C129.718 69.6397 128.691 68.5883 127.417 68.5811C127.413 68.5811 127.409 68.5811 127.404 68.5811H100.991C99.7166 68.5811 98.6843 69.627 98.6843 70.9169V70.93V94.7593C98.6847 96.0496 99.7175 97.0955 100.991 97.0955Z" fill="#2496ED"/>
<path d="M137.506 97.0955H163.92C165.196 97.0955 166.232 96.0521 166.239 94.7597V70.93C166.239 69.6325 165.201 68.5811 163.92 68.5811H137.506C136.232 68.5811 135.199 69.627 135.199 70.9169V70.93V94.7593C135.199 96.0496 136.232 97.0955 137.506 97.0955Z" fill="#2496ED"/>
<path d="M64.0377 62.809H90.4516C91.7273 62.8018 92.7579 61.752 92.7579 60.46V36.6307C92.7579 35.3405 91.7252 34.2949 90.4516 34.2949H64.0377C62.7621 34.2949 61.7256 35.3383 61.7185 36.6307V60.46C61.7256 61.7545 62.7596 62.8018 64.0377 62.809Z" fill="#2496ED"/>
<path d="M100.991 62.809H127.404C128.68 62.8018 129.711 61.752 129.711 60.46V36.6307C129.711 35.3405 128.678 34.2949 127.404 34.2949H100.991C99.7166 34.2949 98.6843 35.3409 98.6843 36.6307V60.46C98.6843 61.752 99.715 62.8018 100.991 62.809Z" fill="#2496ED"/>
<path d="M137.506 62.809H163.92C165.198 62.8018 166.232 61.7545 166.239 60.46V36.6307C166.232 35.3383 165.196 34.2949 163.92 34.2949H137.506C136.232 34.2949 135.199 35.3409 135.199 36.6307V60.46C135.199 61.752 136.23 62.8018 137.506 62.809Z" fill="#2496ED"/>
<path d="M137.506 28.5145H163.92C165.196 28.5145 166.232 27.4706 166.239 26.1787V2.33581C166.232 1.04341 165.196 0 163.92 0H137.506C136.232 0 135.199 1.04554 135.199 2.33581V26.1783C135.199 27.4685 136.232 28.5145 137.506 28.5145Z" fill="#2496ED"/>
<path d="M174.345 97.0955H200.758C202.035 97.0955 203.071 96.0521 203.078 94.7597V70.93C203.078 69.6325 202.04 68.5811 200.758 68.5811H174.345C173.071 68.5811 172.038 69.627 172.038 70.9169V70.93V94.7593C172.038 96.0496 173.071 97.0955 174.345 97.0955Z" fill="#2496ED"/>
</svg>
