<svg width="167" height="135" viewBox="0 0 167 135" fill="none" xmlns="http://www.w3.org/2000/svg">
<path d="M105.963 37.1729H111.059L125.578 22.5893L126.292 16.4015C99.2784 -7.54818 58.0411 -4.96758 34.1989 22.1674C27.5699 29.7053 22.7608 38.6707 20.1428 48.3743C21.7598 47.7063 23.5518 47.6008 25.2389 48.0649L54.2681 43.2553C54.2681 43.2553 55.7451 40.8012 56.5081 40.9559C69.4232 26.7099 91.1583 25.0504 106.068 37.1729H105.963Z" fill="#EA4335"/>
<path d="M146.256 48.3737C142.917 36.0332 136.071 24.9374 126.544 16.4502L106.173 36.9122C114.776 43.9719 119.676 54.6108 119.466 65.77V69.4053C129.484 69.4053 137.597 77.562 137.597 87.6172C137.597 97.6794 129.477 105.829 119.466 105.829H83.1993L79.5803 109.514V131.361L83.1993 134.996H119.466C140.257 135.158 158.702 121.622 164.876 101.68C171.036 81.7317 163.476 60.0743 146.256 48.3737Z" fill="#4285F4"/>
<path d="M46.8829 134.793H83.1501V105.633H46.8829C44.2999 105.633 41.7449 105.077 39.3929 103.994L34.2968 105.576L19.6807 120.16L18.4067 125.279C26.6038 131.495 36.6068 134.835 46.8829 134.793Z" fill="#34A853"/>
<path d="M46.8829 40.1897C26.7368 40.3093 8.89371 53.2685 2.46766 72.4437C-3.95838 91.6189 2.44666 112.784 18.4138 125.118L39.4489 103.988C30.3208 99.8459 26.2678 89.0594 30.3908 79.8902C34.5139 70.721 45.2519 66.6497 54.38 70.7913C58.398 72.6195 61.618 75.854 63.4381 79.8902L84.4732 58.7602C75.5201 47.0104 61.611 40.1405 46.8829 40.1897Z" fill="#FBBC05"/>
</svg>
