<svg width="566" height="655" viewBox="0 0 566 655" fill="none" xmlns="http://www.w3.org/2000/svg">
<path d="M409.327 78.0666V568.771C409.327 623.72 447.236 654.273 487.471 654.273C524.682 654.273 565.615 628.251 565.615 568.771V81.784C565.615 31.4822 528.403 0 487.471 0C446.538 0 409.327 34.735 409.327 78.0666Z" fill="#F8AB00"/>
<path d="M204.663 327.137V568.772C204.663 623.72 242.572 654.273 282.807 654.273C320.019 654.273 360.951 628.251 360.951 568.772V330.854C360.951 280.552 323.74 249.07 282.807 249.07C241.875 249.07 204.663 283.805 204.663 327.137Z" fill="#E37300"/>
<path d="M156.288 576.206C156.288 619.306 121.286 654.273 78.1441 654.273C35.0021 654.273 0 619.306 0 576.206C0 533.107 35.0021 498.14 78.1441 498.14C121.286 498.14 156.288 533.107 156.288 576.206Z" fill="#E37300"/>
</svg>
