<svg width="314" height="314" viewBox="0 0 314 314" fill="none" xmlns="http://www.w3.org/2000/svg">
<path d="M0 30C0 13.4315 13.4315 0 30 0H284C300.569 0 314 13.4315 314 30V284C314 300.569 300.569 314 284 314H30C13.4315 314 0 300.569 0 284V30Z" fill="#F7DF1E"/>
<path d="M82.5623 262.401L106.591 247.859C111.227 256.078 115.444 263.032 125.559 263.032C135.255 263.032 141.37 259.24 141.37 244.487V144.156H170.877V244.904C170.877 275.466 152.962 289.378 126.824 289.378C103.219 289.378 89.5169 277.153 82.561 262.398M186.905 259.239L210.931 245.328C217.256 255.657 225.476 263.245 240.019 263.245C252.246 263.245 260.042 257.131 260.042 248.7C260.042 238.583 252.033 234.999 238.543 229.1L231.168 225.935C209.878 216.874 195.757 205.492 195.757 181.464C195.757 159.332 212.618 142.469 238.966 142.469C257.725 142.469 271.215 149.004 280.91 166.076L257.934 180.832C252.874 171.769 247.396 168.186 238.965 168.186C230.323 168.186 224.842 173.666 224.842 180.832C224.842 189.684 230.323 193.269 242.968 198.75L250.345 201.91C275.428 212.661 289.55 223.621 289.55 248.279C289.55 274.839 268.683 289.381 240.65 289.381C213.25 289.381 195.545 276.314 186.903 259.24" fill="black"/>
</svg>
