<svg width="75" height="75" viewBox="0 0 75 75" fill="none" xmlns="http://www.w3.org/2000/svg">
<path d="M0 18.75C0 8.39466 8.39466 0 18.75 0H56.25C66.6053 0 75 8.39466 75 18.75V56.25C75 66.6053 66.6053 75 56.25 75H18.75C8.39466 75 0 66.6053 0 56.25V18.75Z" fill="#1868DB"/>
<mask id="mask0_63_337" style="mask-type:luminance" maskUnits="userSpaceOnUse" x="12" y="16" width="49" height="48">
<path d="M60.0493 16.2344H12.8711V63.7783H60.0493V16.2344Z" fill="white"/>
</mask>
<g mask="url(#mask0_63_337)">
<path d="M28.0429 48.5093H23.817C17.4434 48.5093 12.8711 44.6054 12.8711 38.889H35.5942C36.772 38.889 37.534 39.7255 37.534 40.9106V63.7763C31.8532 63.7763 28.0429 59.1753 28.0429 52.7618V48.5093ZM39.266 37.1462H35.04C28.6664 37.1462 24.0941 33.312 24.0941 27.5955H46.8172C47.995 27.5955 48.8263 28.3624 48.8263 29.5475V52.4132C43.1455 52.4132 39.266 47.8122 39.266 41.3986V37.1462ZM50.5582 25.8527H46.3323C39.9587 25.8527 35.3864 21.9488 35.3864 16.2324H58.1095C59.2873 16.2324 60.0493 17.0689 60.0493 18.1843V41.0501C54.3685 41.0501 50.5582 36.449 50.5582 30.0355V25.8527Z" fill="white"/>
</g>
</svg>
