<svg width="188" height="415" viewBox="0 0 188 415" fill="none" xmlns="http://www.w3.org/2000/svg">
<path d="M92.3959 1.13086L103.53 21.9033C106.033 25.7367 108.745 29.1297 111.939 32.2896C121.303 41.4757 130.032 51.2799 138.065 61.6352C156.93 86.241 169.655 113.566 178.742 143.119C184.191 161.172 187.151 179.691 187.372 198.418C188.285 254.402 168.964 302.474 130.008 342.426C123.672 348.762 116.826 354.574 109.54 359.806C105.681 359.806 103.856 356.866 102.265 354.159C99.3686 349.14 97.4408 343.628 96.5809 337.907C95.2119 331.134 94.3124 324.361 94.7556 317.367V314.207C94.4427 313.534 91.04 2.72376 92.3959 1.13086V1.13086Z" fill="#599636"/>
<path d="M92.396 0.445534C91.9397 -0.460996 91.4834 0.225376 91.0271 0.665691C91.2487 5.19834 89.6582 9.23888 87.168 13.0981C84.4302 16.9314 80.8059 19.8712 77.1685 23.0311C56.9607 40.4106 41.0553 61.4032 28.3179 84.8824C11.3695 116.481 2.63452 150.347 0.157447 185.999C-0.976793 198.859 4.25114 244.237 8.3318 257.33C19.4656 292.089 39.4647 321.215 65.3698 346.494C71.7319 352.581 78.5374 358.227 85.5775 363.653C87.6243 363.653 87.846 361.84 88.3153 360.493C89.2127 357.612 89.8968 354.668 90.3622 351.687L94.9252 317.835L92.396 0.445534Z" fill="#6CAC48"/>
<path d="M103.53 373.56C103.986 368.38 106.489 364.08 109.214 359.794C106.476 358.667 104.443 356.427 102.852 353.927C101.481 351.561 100.345 349.067 99.4623 346.481C96.2812 337.001 95.6033 327.055 94.6907 317.368V311.502C93.5564 312.408 93.3218 320.075 93.3218 321.215C92.6584 331.453 91.2906 341.634 89.2281 351.687C88.5501 355.753 88.0938 359.807 85.5776 363.42C85.5776 363.873 85.5776 364.326 85.7993 365C89.893 376.966 91.0142 389.152 91.7052 401.572V406.104C91.7052 411.518 91.4835 410.378 96.0074 412.191C97.8327 412.864 99.8665 413.098 101.692 414.444C103.061 414.444 103.282 413.318 103.282 412.411L102.604 404.965V384.192C102.383 380.566 103.061 376.966 103.517 373.573L103.53 373.56Z" fill="#C2BFBF"/>
</svg>
