<svg width="148" height="148" viewBox="0 0 148 148" fill="none" xmlns="http://www.w3.org/2000/svg">
<path d="M73.5999 143.8C34.8999 143.8 3.3999 112.4 3.3999 73.5996C3.3999 34.7996 34.7999 3.59961 73.5999 3.59961C112.4 3.59961 143.8 34.9996 143.8 73.7996C143.8 112.6 112.3 143.8 73.5999 143.8Z" fill="#FCDC00"/>
<path d="M73.6 7.10001C110.3 7.10001 140.1 36.9 140.1 73.6C140.1 110.3 110.3 140.1 73.6 140.1C36.9 140.1 7.1 110.3 7.1 73.6C7.1 36.9 36.9 7.10001 73.6 7.10001ZM73.6 0C33 0 0 33 0 73.6C0 114.2 33.1 147.2 73.6 147.2C114.1 147.2 147.2 114.1 147.2 73.6C147.2 33.1 114.1 0 73.6 0Z" fill="#173647"/>
<path d="M115.9 70.7998L121.6 62.6998L115.5 47.8998L105.8 46.0998L101.5 41.7998L99.8998 32.0998L84.8998 25.7998L76.7998 31.4998H70.6998L62.5998 25.7998L47.5998 31.8998L45.7998 41.5998L41.2998 45.8998L31.5998 47.6998L25.2998 62.4998L30.9998 70.5998V76.6998L25.2998 84.7998L31.3998 99.7998L41.0998 101.6L45.3998 105.9L47.1998 115.6L61.9998 121.9L70.0998 116.2H76.1998L84.2998 121.9L99.2998 115.8L101.1 106.1L105.6 101.8L115.3 100.2L121.6 85.3998L115.9 77.2998V70.7998ZM113.7 85.9998L110.5 93.8998L102.4 95.2998L94.8998 102.8L93.4998 110.9L85.5998 114.1L78.8998 109.4H68.3998L61.4998 114.1L53.5998 110.9L52.1998 102.8L44.8998 95.2998L36.7998 93.8998L33.5998 85.9998L38.2998 79.2998V68.7998L33.5998 61.8998L36.7998 53.9998L44.8998 52.5998L52.3998 45.0998L53.7998 36.9998L61.6998 33.7998L68.3998 38.4998H78.8998L85.7998 33.7998L93.6998 36.9998L95.0998 45.0998L102.6 52.5998L110.7 53.9998L113.9 61.8998L109.2 68.7998V79.2998L113.7 85.9998ZM99.6998 75.5998C99.6998 89.9998 87.8998 101.8 73.4998 101.8C59.0998 101.8 47.2998 89.9998 47.2998 75.5998C47.2998 68.6998 49.8998 61.9998 54.9998 57.0998L59.8998 61.9998C56.2998 65.5998 54.1998 70.4998 54.1998 75.5998C54.1998 83.2998 58.6998 89.7998 65.0998 92.7998L74.5998 77.7998L59.9998 74.7998L75.9998 46.1998L82.0998 49.5998L70.6998 69.8998L86.0998 73.2998L72.4998 94.7998C72.8998 94.7998 73.0998 94.7998 73.4998 94.7998C83.9998 94.7998 92.5998 86.2998 92.5998 75.6998C92.5998 69.9998 90.1998 64.7998 85.6998 61.0998L90.1998 55.5998C96.2998 60.5998 99.6998 67.8998 99.6998 75.5998Z" fill="#173647"/>
</svg>
