<svg width="512" height="512" viewBox="0 0 512 512" fill="none" xmlns="http://www.w3.org/2000/svg">
<g clip-path="url(#clip0_58_4172)">
<path d="M77.888 72.0003C179.046 -25.9965 340.794 -23.3622 438.79 78.3227C449.854 63.5704 459.338 47.2376 466.187 30.378C498.326 128.375 517.82 210.566 510.444 274.316C506.756 328.056 485.681 379.689 450.908 420.785C360.288 528.265 199.067 541.964 91.5865 451.343L89.5303 449.513L89.421 449.441C89.0844 449.207 88.7524 448.963 88.4253 448.708C87.4443 447.945 86.5534 447.115 85.7528 446.228L85.4644 445.9L82.103 442.913C78.8247 440.103 75.5464 437.293 72.6382 434.113L71.5657 432.903C-26.4312 331.745 -23.27 169.997 77.888 72.0003ZM115.822 414.989C106.339 407.613 92.6403 408.667 85.2642 418.15C78.7783 426.489 78.8102 438.087 85.36 445.78L85.4644 445.9L89.5303 449.513L89.9293 449.785C99.1385 455.841 111.529 454.589 118.596 446.03L118.983 445.547C126.36 436.064 124.779 422.365 115.822 414.989ZM463.553 56.7212C437.21 112.042 371.879 154.191 315.504 167.363C262.291 180.008 215.927 169.47 166.928 188.437C55.2329 231.113 57.3403 363.883 118.457 393.915L122.145 396.022C122.145 396.022 166.291 387.244 209.946 375.653L213.686 374.653C231.122 369.954 248.276 364.832 262.291 359.668C334.998 332.798 415.081 266.413 441.425 189.491C427.726 269.574 358.707 347.024 289.688 382.324C252.807 401.291 224.356 405.506 163.767 426.58C156.391 429.214 150.595 431.849 150.595 431.849C151.335 431.747 152.074 431.647 152.812 431.55L154.284 431.359L155.749 431.175C169.13 429.517 181.154 428.688 181.154 428.688C267.032 424.473 401.91 452.923 464.607 369.152C528.884 283.8 493.057 145.761 463.553 56.7212Z" fill="#6DB33F"/>
<path d="M115.823 414.99C124.78 422.366 126.36 436.064 118.984 445.548C111.608 455.031 97.9097 456.085 88.4261 448.709C78.9425 441.333 77.8888 427.634 85.2649 418.151C92.641 408.667 106.34 407.613 115.823 414.99ZM463.554 56.7217C493.058 145.762 528.885 283.8 464.607 369.152C401.911 452.924 267.033 424.473 181.154 428.688C181.154 428.688 169.131 429.517 155.749 431.176L154.285 431.36C153.061 431.516 151.828 431.679 150.596 431.849C150.596 431.849 156.392 429.215 163.768 426.581C224.357 405.506 252.808 401.291 289.688 382.324C358.708 347.024 427.727 269.575 441.425 189.492C415.082 266.414 334.999 332.799 262.291 359.669C212.239 378.109 122.145 396.022 122.145 396.022L118.457 393.915C57.3411 363.884 55.2336 231.114 166.929 188.438C215.927 169.471 262.291 180.008 315.505 167.363C371.879 154.192 437.211 112.042 463.554 56.7217Z" fill="white"/>
</g>
<defs>
<clipPath id="clip0_58_4172">
<rect width="512" height="512" fill="white"/>
</clipPath>
</defs>
</svg>
