<svg width="780" height="451" viewBox="0 0 780 451" fill="none" xmlns="http://www.w3.org/2000/svg">
<path d="M772.092 0.121979H764.665C725.581 0.0609788 693.863 31.713 693.863 70.792V228.842C693.863 260.403 667.776 285.969 636.728 285.969C618.282 285.969 599.866 276.686 588.939 261.103L427.519 30.557C414.126 11.413 392.332 0 368.741 0C331.94 0 298.822 31.287 298.822 69.91V228.872C298.822 260.434 272.949 285.999 241.688 285.999C223.181 285.999 204.795 276.716 193.867 261.134L13.241 3.13498C9.162 -2.70902 0 0.182992 0 7.30499V145.145C0 152.115 2.131 158.872 6.118 164.593L183.883 418.453C194.385 433.457 209.879 444.597 227.746 448.645C272.462 458.81 313.616 424.388 313.616 380.531V221.659C313.616 190.098 339.185 164.532 370.75 164.532H370.841C389.866 164.532 407.703 173.815 418.631 189.398L580.081 419.914C593.505 439.088 614.173 450.471 638.829 450.471C676.452 450.471 708.687 419.153 708.687 380.561V221.629C708.687 190.068 734.256 164.502 765.821 164.502H772.122C776.079 164.502 779.276 161.306 779.276 157.35V7.27399C779.276 3.31799 776.079 0.121979 772.122 0.121979H772.092Z" fill="white"/>
</svg>
