<svg width="931" height="339" viewBox="0 0 931 339" fill="none" xmlns="http://www.w3.org/2000/svg">
<path d="M57.0729 185.7C57.0729 204.5 57.3729 223.4 56.9729 242.2C56.5729 264.3 72.4729 279.3 93.5729 281.8C109.073 283.6 123.573 280.8 134.873 268.8C141.273 262 144.873 254 145.173 244.5C145.573 230 144.373 215.5 145.973 201.1C149.673 166 167.773 140.4 199.073 125.3C236.473 107.3 273.673 109.5 308.073 133.6C333.573 151.5 346.573 177 347.073 208.2C347.673 247 347.173 285.9 347.173 324.7C347.173 333.6 345.773 335 336.673 335.1C324.473 335.2 312.373 335.2 300.173 335.1C291.873 335.1 290.173 333.4 290.173 325.1C290.173 287.1 289.673 249.1 290.373 211.1C290.773 187.4 273.973 172.5 252.273 170.4C238.873 169.1 226.373 171.8 215.773 180.7C207.373 187.9 202.673 197 202.273 208.1C201.973 218.4 202.173 228.8 202.173 239.1C202.173 287.7 172.473 325.3 124.873 335.6C87.2729 343.7 53.5729 335.1 26.1729 307.4C11.2729 292.3 2.37287 273.6 1.17287 252.1C-1.12713 211.2 0.772871 170.2 0.172871 129.2C0.172871 127 0.172871 124.9 0.272871 122.7C0.472871 119.2 2.47287 117.1 5.97287 117.1C21.1729 117 36.2729 117 51.4729 117.1C56.6729 117.1 56.9729 121 56.9729 124.8C56.9729 140.1 56.9729 155.5 56.9729 170.8C57.0729 175.7 57.0729 180.7 57.0729 185.7Z" fill="#00A3E2"/>
<path d="M696.373 224.8C696.573 255.7 686.973 281.4 667.473 302.8C628.373 345.5 567.373 350.1 523.273 314.6C499.373 295.4 485.873 270 482.473 239.8C478.673 206.1 487.773 175.8 510.573 150.2C531.673 126.5 558.373 114.3 589.973 114.3C615.673 114.3 638.373 123.7 658.073 140.4C682.573 161.4 697.673 196 696.373 224.8ZM640.173 226.4C640.273 209.3 633.873 195.1 621.173 183.6C605.973 169.9 581.873 167.4 564.473 178.2C541.773 192.3 532.073 220.6 541.273 245.9C548.673 266.3 567.173 280.5 586.773 281C616.673 281.7 640.073 257.8 640.173 226.4Z" fill="#00A3E2"/>
<path d="M728.973 266.1C728.973 246.8 728.573 227.4 729.073 208.1C729.973 168.8 748.973 140 784.173 124C823.773 106 862.373 110.3 896.773 137.9C915.773 153.1 926.073 173.8 929.273 197.9C930.973 210.8 930.073 223.9 930.173 236.8C930.273 267.3 930.273 297.8 930.173 328.3C930.173 337.2 929.273 338.1 920.573 338.1C907.773 338.1 894.873 338.1 882.073 338.1C875.073 338.1 873.973 337 873.973 329.9C873.973 291.2 873.373 252.6 874.173 213.9C874.773 183.7 848.973 166.3 821.673 170.6C805.573 173.1 793.473 181.1 787.273 196.8C785.473 201.5 785.073 206.5 785.073 211.5C785.073 249.7 785.073 287.8 785.073 326C785.073 328.2 785.073 330.3 784.873 332.5C784.573 336 782.773 338 779.073 338C764.273 338 749.373 338 734.573 338C729.473 338 728.973 334.4 728.973 330.4C728.973 309.1 728.973 287.6 728.973 266.1Z" fill="#00A3E2"/>
<path d="M388.173 226.1C388.173 192.6 388.173 159.2 388.173 125.7C388.173 116.5 389.673 115 398.973 115C412.273 115 425.573 115 438.973 115C446.273 115 448.073 116.9 448.073 124.2C448.073 192.8 448.073 261.4 448.073 330C448.073 336.7 446.573 338.1 439.773 338.2C425.573 338.2 411.473 338.2 397.273 338.2C389.973 338.2 388.273 336.5 388.273 328.9C388.173 294.7 388.173 260.4 388.173 226.1Z" fill="#00A3E2"/>
<path d="M179.173 58.2997C179.173 54.2997 179.173 50.3997 179.173 46.3997C179.173 33.3997 179.173 20.3998 179.273 7.39975C179.273 4.09975 180.373 1.19975 184.273 1.19975C188.373 1.19975 188.273 4.49975 188.273 7.39975C188.273 28.3998 188.373 49.3997 188.173 70.3997C188.173 73.6997 190.173 78.4997 185.173 79.8997C180.673 81.1997 178.973 76.8997 176.973 73.8997C166.473 58.0997 156.073 42.1997 145.573 26.3997C144.473 24.7997 143.873 22.7997 141.873 21.7997C140.773 23.3997 141.273 25.0998 141.273 26.5998C141.173 42.0998 141.273 57.5997 141.273 73.0997C141.273 76.1997 141.273 79.6997 137.273 79.8997C133.073 80.0997 132.273 76.7998 132.273 73.2998C132.273 51.4998 132.273 29.5997 132.273 7.79975C132.273 4.99975 132.773 2.29975 135.873 1.39975C139.173 0.39975 140.773 2.89975 142.273 5.09975C153.073 21.2998 163.873 37.4997 174.673 53.7997C175.773 55.3997 176.873 56.9997 178.073 58.6997C178.373 58.4997 178.773 58.3997 179.173 58.2997Z" fill="#00A3E2"/>
<path d="M1.17275 40.4995C1.17275 29.9995 1.07275 19.4995 1.17275 8.99955C1.17275 3.09955 2.37275 1.99955 8.27275 1.89955C15.0728 1.79955 21.9728 1.59955 28.7728 1.99955C42.7728 2.89955 50.7728 12.9995 48.2728 26.2995C47.4728 30.3995 45.3728 33.6995 41.9728 36.0995C39.8728 37.4995 39.9728 38.5995 42.1728 39.4995C51.4728 43.3995 53.8728 55.2996 51.3728 63.9995C48.5728 73.3995 41.0728 78.9995 30.3728 79.1995C22.6728 79.3995 15.0728 79.1996 7.37275 79.2996C2.97275 79.3996 1.07275 77.4995 1.07275 72.9995C1.27275 62.1995 1.17275 51.2996 1.17275 40.4995ZM10.1728 57.5995C10.1728 60.8995 10.2728 64.2995 10.1728 67.5995C10.0728 70.3995 11.2728 71.3996 14.0728 71.2996C19.0728 71.0996 24.0728 71.2995 29.0728 71.1995C38.2728 70.8995 43.3728 65.6995 43.1728 56.7995C42.9728 48.1995 37.8728 43.3996 28.6728 43.1996C27.3728 43.1996 25.9728 43.1996 24.6728 43.1996C10.1728 43.0996 10.1728 43.0995 10.1728 57.5995ZM10.1728 21.8995C10.1728 24.5995 10.3728 27.1995 10.1728 29.8995C9.87275 33.7995 11.5728 35.2995 15.4728 35.0995C19.2728 34.8995 23.0728 35.1995 26.9728 34.9995C34.8728 34.6995 39.1728 30.1995 39.1728 22.2995C39.1728 14.5995 35.2728 10.5996 27.1728 10.0996C25.4728 9.99955 23.8728 9.99955 22.1728 9.99955C10.1728 9.99955 10.1728 9.99955 10.1728 21.8995Z" fill="#00A3E2"/>
<path d="M272.073 40.1998C271.873 36.4998 272.273 32.8998 272.873 29.2998C275.473 15.5998 282.173 5.39977 296.373 1.89977C310.973 -1.70023 324.473 -0.200226 335.573 11.1998C339.173 14.8998 341.273 19.4998 342.473 24.2998C345.273 35.0998 345.373 46.0998 342.473 56.8998C337.473 75.6998 318.073 85.2998 296.873 79.6998C281.873 75.6998 272.973 63.7998 271.973 46.1998C271.973 44.1998 272.073 42.1998 272.073 40.1998ZM335.073 41.0998C335.273 33.9998 334.273 27.4998 331.273 21.2998C326.273 10.9998 317.473 7.89977 306.873 8.19977C296.773 8.49977 288.873 12.5998 284.773 22.4998C280.573 32.6998 280.273 43.1998 283.073 53.7998C286.473 66.7998 294.873 72.9998 308.673 72.8998C321.973 72.7998 330.373 66.2998 333.673 53.4998C334.773 49.3998 335.373 45.0998 335.073 41.0998Z" fill="#00A3E2"/>
<path d="M58.173 74.5998C58.773 72.8998 59.373 70.4998 60.273 68.1998C68.473 47.5998 76.673 26.9998 84.873 6.39977C85.873 3.89977 86.573 1.19977 89.973 1.09977C93.573 0.99977 94.673 3.79977 95.673 6.39977C104.173 27.7998 112.573 49.0998 121.073 70.4998C121.273 71.0998 121.473 71.7998 121.773 72.3998C122.773 75.1998 123.573 78.1998 120.073 79.6998C116.573 81.0998 114.373 78.9998 113.073 75.8998C111.073 71.0998 109.173 66.2998 107.473 61.4998C106.373 58.3998 104.573 56.9998 101.173 57.0998C93.473 57.1998 85.873 57.1998 78.173 56.9998C75.473 56.8998 74.273 58.0998 73.473 60.2998C71.273 65.9998 68.873 71.6998 66.473 77.3998C65.473 79.6998 63.573 80.5998 61.173 79.9998C58.973 79.2998 58.073 77.5998 58.173 74.5998ZM90.873 18.2998C90.373 18.2998 89.973 18.2998 89.473 18.2998C85.973 27.3998 82.473 36.4998 78.973 45.6998C77.973 48.2998 79.473 48.9998 81.673 48.9998C87.473 48.9998 93.273 48.9998 99.173 48.9998C101.673 48.9998 102.573 48.1998 101.573 45.6998C97.973 36.4998 94.473 27.3998 90.873 18.2998Z" fill="#00A3E2"/>
<path d="M233.673 72.9998C243.273 73.0998 249.373 70.6998 254.373 65.3998C256.473 63.1998 258.873 60.5998 261.873 63.6998C264.573 66.5998 262.573 69.1998 260.273 71.3998C249.873 81.4998 237.273 82.7998 224.073 79.3998C212.073 76.2998 204.773 68.1998 201.873 56.0998C199.473 46.1998 199.373 36.2998 201.573 26.3998C206.173 6.09977 225.373 -4.40023 246.373 1.49977C251.973 3.09977 256.773 5.79977 260.673 10.0998C262.773 12.3998 264.273 14.9998 261.873 17.4998C259.173 20.2998 256.773 18.2998 254.673 16.0998C248.773 9.89977 241.473 7.39977 232.973 8.09977C222.173 8.89977 214.273 15.3998 211.373 25.7998C208.573 35.7998 208.773 45.8998 211.473 55.8998C214.473 67.2998 222.973 72.9998 233.673 72.9998Z" fill="#00A3E2"/>
</svg>
