<svg width="923" height="318" viewBox="0 0 923 318" fill="none" xmlns="http://www.w3.org/2000/svg">
<path d="M44.32 69.98H61.81C60.08 81.58 56.46 90.28 50.98 96.07C45.51 101.85 38.15 104.74 28.92 104.74C19.69 104.74 12.08 102.5 7.26 98.05C2.44 93.59 0 86.89 0 77.98C0 75.68 0.160001 73.06 0.470001 70.12C0.760001 67.17 1.25 63.85 1.91 60.17C3.42 51.34 4.95 43.68 6.47 37.19C8.02 30.71 9.51 25.76 10.94 22.35C14.19 14.5 18.15 8.82 22.85 5.28C27.54 1.77 33.48 0 40.62 0C50.85 0 58.21 2.26 62.72 6.78C67.22 11.31 69.47 18.66 69.47 28.84C69.47 30.07 69.34 32.21 69.09 35.26C69.04 35.91 69 36.44 68.96 36.82H51.02C51.15 34.97 51.25 33.31 51.31 31.82C51.38 30.36 51.42 29.1 51.42 28.06C51.42 22.92 50.61 19.29 49.02 17.21C47.41 15.12 44.71 14.09 40.88 14.09C37.42 14.09 34.66 15.33 32.61 17.8C30.54 20.27 28.65 24.81 26.92 31.38C24.19 41.92 21.99 51.69 20.34 60.75C18.71 69.79 17.87 75.75 17.87 78.6C17.87 82.73 18.8 85.78 20.64 87.76C22.49 89.75 25.27 90.76 29.05 90.76C33.08 90.76 36.32 89.09 38.78 85.72C41.26 82.37 43.11 77.12 44.31 69.97L44.32 69.98Z" fill="white"/>
<path d="M74.9199 81.2898C74.9199 79.1598 75.1399 76.5098 75.5499 73.3098C75.9599 70.1298 76.5499 66.4698 77.3399 62.2898C78.7199 55.2398 80.0599 49.8498 81.3599 46.1298C82.6599 42.3998 84.2499 39.1398 86.1099 36.3098C88.4399 32.8198 91.5099 30.1298 95.2999 28.2998C99.0799 26.4498 103.48 25.5298 108.45 25.5298C116.72 25.5298 122.92 27.4798 127.05 31.3898C131.15 35.2798 133.2 41.1098 133.2 48.8598C133.2 51.3498 133.02 54.1998 132.63 57.4598C132.24 60.6898 131.66 64.2698 130.87 68.1598C129.68 74.1098 128.32 79.1698 126.82 83.3598C125.32 87.5698 123.65 91.1398 121.78 94.0698C119.57 97.6298 116.55 100.34 112.76 102.21C108.95 104.08 104.5 105.01 99.4299 105.01C91.2499 105.01 85.1299 103.06 81.0499 99.1298C76.9799 95.2198 74.9199 89.2598 74.9199 81.2998V81.2898ZM108.06 38.3298C105.38 38.3298 103.24 39.2198 101.65 41.0498C100.03 42.8798 98.5399 46.3298 97.1499 51.3898C95.3399 58.2298 93.9099 64.4998 92.8699 70.1598C91.8199 75.8298 91.2899 80.0498 91.2899 82.7698C91.2899 86.1098 91.9699 88.5198 93.2899 89.9898C94.5899 91.4498 96.7299 92.1998 99.6699 92.1998C102.41 92.1998 104.58 91.2798 106.17 89.4398C107.77 87.5898 109.25 84.1398 110.58 79.0598C112.41 72.3998 113.83 66.2398 114.87 60.6198C115.92 54.9798 116.44 50.7498 116.44 47.8998C116.44 44.5798 115.76 42.1698 114.43 40.6298C113.08 39.1098 110.95 38.3298 108.05 38.3298H108.06Z" fill="white"/>
<path d="M154.14 102.45H136.72L152.58 27.9402H168.62L167.19 34.3002C170.12 31.4402 173.11 29.2902 176.13 27.8402C179.12 26.3902 182.16 25.6602 185.25 25.6602C189.19 25.6602 192.29 26.4202 194.58 27.9402C196.86 29.4602 198.46 31.8002 199.42 35.0202C202.67 31.8002 205.82 29.4602 208.88 27.9402C211.92 26.4302 215.06 25.6602 218.24 25.6602C222.98 25.6602 226.59 26.8802 229.07 29.3002C231.58 31.7402 232.82 35.2102 232.82 39.7702C232.82 40.8402 232.72 42.1402 232.53 43.6302C232.33 45.1302 232.02 46.8602 231.6 48.8502L220.15 102.46H202.74L213.77 50.4302C214.17 48.6802 214.41 47.4202 214.52 46.6602C214.63 45.8802 214.68 45.1902 214.68 44.5802C214.68 42.5802 214.16 41.0402 213.12 39.9502C212.08 38.8802 210.57 38.3302 208.58 38.3302C205.75 38.3302 203.5 39.3802 201.78 41.5302C200.08 43.6302 198.7 47.0902 197.66 51.9102L186.87 102.45H169.84L180.89 50.4202C181.27 48.6702 181.53 47.4102 181.63 46.6502C181.74 45.8702 181.79 45.1802 181.79 44.5702C181.79 42.5702 181.28 41.0302 180.23 39.9402C179.21 38.8702 177.68 38.3202 175.69 38.3202C172.87 38.3202 170.61 39.3702 168.91 41.5202C167.19 43.6202 165.82 47.0802 164.77 51.9002L154.12 102.44L154.14 102.45Z" fill="white"/>
<path d="M236.65 102.45L249.98 39.3802H242.98L245.31 27.9402H252.52L255.06 15.7202C256.18 10.5602 258.07 6.96023 260.74 4.85023C263.41 2.77024 267.48 1.74023 272.99 1.74023C273.82 1.74023 274.97 1.82023 276.47 1.97023C277.97 2.13023 280 2.40024 282.62 2.77024L279.88 15.2502C279.58 15.1802 279.23 15.1002 278.84 15.0702C278.45 15.0202 277.86 14.9802 277.02 14.9802C275.12 14.9802 273.72 15.3902 272.83 16.1502C271.94 16.9502 271.29 18.3802 270.92 20.4602L269.28 27.9302H277.13L274.73 39.3702H267.6L254.14 102.44H236.67L236.65 102.45Z" fill="white"/>
<path d="M311.44 77.6998H327.68C326.96 86.7998 324.31 93.6298 319.8 98.1898C315.27 102.71 308.84 104.99 300.53 104.99C292.22 104.99 286.25 103.17 282.28 99.5298C278.29 95.8998 276.29 90.3698 276.29 82.8998C276.29 81.2898 276.38 79.4498 276.56 77.3798C276.73 75.2898 276.98 73.1298 277.28 70.8698C278.11 64.7698 279.05 59.2898 280.13 54.4398C281.22 49.5798 282.36 45.7698 283.53 42.9998C286.17 36.7498 289.59 32.2898 293.75 29.5698C297.94 26.8798 303.53 25.5098 310.55 25.5098C318.48 25.5098 324.28 27.1898 327.93 30.5298C331.6 33.8698 333.41 39.1298 333.41 46.3198C333.41 48.9998 333.18 52.1198 332.68 55.6398C332.17 59.1598 331.46 62.9498 330.5 67.0298H295.08C294.35 70.6498 293.79 73.8098 293.41 76.5498C293 79.3098 292.8 81.4698 292.8 83.0198C292.8 86.0898 293.49 88.3798 294.86 89.8998C296.21 91.4098 298.28 92.1798 301.06 92.1798C304.05 92.1798 306.38 90.9898 308.07 88.6698C309.77 86.3298 310.89 82.6598 311.46 77.6798L311.44 77.6998ZM315.66 55.3598C316.1 53.3098 316.41 51.4798 316.6 49.8298C316.81 48.1798 316.9 46.7998 316.9 45.6498C316.9 43.0998 316.28 41.2098 315.03 39.9398C313.77 38.6798 311.9 38.0598 309.43 38.0598C306.08 38.0598 303.52 39.3398 301.68 41.9098C299.83 44.4598 298.35 48.9298 297.23 55.3598H315.67H315.66Z" fill="white"/>
<path d="M354.14 102.45H336.71L352.57 27.9402H368.61L367.18 34.3002C370.16 31.4202 373.14 29.2402 376.12 27.8002C379.08 26.3802 382.12 25.6602 385.24 25.6602C389.95 25.6602 393.58 26.9002 396.12 29.3402C398.67 31.7802 399.93 35.2602 399.93 39.7702C399.93 40.7102 399.81 41.8502 399.63 43.1702C399.42 44.4902 399.07 46.4102 398.56 48.8502L387.25 102.46H369.85L380.9 50.4302C381.27 48.6802 381.52 47.4202 381.65 46.6602C381.74 45.8802 381.8 45.1902 381.8 44.5802C381.8 42.5802 381.27 41.0402 380.24 39.9502C379.2 38.8802 377.68 38.3302 375.69 38.3302C372.87 38.3302 370.59 39.3802 368.88 41.5302C367.19 43.6302 365.8 47.0902 364.77 51.9102L354.13 102.45H354.14Z" fill="white"/>
<path d="M438.15 96.6199C436.02 99.3999 433.7 101.43 431.22 102.76C428.73 104.08 425.88 104.74 422.68 104.74C416.65 104.74 412 103 408.71 99.5199C405.41 96.0299 403.77 91.0699 403.77 84.6699C403.77 77.7299 405.58 72.2099 409.17 68.1299C412.76 64.0399 418.44 61.0499 426.18 59.1999C426.72 59.0699 427.47 58.8799 428.46 58.6699C440.76 55.7399 446.91 51.1999 446.91 45.0799C446.91 42.8499 446.25 41.0699 444.9 39.8199C443.56 38.5699 441.66 37.9499 439.18 37.9499C436.07 37.9499 433.65 38.8399 431.94 40.5999C430.23 42.3899 428.99 45.2699 428.27 49.2499H411.5C412.62 41.2299 415.51 35.2599 420.13 31.3199C424.79 27.3599 431.25 25.3999 439.58 25.3999C447.32 25.3999 453.35 26.9899 457.62 30.1799C461.93 33.3499 464.07 37.7999 464.07 43.5399C464.07 44.3599 463.99 45.3999 463.84 46.6899C463.69 47.9799 463.45 49.3699 463.16 50.9299L454.5 92.3199C454.29 93.3999 454.1 94.8499 453.9 96.6199C453.71 98.3899 453.54 100.33 453.41 102.45H437.37L438.16 96.6199H438.15ZM442.75 66.3999C441.46 66.9699 439.61 67.7899 437.24 68.8099C426.49 73.3399 421.11 78.3499 421.11 83.8199C421.11 86.6199 421.75 88.7699 423.04 90.2399C424.3 91.6999 426.14 92.4399 428.51 92.4399C432.25 92.4399 435.09 90.8199 437.07 87.5299C439.04 84.2699 440.94 77.2299 442.75 66.3899V66.3999Z" fill="white"/>
<path d="M467.5 102.45L488.69 2.66016H506.22L484.91 102.45H467.5Z" fill="white"/>
<path d="M556.14 74.26C554.93 84.78 552.04 92.53 547.5 97.46C542.94 102.39 536.42 104.86 527.94 104.86C519.96 104.86 514.08 103.05 510.3 99.37C506.51 95.71 504.62 90.05 504.62 82.39C504.62 80.01 504.82 77.15 505.23 73.82C505.64 70.47 506.23 66.62 507.02 62.29C508.28 55.81 509.57 50.57 510.91 46.65C512.26 42.71 513.89 39.29 515.79 36.44C518.19 32.88 521.25 30.18 524.99 28.32C528.73 26.46 533.05 25.52 537.89 25.52C545.43 25.52 551.15 27.37 555.08 31.02C558.99 34.69 560.95 40.04 560.95 47.09C560.95 48.1 560.91 49.2 560.79 50.42C560.67 51.62 560.5 52.99 560.24 54.57H543.6C543.91 52.91 544.11 51.49 544.24 50.28C544.39 49.06 544.44 47.99 544.44 47.08C544.44 44.32 543.8 42.19 542.53 40.69C541.25 39.2 539.44 38.46 537.1 38.46C534.63 38.46 532.62 39.4 531.06 41.31C529.5 43.22 528.09 46.58 526.85 51.38C525.06 58.19 523.72 64.18 522.78 69.37C521.86 74.57 521.39 78.87 521.39 82.23C521.39 85.59 521.95 88.15 523.05 89.65C524.15 91.17 525.91 91.92 528.33 91.92C531.38 91.92 533.77 90.46 535.56 87.56C537.33 84.67 538.55 80.24 539.25 74.24H556.15L556.14 74.26Z" fill="white"/>
<path d="M567.05 81.2898C567.05 79.1598 567.27 76.5098 567.67 73.3098C568.08 70.1298 568.69 66.4698 569.46 62.2898C570.85 55.2398 572.18 49.8498 573.5 46.1298C574.78 42.3998 576.38 39.1398 578.23 36.3098C580.56 32.8198 583.63 30.1298 587.43 28.2998C591.22 26.4498 595.6 25.5298 600.59 25.5298C608.86 25.5298 615.05 27.4798 619.16 31.3898C623.28 35.2798 625.34 41.1098 625.34 48.8598C625.34 51.3498 625.16 54.1998 624.76 57.4598C624.37 60.6898 623.78 64.2698 623.01 68.1598C621.79 74.1098 620.44 79.1698 618.93 83.3598C617.43 87.5698 615.77 91.1398 613.91 94.0698C611.71 97.6298 608.68 100.34 604.86 102.21C601.05 104.08 596.62 105.01 591.55 105.01C583.37 105.01 577.23 103.06 573.15 99.1298C569.09 95.2198 567.04 89.2598 567.04 81.2998L567.05 81.2898ZM600.19 38.3298C597.52 38.3298 595.36 39.2198 593.77 41.0498C592.15 42.8798 590.67 46.3298 589.29 51.3898C587.47 58.2298 586.02 64.4998 584.99 70.1598C583.95 75.8298 583.42 80.0498 583.42 82.7698C583.42 86.1098 584.09 88.5198 585.43 89.9898C586.74 91.4498 588.87 92.1998 591.81 92.1998C594.54 92.1998 596.7 91.2798 598.3 89.4398C599.92 87.5898 601.36 84.1398 602.73 79.0598C604.54 72.3998 605.97 66.2398 607.02 60.6198C608.06 54.9798 608.57 50.7498 608.57 47.8998C608.57 44.5798 607.9 42.1698 606.56 40.6298C605.21 39.1098 603.09 38.3298 600.19 38.3298Z" fill="white"/>
<path d="M699.6 102.45H676.22L674.77 2.41016H693.22L691.67 64.5202C691.67 65.7302 691.4 71.8802 690.88 82.9802C690.74 85.8702 690.65 88.1602 690.55 89.8002C691.34 86.6202 692.3 83.2102 693.47 79.5202C694.65 75.8302 696.08 71.8202 697.79 67.4402L722.65 2.41016H742.75L699.6 102.45Z" fill="white"/>
<path d="M765.68 96.6199C763.57 99.3999 761.25 101.43 758.77 102.76C756.26 104.08 753.43 104.74 750.22 104.74C744.2 104.74 739.54 103 736.28 99.5199C732.97 96.0299 731.33 91.0699 731.33 84.6699C731.33 77.7299 733.12 72.2099 736.71 68.1299C740.32 64.0399 745.98 61.0499 753.74 59.1999C754.26 59.0699 755.02 58.8799 756.01 58.6699C768.29 55.7399 774.47 51.1999 774.47 45.0799C774.47 42.8499 773.79 41.0699 772.47 39.8199C771.1 38.5699 769.21 37.9499 766.73 37.9499C763.61 37.9499 761.19 38.8399 759.51 40.5999C757.79 42.3899 756.56 45.2699 755.82 49.2499H739.05C740.19 41.2299 743.06 35.2599 747.7 31.3199C752.33 27.3599 758.81 25.3999 767.13 25.3999C774.88 25.3999 780.9 26.9899 785.19 30.1799C789.48 33.3499 791.62 37.7999 791.62 43.5399C791.62 44.3599 791.54 45.3999 791.39 46.6899C791.22 47.9799 791.01 49.3699 790.71 50.9299L782.08 92.3199C781.85 93.3999 781.64 94.8499 781.46 96.6199C781.26 98.3899 781.1 100.33 780.96 102.45H764.91L765.69 96.6199H765.68ZM770.3 66.3999C769.01 66.9699 767.16 67.7899 764.78 68.8099C754.03 73.3399 748.66 78.3499 748.66 83.8199C748.66 86.6199 749.31 88.7699 750.58 90.2399C751.84 91.6999 753.67 92.4399 756.07 92.4399C759.79 92.4399 762.63 90.8199 764.61 87.5299C766.59 84.2699 768.47 77.2299 770.3 66.3899V66.3999Z" fill="white"/>
<path d="M795.05 102.45L816.24 2.66016H833.78L812.48 102.45H795.06H795.05Z" fill="white"/>
<path d="M828.45 102.45L849.62 2.66016H867.18L845.86 102.45H828.45Z" fill="white"/>
<path d="M900.7 77.6998H916.96C916.21 86.7998 913.59 93.6298 909.06 98.1898C904.53 102.71 898.11 104.99 889.8 104.99C881.49 104.99 875.51 103.17 871.53 99.5298C867.54 95.8998 865.56 90.3698 865.56 82.8998C865.56 81.2898 865.65 79.4498 865.82 77.3798C866 75.2898 866.22 73.1298 866.53 70.8698C867.36 64.7698 868.3 59.2898 869.4 54.4398C870.46 49.5798 871.6 45.7698 872.77 42.9998C875.4 36.7498 878.82 32.2898 883.01 29.5698C887.19 26.8798 892.78 25.5098 899.81 25.5098C907.73 25.5098 913.51 27.1898 917.19 30.5298C920.86 33.8698 922.69 39.1298 922.69 46.3198C922.69 48.9998 922.43 52.1198 921.92 55.6398C921.43 59.1598 920.71 62.9498 919.75 67.0298H884.34C883.61 70.6498 883.06 73.8098 882.67 76.5498C882.26 79.3098 882.06 81.4698 882.06 83.0198C882.06 86.0898 882.75 88.3798 884.14 89.8998C885.48 91.4098 887.56 92.1798 890.32 92.1798C893.32 92.1798 895.64 90.9898 897.35 88.6698C899.04 86.3298 900.16 82.6598 900.72 77.6798L900.7 77.6998ZM904.93 55.3598C905.36 53.3098 905.67 51.4798 905.88 49.8298C906.06 48.1798 906.15 46.7998 906.15 45.6498C906.15 43.0998 905.52 41.2098 904.27 39.9398C903.02 38.6798 901.15 38.0598 898.68 38.0598C895.33 38.0598 892.75 39.3398 890.91 41.9098C889.07 44.4598 887.6 48.9298 886.45 55.3598H904.92H904.93Z" fill="white"/>
<path d="M921.15 136.02H1.25V131.64H921.15V136.02Z" fill="white"/>
<path d="M433.06 256.39C430.41 256.31 428.57 256.25 427.55 256.25H421.66L422.47 241.66C421.03 244.19 419.78 246.14 418.75 247.51C417.71 248.89 416.5 250.19 415.06 251.4C413.67 252.6 412.03 253.7 410.15 254.66C408.28 255.65 406.18 256.37 403.91 256.94C401.59 257.45 399.18 257.73 396.59 257.73C392.25 257.73 388.18 256.95 384.34 255.36C380.55 253.8 377.3 251.57 374.65 248.64C371.99 245.71 370.07 242.3 368.91 238.4C367.73 234.52 367.14 230.48 367.14 226.2C367.14 220.52 368.26 214.96 370.48 209.46C372.66 203.97 375.78 199.44 379.81 195.85C383.85 192.27 388.41 189.78 393.52 188.4C398.56 186.99 403.99 186.29 409.7 186.29C413.66 186.29 418.37 186.74 423.81 187.66C424.05 182.73 424.16 178.66 424.16 175.41C424.16 170.73 424.12 166.96 424.09 164.08L430.22 164.14C431.77 164.14 433.82 164.12 436.37 164.08L434.42 202.22L433.06 245.89V256.37V256.39ZM423.34 196.16C420.64 195.37 418.34 194.85 416.41 194.62C414.51 194.39 412.68 194.28 410.84 194.28C406.52 194.28 402.4 194.91 398.46 196.16C394.53 197.39 391.06 199.44 388.08 202.25C385.09 205.09 382.76 208.69 381.13 213.05C379.52 217.42 378.72 221.67 378.72 225.88C378.72 230.09 379.48 233.98 381.03 237.58C382.54 241.22 384.94 244.06 388.14 246.12C391.36 248.17 395.12 249.18 399.39 249.18C401.97 249.18 404.29 248.84 406.41 248.13C408.53 247.44 410.44 246.42 412.2 245.05C413.94 243.7 415.56 241.89 417.07 239.58C418.59 237.3 419.83 234.63 420.73 231.65C421.48 228.96 422.07 225.4 422.4 220.88C422.59 218.67 422.81 214.42 423.03 208.13L423.35 196.16H423.34Z" fill="white"/>
<path d="M495.61 245.5C495.09 248.01 494.54 251.16 494.01 254.99C489.69 256.07 485.92 256.81 482.75 257.19C479.59 257.58 476.41 257.75 473.28 257.75C467.64 257.75 462.58 257.08 458.11 255.72C453.63 254.39 449.78 252.04 446.61 248.66C443.42 245.34 441.11 241.5 439.72 237.17C438.31 232.83 437.62 228.27 437.62 223.46C437.62 216.75 438.91 210.53 441.47 204.78C444.04 199.05 447.9 194.52 453.05 191.27C458.21 187.95 464.75 186.32 472.65 186.32C476.76 186.32 480.67 186.92 484.42 188.12C488.17 189.29 491.27 191.11 493.72 193.55C496.22 195.99 498.14 198.96 499.47 202.56C500.83 206.13 501.5 210.03 501.5 214.28C501.5 215.89 501.36 217.5 501.08 219H449.59C449.4 221.48 449.32 223.37 449.32 224.7C449.32 229.42 450.31 233.78 452.29 237.73C454.27 241.73 457.19 244.73 461.08 246.79C464.91 248.85 469.4 249.84 474.43 249.84C480.22 249.84 487.31 248.41 495.62 245.5H495.61ZM450.11 213.39H490.35C490.31 210.58 490.14 208.36 489.83 206.79C489.51 205.19 488.93 203.55 488.07 201.88C487.23 200.22 486.05 198.73 484.6 197.5C483.13 196.27 481.37 195.3 479.33 194.66C477.27 194 475.05 193.67 472.65 193.67C470.12 193.67 467.65 194.03 465.35 194.75C463.02 195.47 460.96 196.46 459.18 197.72C457.42 198.98 455.88 200.48 454.67 202.13C453.42 203.82 452.51 205.47 451.9 207.04C451.28 208.63 450.68 210.74 450.11 213.38V213.39Z" fill="white"/>
<path d="M501.52 256.26C502.42 242.42 503.3 225.99 504.16 206.98C504.72 193.17 505.16 178.88 505.42 164.1L511.71 164.16C513.01 164.16 515.02 164.14 517.74 164.1L515.64 203.75L514.14 243.86L513.88 256.26C511.24 256.19 509.24 256.14 507.95 256.14C507.41 256.14 505.25 256.19 501.53 256.26H501.52Z" fill="white"/>
<path d="M525.19 198.741C525.61 196.761 526.02 193.821 526.47 189.931C531.87 188.571 536.57 187.591 540.56 187.081C544.52 186.561 548.41 186.311 552.2 186.311C556.26 186.311 560.04 186.691 563.6 187.411C567.1 188.181 570.06 189.391 572.4 191.031C574.76 192.691 576.3 194.591 577.06 196.791C577.82 198.941 578.22 201.261 578.22 203.751C578.22 206.861 577.99 212.071 577.5 219.381C577.05 226.681 576.68 233.461 576.45 239.651C576.18 245.871 576.06 251.411 576.06 256.261C573.62 256.191 571.65 256.141 570.11 256.141C568.65 256.141 566.63 256.191 563.98 256.261L565.4 237.841L566.39 216.031C564.82 217.261 563.66 218.111 562.85 218.591C562.07 219.101 561.17 219.581 560.17 219.991C559.19 220.431 558.09 220.811 556.92 221.191C555.72 221.581 553.4 222.241 549.95 223.161C546.49 224.111 544.05 224.851 542.62 225.351C539.5 226.341 537.04 227.321 535.23 228.291C533.45 229.311 531.92 230.371 530.72 231.551C529.49 232.701 528.65 233.901 528.14 235.071C527.56 236.501 527.28 238.011 527.28 239.581C527.28 242.001 527.99 244.131 529.45 245.911C530.88 247.721 532.69 248.951 534.89 249.681C537.07 250.381 539.68 250.741 542.74 250.741C544.64 250.741 546.61 250.581 548.68 250.301C550.77 250.031 553.56 249.361 557.01 248.231C556.41 249.981 555.67 252.681 554.85 256.301C551.55 256.961 548.88 257.351 546.8 257.521C544.73 257.681 542.77 257.741 540.91 257.741C534.76 257.741 529.93 257.021 526.46 255.581C523.01 254.141 520.43 251.961 518.7 249.021C516.99 246.071 516.15 242.861 516.15 239.371C516.15 237.361 516.44 235.481 517.05 233.791C517.65 232.081 518.48 230.521 519.52 229.121C520.53 227.731 522.03 226.341 523.92 224.971C525.87 223.551 527.84 222.391 529.92 221.511C532.05 220.591 534.48 219.721 537.28 218.821C540.06 217.951 544.54 216.781 550.74 215.321C552.71 214.821 554.39 214.371 555.79 213.921C557.19 213.431 558.43 212.981 559.5 212.521C560.59 212.081 561.52 211.541 562.36 210.931C563.15 210.301 563.9 209.551 564.58 208.701C565.27 207.831 565.75 206.921 566.07 206.021C566.37 205.131 566.54 204.231 566.54 203.351C566.54 201.141 565.83 199.251 564.39 197.651C562.95 196.081 561.06 194.971 558.75 194.381C556.42 193.751 553.7 193.421 550.54 193.421C547.61 193.421 544.6 193.651 541.53 194.141C538.43 194.601 535.78 195.181 533.55 195.841C531.32 196.471 528.55 197.431 525.22 198.751L525.19 198.741Z" fill="white"/>
<path d="M586.71 270.6C596.82 273.94 605.62 275.59 613.03 275.59C615.87 275.59 618.56 275.25 621.08 274.55C623.58 273.83 625.71 272.82 627.42 271.52C629.13 270.17 630.47 268.39 631.42 266.1C632.33 263.85 632.97 261.19 633.29 258.22C633.6 255.22 633.84 250.69 634.03 244.6C632.29 247 630.71 248.85 629.29 250.16C627.9 251.51 626.24 252.69 624.27 253.73C622.33 254.8 620.04 255.66 617.42 256.31C614.79 256.97 612.05 257.29 609.19 257.29C605.21 257.29 601.44 256.66 597.9 255.43C594.35 254.19 591.2 252.26 588.44 249.58C585.64 246.92 583.55 243.59 582.11 239.56C580.66 235.54 579.94 231.33 579.94 226.93C579.94 220.69 581.14 214.76 583.49 209.21C585.83 203.6 589.34 199.01 593.89 195.4C598.45 191.81 603.36 189.32 608.56 187.99C613.74 186.62 619.53 185.97 625.87 185.97C629.35 185.97 633.34 186.16 637.8 186.59C642.27 187.04 648.17 187.88 655.5 189.21L653.96 210.63L652.53 237.44L651.96 261.65C651.84 264.42 651.5 267.05 650.95 269.63C650.43 272.16 649.55 274.47 648.39 276.51C647.22 278.54 645.73 280.37 643.95 281.92C642.14 283.51 640.1 284.77 637.83 285.76C635.56 286.71 632.76 287.54 629.4 288.17C626.04 288.77 622.43 289.1 618.61 289.1C614.52 289.1 609.85 288.83 604.63 288.31C599.42 287.74 593.74 286.71 587.55 285.24L586.67 270.6H586.71ZM635.99 201.11C632.07 200.31 628.46 199.88 625.15 199.88C619.29 199.88 614.44 200.96 610.61 203.09C606.79 205.22 603.85 208.35 601.78 212.43C599.72 216.55 598.68 220.88 598.68 225.48C598.68 228.86 599.3 232 600.56 234.9C601.83 237.82 603.8 240 606.46 241.49C609.16 242.97 612.12 243.7 615.34 243.7C617.65 243.7 619.8 243.33 621.82 242.62C623.78 241.92 625.6 240.81 627.22 239.33C628.86 237.84 630.29 235.98 631.53 233.79C632.78 231.59 633.63 229.1 634.17 226.34C634.68 223.58 635.07 220.09 635.36 215.93C635.6 211.77 635.83 206.83 636 201.11H635.99Z" fill="white"/>
<path d="M718.73 240.96C718.14 243.59 717.32 248.36 716.23 255.25C711.37 256.28 707.27 256.99 703.96 257.35C700.61 257.69 697.29 257.89 693.89 257.89C687.97 257.89 682.68 257.32 678.06 256.14C673.4 254.96 669.32 252.82 665.78 249.69C662.27 246.56 659.69 242.75 658.02 238.19C656.35 233.64 655.54 228.86 655.54 223.86C655.54 218.31 656.5 212.93 658.43 207.77C660.37 202.56 663.09 198.29 666.58 194.98C670.06 191.67 674.05 189.34 678.49 187.96C682.94 186.6 687.6 185.92 692.47 185.92C697.07 185.92 701.42 186.51 705.56 187.65C709.74 188.77 713.2 190.65 716.02 193.28C718.82 195.9 720.97 199.04 722.49 202.71C723.98 206.38 724.75 210.47 724.75 214.97C724.75 217.09 724.53 219.27 724.07 221.52L674.57 221.57C674.48 223.24 674.41 224.58 674.41 225.57C674.41 228.58 674.95 231.35 675.99 233.86C677.01 236.37 678.54 238.5 680.5 240.28C682.51 242.04 684.84 243.32 687.58 244.15C690.34 245.01 693.05 245.4 695.7 245.4C698.83 245.4 702.17 245.06 705.8 244.41C709.42 243.71 713.72 242.6 718.73 240.98V240.96ZM675.09 213.66L706.75 213.71C706.75 211.57 706.66 209.97 706.51 208.92C706.38 207.89 706.09 206.73 705.63 205.37C705.16 204.04 704.5 202.89 703.7 201.88C702.88 200.87 701.94 200.01 700.85 199.34C699.77 198.68 698.52 198.14 697.09 197.78C695.7 197.42 694.18 197.24 692.53 197.24C690.65 197.24 688.82 197.54 687.02 198.11C685.27 198.68 683.62 199.55 682.15 200.67C680.64 201.79 679.45 203.06 678.51 204.47C677.61 205.88 676.92 207.19 676.47 208.49C676 209.77 675.58 211.49 675.1 213.66H675.09Z" fill="white"/>
<path d="M722.84 256.26C723.89 246.08 724.75 234.56 725.42 221.84C726.11 209.11 726.52 197.7 726.61 187.6C730.77 187.69 734.09 187.72 736.56 187.72C739.48 187.72 742.59 187.69 745.89 187.6L745.12 199.08C746.52 197.1 747.76 195.53 748.81 194.34C749.87 193.19 751.22 192.04 752.86 190.91C754.51 189.78 756.26 188.89 758.11 188.23C760 187.51 762.08 187 764.41 186.57C766.74 186.18 769.16 185.99 771.67 185.99C775.7 185.99 779.55 186.51 783.2 187.51C786.88 188.51 789.84 190.13 792.08 192.33C794.34 194.53 795.83 196.95 796.55 199.55C797.28 202.14 797.63 204.93 797.63 207.87C797.63 209.07 797.57 211.02 797.4 213.67L796.01 243.2C795.84 247.26 795.72 251.64 795.67 256.27C792.14 256.2 789.09 256.15 786.57 256.15C783.13 256.15 779.69 256.2 776.23 256.27C776.6 252.37 777.04 245.54 777.57 235.8C778.13 226.03 778.37 219.59 778.37 216.44C778.37 212.89 777.81 210.03 776.68 207.87C775.55 205.7 773.81 204.05 771.45 202.91C769.08 201.79 766.55 201.25 763.77 201.25C760.99 201.25 758.57 201.75 756.22 202.81C753.87 203.83 751.84 205.36 750.13 207.32C748.33 209.34 746.94 211.86 745.96 214.82C744.93 217.98 744.16 223.16 743.67 230.44C743.22 236.85 742.85 245.48 742.57 256.28C739.12 256.21 735.98 256.16 733.19 256.16C730.4 256.16 726.92 256.21 722.86 256.28L722.84 256.26Z" fill="white"/>
<path d="M842.4 242.15C841.89 244.63 841.02 249.24 839.84 255.92C836.07 256.77 833.09 257.34 830.92 257.55C828.76 257.77 826.74 257.89 824.85 257.89C821.53 257.89 818.56 257.57 815.9 256.95C813.27 256.3 811.1 255.18 809.38 253.58C807.67 251.99 806.51 250.14 805.92 247.99C805.31 245.84 804.99 243.64 804.99 241.33C804.99 240.74 805.02 239.95 805.08 238.97C805.11 237.99 805.31 234.78 805.59 229.39L807.17 201.29H797.45C797.66 198.58 797.88 194.27 798.05 188.27H808.25C808.51 185.67 808.78 181.21 809.07 174.96L817.03 173.4C818.7 173.1 821.91 172.36 826.67 171.19C826.34 177.27 826.14 182.98 826.11 188.27H843.27C842.96 194.32 842.82 198.68 842.82 201.29H825.6C824.66 219.62 824.16 230.21 824.16 233.09C824.16 235.97 824.46 238.07 825.1 239.57C825.69 241.13 826.68 242.22 828.02 242.91C829.38 243.55 830.81 243.91 832.36 243.91C833.46 243.91 834.64 243.82 835.88 243.64C837.12 243.43 839.29 242.96 842.39 242.13L842.4 242.15Z" fill="white"/>
<path d="M901.35 240.96C900.76 243.59 899.94 248.36 898.87 255.25C894 256.28 889.88 256.99 886.57 257.35C883.23 257.69 879.89 257.89 876.51 257.89C870.59 257.89 865.32 257.32 860.67 256.14C856 254.96 851.94 252.82 848.39 249.69C844.92 246.56 842.32 242.75 840.64 238.19C838.98 233.64 838.15 228.86 838.15 223.86C838.15 218.31 839.11 212.93 841.05 207.77C842.98 202.56 845.71 198.29 849.18 194.98C852.67 191.67 856.65 189.34 861.11 187.96C865.56 186.6 870.22 185.92 875.1 185.92C879.68 185.92 884.05 186.51 888.21 187.65C892.34 188.77 895.82 190.65 898.63 193.28C901.45 195.9 903.59 199.04 905.12 202.71C906.61 206.38 907.38 210.47 907.38 214.97C907.38 217.09 907.13 219.27 906.71 221.52L857.18 221.57C857.09 223.24 857.03 224.58 857.03 225.57C857.03 228.58 857.56 231.35 858.61 233.86C859.62 236.37 861.14 238.5 863.12 240.28C865.1 242.04 867.44 243.32 870.2 244.15C872.97 245.01 875.67 245.4 878.33 245.4C881.43 245.4 884.78 245.06 888.42 244.41C892.04 243.71 896.34 242.6 901.35 240.98V240.96ZM857.73 213.66L889.36 213.71C889.36 211.57 889.28 209.97 889.15 208.92C889.01 207.89 888.71 206.73 888.24 205.37C887.76 204.04 887.12 202.89 886.31 201.88C885.5 200.87 884.56 200.01 883.47 199.34C882.4 198.68 881.12 198.14 879.71 197.78C878.3 197.42 876.79 197.24 875.15 197.24C873.25 197.24 871.44 197.54 869.64 198.11C867.87 198.68 866.22 199.55 864.74 200.67C863.25 201.79 862.04 203.06 861.14 204.47C860.21 205.88 859.52 207.19 859.07 208.49C858.62 209.77 858.18 211.49 857.73 213.66Z" fill="white"/>
<path fill-rule="evenodd" clip-rule="evenodd" d="M298.16 197.019C296.91 189.729 293.63 185.919 290.79 182.439C293.64 180.289 310.54 166.699 319.63 157.979C330.54 148.219 340.17 164.799 327.22 174.809C315.39 185.519 297.9 197.019 298.16 197.019Z" fill="#ED800B"/>
<path fill-rule="evenodd" clip-rule="evenodd" d="M294.06 206.13C294.06 206.13 316.14 193.58 324.61 184.96C333.1 176.32 338.55 173.29 343.24 177.24C347.95 181.17 343.68 188.14 337.49 192.82C331.28 197.51 294.65 227.35 289.22 225.54L285.43 220.98C285.43 220.98 291.05 222.5 294.5 217.83C297.98 213.11 293.91 206.14 294.07 206.14L294.06 206.13Z" fill="#ED800B"/>
<path fill-rule="evenodd" clip-rule="evenodd" d="M293.89 230.62C293.73 231.76 300.81 240.52 302.79 240.52C304.77 240.52 334.4 221.1 342.47 209.46C350.54 197.82 342.47 191.88 334.48 199.53C326.51 207.18 303.68 223.93 293.9 230.62H293.89Z" fill="#ED800B"/>
<path fill-rule="evenodd" clip-rule="evenodd" d="M306.53 243.69C309.6 247.3 315.42 253.09 316.83 253.38C318.23 253.68 340.46 238.08 345.34 228.27C348.56 223.09 349.85 217.57 344.75 214.85C341.03 213.53 336.99 221.83 329.43 227.37C322.05 233.04 314.43 239.96 306.53 243.69Z" fill="#ED800B"/>
<path fill-rule="evenodd" clip-rule="evenodd" d="M270.63 210.4C270.63 210.4 291.4 236.14 307.02 250.16C314.05 257.23 338.36 271.88 341.09 279.1C344.11 283.59 344.8 300.45 323.89 289.84C301.25 272.71 269.83 227.62 269.83 227.62C265.67 221.43 263.65 218.87 262.63 214.86C261.26 209.47 265.88 206.11 270.64 210.41L270.63 210.4Z" fill="#CBD211"/>
<path fill-rule="evenodd" clip-rule="evenodd" d="M264.98 227.78C264.98 227.78 289.29 257.82 294.15 263.52C299.01 269.21 318.6 289.22 319.74 290.09C332.26 299.65 323.88 317.5 308.58 304.32C302.81 299.34 274.31 262.41 269.58 255.98C264.88 249.51 255.76 233.53 255.76 233.53C250.08 221.51 259.56 220.06 264.97 227.79L264.98 227.78Z" fill="#CBD211"/>
<path fill-rule="evenodd" clip-rule="evenodd" d="M255.21 241.62C255.21 241.62 284.18 285.59 299.01 298.28C317.06 312.95 301.67 315.17 294.73 309.54C271.65 291.02 260.9 273.34 251 256.01C243.5 243.42 245.31 228.13 255.21 241.62Z" fill="#CBD211"/>
<path fill-rule="evenodd" clip-rule="evenodd" d="M248.9 260.88C259.38 282.07 275.24 297.78 291.15 311.33C294.64 316.31 286.54 320.8 278.7 314.23C266.34 305.19 245.51 283.18 240.94 259.59C241.17 255.23 245.49 254.96 248.91 260.88H248.9Z" fill="#CBD211"/>
<path fill-rule="evenodd" clip-rule="evenodd" d="M187.32 273.55C185.06 272.96 177.89 271.83 180.08 278.55C182.98 286.44 204.3 288.54 208.96 288.99C213.64 289.45 237.87 290.2 245.19 284.98C243.92 283.44 243 282.19 242.19 280.44C223.29 280.74 212.78 279.89 187.33 273.56L187.32 273.55Z" fill="#FDC90C"/>
<path fill-rule="evenodd" clip-rule="evenodd" d="M183.41 252.79C201.75 253.94 219.9 257.08 237.63 262.99C237.95 266.45 238.31 269.1 239.65 273C239.65 273 189.54 273.72 178.75 268.67C169.09 263.63 174.08 252.39 183.42 252.79H183.41Z" fill="#FDC90C"/>
<path fill-rule="evenodd" clip-rule="evenodd" d="M183.97 230.87C200.38 234.25 216.77 237.91 233.2 243.32C238.05 244.77 242.08 246.75 242.39 250.03C242.59 252.26 240.06 255.19 234.74 254.98C215.41 252.92 194.41 251.31 174.63 244.76C170.82 243.16 167.43 238.98 168.97 234.34C170.13 230.86 173.94 229.47 183.97 230.86V230.87Z" fill="#FDC90C"/>
<path fill-rule="evenodd" clip-rule="evenodd" d="M179.7 204.94C167.48 202.25 164.7 216.01 172.62 220.69C185.16 228.18 195.19 228.25 228.07 236.58C232.09 237.79 236.15 239 240.17 240.21C240.1 237.55 240.76 235.36 242.07 233.64C222.96 221.65 202.95 210.95 179.7 204.93V204.94Z" fill="#FDC90C"/>
<path fill-rule="evenodd" clip-rule="evenodd" d="M189.15 180.93C179.81 179.39 174.96 187.99 180.4 193.15C191.1 201.48 227.81 217.59 251.05 234.08C249.88 228.72 251.05 224.21 253.34 220C232.54 205.12 202.49 184.88 189.15 180.92V180.93Z" fill="#085B2B"/>
<path fill-rule="evenodd" clip-rule="evenodd" d="M193.62 166.66C193.62 166.66 197.13 161.11 207.09 165.25C217.06 169.41 264.3 203.75 262.37 204.27C260.42 204.79 257.23 213.26 259.22 217.92C237.83 204.02 215.72 190.52 194.33 176.63C192.32 173.68 192.02 170.26 193.62 166.66Z" fill="#085B2B"/>
<path fill-rule="evenodd" clip-rule="evenodd" d="M210.29 153.69C210.29 153.69 213.12 146.88 225.15 153.82C237.51 159.84 271.58 188.87 278.13 194.9C289.09 205.02 294.22 212.53 289.93 216.31C284.84 219.32 278.28 211.14 271.46 205.36C249.15 185.04 232.99 176.65 214.16 164.11C209.31 161.44 207.47 157.47 210.28 153.68L210.29 153.69Z" fill="#085B2B"/>
<path fill-rule="evenodd" clip-rule="evenodd" d="M240.68 143.65C228.86 138.7 222.08 145.37 229.97 152.36C250.63 166.08 268.19 179.03 283.5 196.1C287.71 200.71 290.78 204.45 293.8 200.54C295.14 198.72 294.46 192.72 290.44 187.14C274.08 165.53 256.38 152.37 240.67 143.65H240.68Z" fill="#085B2B"/>
</svg>
