<svg width="148" height="258" viewBox="0 0 148 258" fill="none" xmlns="http://www.w3.org/2000/svg">
<g clip-path="url(#clip0_70_227)">
<path d="M145.6 73.6C141.7 62.6 131.3 55.2 119.6 55.2H73.6V27.6C73.6 12.4 61.3 0 46 0H27.6C12.4 0 0 12.3 0 27.6V230C0 245.2 12.4 257.6 27.6 257.6H119.6C134.8 257.6 147.2 245.3 147.2 230.1C147.2 230.1 147.2 230.1 147.2 230V82.8C147.2 79.7 146.7 76.6 145.6 73.6ZM128.8 220.8C128.8 231 120.6 239.2 110.4 239.2H36.8C26.6 239.2 18.4 231 18.4 220.8C18.4 210.6 26.6 202.4 36.8 202.4H92V184H36.8C26.6 184 18.4 175.8 18.4 165.6V35.3C18.5 34.4 18.6 33.5 18.9 32.7C21.2 22.8 31.1 16.6 41 18.9C47.9 20.5 53.2 25.8 54.8 32.7C55.1 33.7 55.2 34.8 55.3 35.8V73.6H110.5C120.7 73.6 128.9 81.8 128.9 92V220.8H128.8Z" fill="white"/>
<path d="M92.0002 110.4H55.2002V147.2H92.0002V110.4Z" fill="white"/>
</g>
<defs>
<clipPath id="clip0_70_227">
<rect width="147.2" height="257.6" fill="white"/>
</clipPath>
</defs>
</svg>
