<svg xmlns="http://www.w3.org/2000/svg" viewBox="0 0 670.82 259.6"><defs><style>.cls-1{fill:#202327;}.cls-2{opacity:0.75;}</style></defs><title>logo-bg-black-svg</title><g id="Layer_2" data-name="Layer 2"><g id="Capa_1" data-name="Capa 1"><path class="cls-1" d="M145.63,74.61a27.61,27.61,0,0,0-26-18.41h-46V28.6A27.6,27.6,0,0,0,46,1H27.61A27.59,27.59,0,0,0,0,28.6V231a27.6,27.6,0,0,0,27.61,27.6h92a27.57,27.57,0,0,0,27.6-27.6V83.8A27.65,27.65,0,0,0,145.63,74.61ZM128.8,221.8a18.39,18.39,0,0,1-18.4,18.39H36.81a18.39,18.39,0,1,1,0-36.78H92V185H36.81a18.41,18.41,0,0,1-18.41-18.4V36.28a11.39,11.39,0,0,1,.48-2.62,18.4,18.4,0,0,1,35.86,0,16.8,16.8,0,0,1,.47,3.14v37.8H110.4A18.4,18.4,0,0,1,128.8,93Z"/><rect class="cls-1" x="55.21" y="111.4" width="36.8" height="36.8"/><path class="cls-1" d="M209.45,97.82V11h42.77c17,0,26.16,9.16,26.16,23.67a17.57,17.57,0,0,1-10.6,16.22C275.11,53.61,281,59.5,281,71.92c0,15.83-10.59,25.9-32.44,25.9ZM227,26V44.85h22.89c7.19,0,11-3.27,11-9.42,0-6.67-3.53-9.42-12-9.42Zm23,57c8.37,0,13.34-5.36,13.34-12.43,0-7.59-5-11-13.08-11H227V83Z"/><path class="cls-1" d="M325.33,89.32c-2.35,5.76-9.42,9.16-17.4,9.16-13.47,0-23.54-9.16-23.54-23.28V33.47h17V72.71c0,8,3.66,12,10.86,12,7.72,0,13.08-5.1,13.08-12V33.47h17V99.52c0,18.18-13.08,28.78-29.56,28.78-18.83,0-28.38-10.33-28.38-26.94h15.83c0,7.59,4.45,12.29,13.34,12.29,6.15,0,11.77-5.36,11.77-13.86Z"/><path class="cls-1" d="M349.13,97.82V33.47h16v7.72c5.62-8.63,12.16-9.42,19.1-9.42h2.22v17.4a28.65,28.65,0,0,0-4.71-.39c-10.46,0-15.57,5.23-15.57,15.56V97.82Z"/><path class="cls-1" d="M385.49,65.64c0-20.4,12.69-33.88,33.09-33.88,20.14,0,32.7,13.34,32.7,33.88s-12.69,33.88-32.7,33.88C397.79,99.52,385.49,85.66,385.49,65.64Zm48.66,0c0-13.08-5.23-19.49-15.57-19.49S403,52.56,403,65.64s5.23,19.62,15.56,19.62S434.15,78.72,434.15,65.64Z"/><path class="cls-1" d="M498,97.82v-39c0-9.94-2.88-12.69-11-12.69-8.89,0-13.21,5-13.21,14.78V97.82h-17V33.47H473v9.42c3.92-7.19,10.46-11.12,20.8-11.12,12.29,0,21.32,7.46,21.32,21.45v44.6Z"/><path class="cls-1" d="M215,212.63l13.22,31.63,13.27-31.63h4v35.84h-3v-15.6l.25-16-13.34,31.6H227L213.74,217l.25,15.78v15.7h-3V212.63Z"/><path class="cls-1" d="M271,245.09q-2.66,3.86-8.49,3.86-4.26,0-6.47-2.47t-2.26-7.32V221.84h2.93v17q0,7.61,6.15,7.61,6.4,0,8.1-5.29V221.84h3v26.63h-2.85Z"/><path class="cls-1" d="M284.88,248.47h-3V210.66h3Z"/><path class="cls-1" d="M297.45,215v6.82H303v2.41h-5.51V242a5.56,5.56,0,0,0,.8,3.3,3.1,3.1,0,0,0,2.67,1.08,18.32,18.32,0,0,0,2.39-.25l.12,2.39a9.66,9.66,0,0,1-3.15.41,5.25,5.25,0,0,1-4.41-1.76A8.29,8.29,0,0,1,294.5,242V224.25h-4.9v-2.41h4.9V215Z"/><path class="cls-1" d="M308.9,214.14a2,2,0,0,1,.54-1.41,1.93,1.93,0,0,1,1.48-.57,2,2,0,0,1,1.49.57,2,2,0,0,1,.55,1.41,1.91,1.91,0,0,1-.55,1.39,2,2,0,0,1-1.49.56,2,2,0,0,1-1.48-.56A1.93,1.93,0,0,1,308.9,214.14Zm3.47,34.32h-3V221.84h3Z"/><path class="cls-1" d="M323.05,221.84l.1,4.33a9.85,9.85,0,0,1,3.69-3.62,10.13,10.13,0,0,1,4.92-1.21q6.3,0,8,5.17a10,10,0,0,1,3.82-3.83,10.58,10.58,0,0,1,5.27-1.34q8.57,0,8.74,9.35v17.77h-3V230.92q0-3.57-1.54-5.29t-4.93-1.72a7.85,7.85,0,0,0-5.37,2.05,7.26,7.26,0,0,0-2.44,4.89v17.62h-3V230.7a7.3,7.3,0,0,0-1.61-5.11,6.42,6.42,0,0,0-4.88-1.69,7.43,7.43,0,0,0-4.78,1.59,9.3,9.3,0,0,0-3,4.71v18.26h-3V221.84Z"/><path class="cls-1" d="M375.35,249a11.55,11.55,0,0,1-6.14-1.67,11.4,11.4,0,0,1-4.27-4.66,14.54,14.54,0,0,1-1.53-6.71v-1.06a15.67,15.67,0,0,1,1.49-6.92,11.85,11.85,0,0,1,4.15-4.84,10.23,10.23,0,0,1,5.76-1.76,9.62,9.62,0,0,1,7.69,3.31q2.84,3.31,2.84,9v1.65h-19v.57a11.15,11.15,0,0,0,2.6,7.54,8.26,8.26,0,0,0,6.53,3,9.58,9.58,0,0,0,4.17-.86,9.25,9.25,0,0,0,3.29-2.76l1.85,1.4A10.74,10.74,0,0,1,375.35,249Zm-.54-25.11a7.36,7.36,0,0,0-5.6,2.44,11.25,11.25,0,0,0-2.77,6.55h16v-.32a9.77,9.77,0,0,0-2.19-6.25A6.79,6.79,0,0,0,374.81,223.85Z"/><path class="cls-1" d="M389.9,234.9q0-6.2,2.77-9.88a8.91,8.91,0,0,1,7.52-3.68,9.26,9.26,0,0,1,8.22,4.26V210.66h2.93v37.81h-2.76l-.12-3.54a9.51,9.51,0,0,1-8.32,4,8.88,8.88,0,0,1-7.42-3.7q-2.82-3.7-2.82-10Zm3,.52q0,5.09,2,8a6.61,6.61,0,0,0,5.76,2.94,7.93,7.93,0,0,0,7.73-4.8V229.1q-2.29-5.19-7.68-5.19a6.69,6.69,0,0,0-5.78,2.92Q392.88,229.74,392.88,235.42Z"/><path class="cls-1" d="M418.92,214.14a2,2,0,0,1,.54-1.41,1.93,1.93,0,0,1,1.48-.57,2,2,0,0,1,1.49.57,2,2,0,0,1,.55,1.41,1.91,1.91,0,0,1-.55,1.39,2,2,0,0,1-1.49.56,1.89,1.89,0,0,1-2-2Zm3.47,34.32h-3V221.84h3Z"/><path class="cls-1" d="M447.2,248.47a13.9,13.9,0,0,1-.57-3.72,10.27,10.27,0,0,1-4,3.11A12.11,12.11,0,0,1,437.6,249a8.93,8.93,0,0,1-6.21-2.14A7,7,0,0,1,429,241.4a7.13,7.13,0,0,1,3.24-6.15q3.24-2.26,9-2.26h5.34v-3a5.84,5.84,0,0,0-1.76-4.49,7.28,7.28,0,0,0-5.13-1.64,8,8,0,0,0-5.09,1.58,4.68,4.68,0,0,0-2,3.79l-3,0a6.85,6.85,0,0,1,3-5.5,11.38,11.38,0,0,1,7.26-2.33,10.37,10.37,0,0,1,7,2.23,8,8,0,0,1,2.65,6.21v12.6a15.62,15.62,0,0,0,.81,5.78v.29Zm-9.25-2.12a9.89,9.89,0,0,0,5.28-1.43,8.41,8.41,0,0,0,3.38-3.82v-5.86h-5.27a13.2,13.2,0,0,0-6.89,1.61,4.84,4.84,0,0,0-2.49,4.29,4.76,4.76,0,0,0,1.66,3.72A6.26,6.26,0,0,0,437.94,246.35Z"/><path class="cls-1" d="M490.12,231.29H473.36v14.62h19.27v2.56h-22.3V212.63h22.18v2.56H473.36v13.54h16.76Z"/><path class="cls-1" d="M501.12,221.84l.1,4.55a10.57,10.57,0,0,1,3.74-3.75,9.72,9.72,0,0,1,4.95-1.29q4.28,0,6.37,2.41T518.4,231v17.48h-2.93V231a8.14,8.14,0,0,0-1.51-5.32q-1.49-1.75-4.76-1.75a7.45,7.45,0,0,0-4.84,1.71,10,10,0,0,0-3.11,4.61v18.24h-2.93V221.84Z"/><path class="cls-1" d="M524.83,234.9q0-6.25,2.77-9.91a8.93,8.93,0,0,1,7.52-3.65,9.26,9.26,0,0,1,8.27,4.33l.15-3.84h2.76v26.09a11.28,11.28,0,0,1-2.88,8.15,10.3,10.3,0,0,1-7.8,3,11.85,11.85,0,0,1-5.3-1.24,10.31,10.31,0,0,1-4-3.31l1.65-1.77a9.33,9.33,0,0,0,7.43,3.84,7.56,7.56,0,0,0,5.76-2.18,8.68,8.68,0,0,0,2.14-6V245a9.52,9.52,0,0,1-8.25,3.94,8.88,8.88,0,0,1-7.43-3.69q-2.81-3.69-2.81-10Zm3,.52q0,5.09,2,8a6.61,6.61,0,0,0,5.76,2.94,7.87,7.87,0,0,0,7.7-4.87V229.15a8.41,8.41,0,0,0-3-3.9,8,8,0,0,0-4.68-1.34,6.69,6.69,0,0,0-5.78,2.92Q527.8,229.74,527.81,235.42Z"/><path class="cls-1" d="M553.8,214.14a2,2,0,0,1,.54-1.41,1.93,1.93,0,0,1,1.48-.57,2,2,0,0,1,1.49.57,2,2,0,0,1,.55,1.41,1.91,1.91,0,0,1-.55,1.39,2,2,0,0,1-1.49.56,1.89,1.89,0,0,1-2-2Zm3.47,34.32h-3V221.84h3Z"/><path class="cls-1" d="M568.07,221.84l.1,4.55a10.57,10.57,0,0,1,3.74-3.75,9.72,9.72,0,0,1,4.95-1.29q4.28,0,6.37,2.41t2.12,7.24v17.48h-2.93V231a8.14,8.14,0,0,0-1.51-5.32q-1.49-1.75-4.76-1.75a7.45,7.45,0,0,0-4.84,1.71,10,10,0,0,0-3.11,4.61v18.24h-2.93V221.84Z"/><path class="cls-1" d="M603.27,249a11.55,11.55,0,0,1-6.14-1.67,11.4,11.4,0,0,1-4.27-4.66,14.54,14.54,0,0,1-1.53-6.71v-1.06a15.67,15.67,0,0,1,1.49-6.92A11.85,11.85,0,0,1,597,223.1a10.23,10.23,0,0,1,5.76-1.76,9.62,9.62,0,0,1,7.69,3.31q2.84,3.31,2.84,9v1.65h-19v.57a11.15,11.15,0,0,0,2.6,7.54,8.26,8.26,0,0,0,6.53,3,9.58,9.58,0,0,0,4.17-.86,9.25,9.25,0,0,0,3.29-2.76l1.85,1.4A10.74,10.74,0,0,1,603.27,249Zm-.54-25.11a7.36,7.36,0,0,0-5.6,2.44,11.25,11.25,0,0,0-2.77,6.55h16v-.32a9.77,9.77,0,0,0-2.19-6.25A6.79,6.79,0,0,0,602.73,223.85Z"/><path class="cls-1" d="M629.31,249a11.55,11.55,0,0,1-6.14-1.67,11.4,11.4,0,0,1-4.27-4.66,14.54,14.54,0,0,1-1.53-6.71v-1.06a15.67,15.67,0,0,1,1.49-6.92A11.85,11.85,0,0,1,623,223.1a10.23,10.23,0,0,1,5.76-1.76,9.62,9.62,0,0,1,7.69,3.31q2.84,3.31,2.84,9v1.65h-19v.57a11.15,11.15,0,0,0,2.6,7.54,8.26,8.26,0,0,0,6.53,3,9.58,9.58,0,0,0,4.17-.86,9.25,9.25,0,0,0,3.29-2.76l1.85,1.4A10.74,10.74,0,0,1,629.31,249Zm-.54-25.11a7.36,7.36,0,0,0-5.6,2.44,11.25,11.25,0,0,0-2.77,6.55h16v-.32a9.77,9.77,0,0,0-2.19-6.25A6.79,6.79,0,0,0,628.77,223.85Z"/><path class="cls-1" d="M657.34,224.35a11,11,0,0,0-2-.17,7.19,7.19,0,0,0-4.66,1.54,8.43,8.43,0,0,0-2.72,4.47v18.29H645V221.84h2.88l0,4.23a7.83,7.83,0,0,1,7.51-4.73,4.85,4.85,0,0,1,1.94.32Z"/><path class="cls-1" d="M271,196.89l-.37-8.23c-4,7-13.47,11.1-24.81,11.1-22.94,0-37.53-21.32-37.53-44.39,0-24.44,14-44,40.77-44,19.7,0,34.92,11.72,36.16,28.31H267.79c-.87-7.73-9.23-14-18.7-14-13.84,0-23.07,10.72-23.07,30.43,0,13.59,6.86,29.05,22.94,29.05,11.35,0,20.2-8.6,20.2-19H250.83V152.37h34.54v44.52Z"/><path class="cls-1" d="M290.49,166.21c0-19.45,12.1-32.3,31.55-32.3,19.2,0,31.17,12.72,31.17,32.3s-12.09,32.3-31.17,32.3C302.21,198.51,290.49,185.29,290.49,166.21Zm46.39,0c0-12.47-5-18.58-14.84-18.58s-14.84,6.11-14.84,18.58,5,18.7,14.84,18.7S336.87,178.68,336.87,166.21Z"/><path class="cls-1" d="M397.73,196.89V159.73c0-9.48-2.74-12.1-10.47-12.1-8.48,0-12.59,4.74-12.59,14.09v35.16H358.45V135.54h15.46v9c3.74-6.86,10-10.6,19.83-10.6,11.72,0,20.33,7.11,20.33,20.45v42.52Z"/><path class="cls-1" d="M418.43,196.89V184.42l31.3-36H420.55V135.54h49.88v13.09l-31.3,35H471.3v13.22Z"/><path class="cls-1" d="M513.82,196.89a23.88,23.88,0,0,1-1-5.49c-3.87,4.24-10.35,7.11-18.58,7.11-14,0-20.45-6.86-20.45-16.83,0-17.71,11.85-19.7,28.18-21.95,8.11-1.12,10.35-2.74,10.35-7,0-4-4-6.36-10.35-6.36-7.36,0-10.35,3.62-11.1,9.1H475.79c.25-12.72,7.23-21.57,26.93-21.57,19.45,0,26.19,8.73,26.19,24.19v38.78Zm-1.12-30.05c-1.62,1.62-4.49,2.49-10.47,3.62C493,172.2,490,174.82,490,180.05c0,4.61,2.74,6.86,7.86,6.86,8.35,0,14.59-6.11,14.71-13.34Z"/><path class="cls-1" d="M535.39,196.89V113.09H551.6v83.79Z"/><path class="cls-1" d="M572.8,170.45c.5,9.23,5.74,15.21,13.72,15.21,5.24,0,9.85-2.62,11-6.86H614.2c-3.74,12.59-13.84,19.7-26.93,19.7-20.45,0-30.67-11.22-30.67-33.42,0-19,10.85-31.17,29.68-31.17s28.8,12.22,28.8,36.54Zm25.56-10.22c-.25-9.1-6.24-13.47-12.59-13.47s-11.85,5-12.47,13.47Z"/><path class="cls-1" d="M617.95,196.89V184.42l31.3-36H620.07V135.54h49.88v13.09l-31.3,35h32.17v13.22Z"/><g class="cls-2"><path class="cls-1" d="M177.18,259.6a1,1,0,0,1-1-1V1a1,1,0,0,1,2,0V258.6A1,1,0,0,1,177.18,259.6Z"/></g></g></g></svg>