<svg width="53" height="32" viewBox="0 0 53 32" fill="none" xmlns="http://www.w3.org/2000/svg">
<g clip-path="url(#clip0_33_5806)">
<path d="M15.108 11.2698C15.108 11.9084 15.1771 12.4261 15.298 12.8058C15.4362 13.1855 15.6089 13.5997 15.8507 14.0484C15.9371 14.1865 15.9717 14.3245 15.9717 14.4453C15.9717 14.6179 15.868 14.7905 15.6435 14.9631L14.5552 15.688C14.3998 15.7915 14.2443 15.8433 14.1061 15.8433C13.9334 15.8433 13.7606 15.757 13.5879 15.6017C13.3461 15.3428 13.1388 15.0667 12.9661 14.7905C12.7933 14.4971 12.6206 14.1692 12.4306 13.7723C11.0832 15.36 9.39041 16.1539 7.35212 16.1539C5.90113 16.1539 4.7438 15.7397 3.89739 14.9113C3.05098 14.0829 2.61914 12.9784 2.61914 11.5977C2.61914 10.1307 3.13735 8.93989 4.19104 8.04245C5.24473 7.14501 6.6439 6.69629 8.42308 6.69629C9.01039 6.69629 9.61496 6.74807 10.2541 6.83436C10.8932 6.92065 11.5496 7.05872 12.2406 7.21405V5.95418C12.2406 4.64253 11.9642 3.72783 11.4287 3.19282C10.8759 2.65781 9.94316 2.39893 8.61309 2.39893C8.00852 2.39893 7.38666 2.46796 6.74754 2.62329C6.10842 2.77862 5.48656 2.96846 4.88199 3.21008C4.60561 3.33089 4.39833 3.39992 4.27741 3.43444C4.15649 3.46895 4.07013 3.48621 4.00103 3.48621C3.7592 3.48621 3.63829 3.31363 3.63829 2.9512V2.10553C3.63829 1.8294 3.67283 1.6223 3.7592 1.50149C3.84557 1.38068 4.00103 1.25987 4.24286 1.13906C4.84744 0.828407 5.57293 0.56953 6.41934 0.362428C7.26575 0.138068 8.16398 0.0345169 9.11403 0.0345169C11.1696 0.0345169 12.6724 0.500496 13.6397 1.43245C14.5898 2.36441 15.0734 3.77961 15.0734 5.67804V11.2698H15.108ZM8.09488 13.8931C8.66491 13.8931 9.25222 13.7895 9.87407 13.5824C10.4959 13.3753 11.0487 12.9956 11.5151 12.4779C11.7914 12.15 11.9987 11.7875 12.1024 11.3733C12.206 10.9591 12.2751 10.4586 12.2751 9.87185V9.147C11.7742 9.02619 11.2387 8.92264 10.6859 8.8536C10.1332 8.78457 9.59769 8.75005 9.06221 8.75005C7.90487 8.75005 7.05847 8.97441 6.48844 9.44039C5.91841 9.90637 5.64203 10.5622 5.64203 11.4251C5.64203 12.2363 5.84931 12.8403 6.28115 13.2545C6.69572 13.686 7.3003 13.8931 8.09488 13.8931ZM21.9656 15.757C21.6547 15.757 21.4474 15.7052 21.3092 15.5844C21.171 15.4809 21.0501 15.2392 20.9465 14.9113L16.8872 1.57052C16.7835 1.22535 16.7317 1.00099 16.7317 0.880183C16.7317 0.604047 16.8699 0.448721 17.1463 0.448721H18.8391C19.1673 0.448721 19.3918 0.500496 19.5128 0.621305C19.6509 0.724856 19.7546 0.966475 19.8582 1.29439L22.7602 12.7195L25.4549 1.29439C25.5413 0.949217 25.6449 0.724856 25.7831 0.621305C25.9213 0.517754 26.1631 0.448721 26.474 0.448721H27.8559C28.1841 0.448721 28.4087 0.500496 28.5469 0.621305C28.6851 0.724856 28.806 0.966475 28.8751 1.29439L31.6043 12.8576L34.5926 1.29439C34.6963 0.949217 34.8172 0.724856 34.9381 0.621305C35.0763 0.517754 35.3009 0.448721 35.6118 0.448721H37.2182C37.4946 0.448721 37.6501 0.586788 37.6501 0.880183C37.6501 0.966475 37.6328 1.05277 37.6155 1.15632C37.5983 1.25987 37.5637 1.39794 37.4946 1.58778L33.3317 14.9286C33.228 15.2738 33.1071 15.4981 32.9689 15.6017C32.8307 15.7052 32.6062 15.7743 32.3125 15.7743H30.827C30.4988 15.7743 30.2742 15.7225 30.136 15.6017C29.9979 15.4809 29.8769 15.2565 29.8078 14.9113L27.1304 3.77961L24.4703 14.8941C24.3839 15.2392 24.2803 15.4636 24.1421 15.5844C24.0039 15.7052 23.7621 15.757 23.4511 15.757H21.9656ZM44.1622 16.223C43.264 16.223 42.3658 16.1194 41.5021 15.9123C40.6384 15.7052 39.9647 15.4809 39.5156 15.222C39.2393 15.0667 39.0492 14.8941 38.9802 14.7387C38.9111 14.5834 38.8765 14.4108 38.8765 14.2555V13.3753C38.8765 13.0129 39.0147 12.8403 39.2738 12.8403C39.3774 12.8403 39.4811 12.8576 39.5847 12.8921C39.6884 12.9266 39.8438 12.9956 40.0166 13.0647C40.6039 13.3235 41.243 13.5307 41.9167 13.6687C42.6076 13.8068 43.2813 13.8758 43.9722 13.8758C45.0605 13.8758 45.9069 13.686 46.4942 13.3063C47.0815 12.9266 47.3924 12.3743 47.3924 11.6667C47.3924 11.1835 47.2369 10.7866 46.926 10.4586C46.6151 10.1307 46.0278 9.83733 45.1814 9.5612L42.6767 8.78457C41.4157 8.38762 40.483 7.80083 39.9129 7.0242C39.3429 6.26483 39.0492 5.41916 39.0492 4.52172C39.0492 3.79687 39.2047 3.1583 39.5156 2.60603C39.8266 2.05376 40.2411 1.57052 40.7593 1.19084C41.2775 0.79389 41.8648 0.500496 42.5558 0.293394C43.2467 0.0862924 43.9722 0 44.7323 0C45.1123 0 45.5096 0.0172585 45.8896 0.0690339C46.2869 0.120809 46.6496 0.189843 47.0124 0.258877C47.3579 0.34517 47.6861 0.431462 47.997 0.535013C48.3079 0.638564 48.5497 0.742115 48.7225 0.845666C48.9643 0.983733 49.1371 1.1218 49.2407 1.27713C49.3443 1.4152 49.3962 1.60504 49.3962 1.84666V2.65781C49.3962 3.02023 49.258 3.21008 48.9989 3.21008C48.8607 3.21008 48.6361 3.14104 48.3425 3.00298C47.3579 2.55426 46.2524 2.3299 45.0259 2.3299C44.0413 2.3299 43.264 2.48522 42.7285 2.81313C42.193 3.14104 41.9167 3.64154 41.9167 4.34914C41.9167 4.83237 42.0894 5.24658 42.4349 5.57449C42.7803 5.9024 43.4195 6.23031 44.335 6.52371L46.7878 7.30034C48.0315 7.69728 48.9298 8.24955 49.4652 8.95715C50.0007 9.66475 50.2598 10.4759 50.2598 11.3733C50.2598 12.1155 50.1044 12.7885 49.8107 13.3753C49.4998 13.9621 49.0852 14.4799 48.5497 14.8941C48.0143 15.3255 47.3751 15.6362 46.6324 15.8605C45.8551 16.1022 45.0432 16.223 44.1622 16.223Z" fill="white"/>
<path fill-rule="evenodd" clip-rule="evenodd" d="M47.427 24.6102C41.7439 28.8041 33.4871 31.0304 26.3877 31.0304C16.4381 31.0304 7.47303 27.3543 0.701767 21.2448C0.166285 20.7616 0.649947 20.1058 1.28907 20.4855C8.61309 24.7311 17.6472 27.3026 26.9922 27.3026C33.2971 27.3026 40.2239 25.9909 46.5978 23.2986C47.5479 22.8671 48.3597 23.9199 47.427 24.6102Z" fill="#FF9900"/>
<path fill-rule="evenodd" clip-rule="evenodd" d="M49.7934 21.9181C49.0679 20.9861 44.9913 21.4693 43.143 21.6937C42.5903 21.7627 42.5039 21.2795 43.0048 20.9171C46.2523 18.639 51.5898 19.2948 52.2117 20.0542C52.8335 20.8308 52.0389 26.1637 48.9988 28.7179C48.5324 29.1149 48.0833 28.9078 48.2906 28.39C48.9815 26.6814 50.5189 22.8328 49.7934 21.9181Z" fill="#FF9900"/>
</g>
<defs>
<clipPath id="clip0_33_5806">
<rect width="53" height="31.0308" fill="white"/>
</clipPath>
</defs>
</svg>
