<svg width="512" height="499" viewBox="0 0 512 499" fill="none" xmlns="http://www.w3.org/2000/svg">
<path d="M163.47 490.626C151.552 490.626 140.296 485.329 132.681 475.728L16.8116 331.719C9.19727 322.118 6.21776 309.869 9.19727 297.951L50.5793 118.187C53.2278 106.269 61.1731 96.6685 72.098 91.3716L239.613 11.2559C244.909 8.60743 250.869 7.2832 256.828 7.2832C262.787 7.2832 268.746 8.60743 274.042 11.2559L441.557 91.0405C452.482 96.3374 460.427 105.938 463.076 117.856L504.458 297.62C507.106 309.538 504.458 321.787 496.844 331.388L380.974 475.397C373.359 484.667 362.103 490.295 350.185 490.295L163.47 490.626Z" fill="#326DE6"/>
<path d="M256.497 15.5597C261.131 15.5597 265.766 16.5528 270.07 18.5392L437.584 98.3238C446.192 102.628 452.813 110.573 454.799 119.842L496.181 299.606C498.499 309.207 496.181 319.138 489.891 326.753L374.022 470.762C368.063 478.377 358.793 482.68 349.192 482.68H163.47C153.869 482.68 144.599 478.377 138.64 470.762L22.7707 326.753C16.8117 319.138 14.4943 309.207 16.4806 299.606L57.8627 119.842C60.1801 110.242 66.4701 102.296 75.0776 98.3238L242.592 18.2081C246.896 16.5528 251.862 15.5597 256.497 15.5597ZM256.497 0C249.544 0 242.592 1.65528 235.971 4.63479L68.4565 84.7505C55.2142 91.0405 45.9446 102.628 42.6341 116.863L1.25201 296.627C-2.05856 310.862 1.25201 325.429 10.5216 337.016L126.391 481.025C135.33 492.281 148.903 498.571 163.139 498.571H348.861C363.097 498.571 376.67 492.281 385.609 481.025L501.478 337.016C510.748 325.76 514.059 310.862 510.748 296.627L469.366 116.863C466.055 102.628 456.786 91.0405 443.544 84.7505L276.691 4.63479C270.401 1.65528 263.449 0 256.497 0Z" fill="white"/>
<path d="M424.342 285.371C424.011 285.371 424.011 285.371 424.342 285.371H424.011C423.68 285.371 423.349 285.371 423.349 285.04C422.687 285.04 422.025 284.709 421.363 284.709C419.045 284.378 417.059 284.047 415.073 284.047C414.079 284.047 413.086 284.047 411.762 283.716H411.431C404.479 283.054 398.851 282.392 393.554 280.736C391.237 279.743 390.574 278.419 389.912 277.095C389.912 276.764 389.581 276.764 389.581 276.433L385.278 275.109C387.264 259.88 386.602 243.989 382.96 228.43C379.319 212.87 373.028 198.303 364.421 185.061L367.732 182.082V181.42C367.732 179.764 368.063 178.109 369.387 176.454C373.36 172.812 378.325 169.833 384.284 166.191C385.278 165.529 386.271 165.198 387.264 164.536C389.25 163.542 390.905 162.549 392.892 161.225C393.223 160.894 393.885 160.563 394.547 159.901C394.878 159.57 395.209 159.57 395.209 159.239C399.844 155.266 400.837 148.645 397.527 144.341C395.871 142.024 392.892 140.7 389.912 140.7C387.264 140.7 384.946 141.693 382.629 143.348C382.298 143.679 382.298 143.679 381.967 144.01C381.305 144.341 380.974 145.003 380.312 145.334C378.656 146.99 377.332 148.314 376.008 149.969C375.346 150.631 374.684 151.624 373.691 152.287C369.056 157.252 364.752 161.225 360.448 164.205C359.455 164.867 358.462 165.198 357.469 165.198C356.807 165.198 356.145 165.198 355.482 164.867H354.82L350.848 167.515C346.544 162.88 341.909 158.908 337.274 154.935C317.411 139.375 293.244 129.775 268.084 127.457L267.752 123.154C267.421 122.823 267.421 122.823 267.09 122.491C266.097 121.498 264.773 120.505 264.442 118.188C264.111 112.891 264.773 106.932 265.435 100.311V99.9796C265.435 98.9865 265.766 97.6622 266.097 96.6691C266.428 94.6827 266.759 92.6964 267.09 90.379V88.3926V87.3995C267.09 81.4405 262.456 76.4746 256.828 76.4746C254.179 76.4746 251.531 77.7988 249.544 79.7852C247.558 81.7715 246.565 84.42 246.565 87.3995V88.0616V90.0479C246.565 92.3653 246.896 94.3517 247.558 96.338C247.889 97.3312 247.889 98.3243 248.22 99.6486V99.9796C248.882 106.601 249.875 112.56 249.213 117.857C248.882 120.174 247.558 121.167 246.565 122.16C246.234 122.491 246.234 122.491 245.903 122.823L245.572 127.126C239.613 127.788 233.654 128.45 227.695 129.775C202.203 135.403 179.691 148.314 162.145 166.853L158.835 164.536H158.173C157.511 164.536 156.849 164.867 156.186 164.867C155.193 164.867 154.2 164.536 153.207 163.874C148.903 160.894 144.599 156.59 139.965 151.624C139.303 150.962 138.64 149.969 137.647 149.307C136.323 147.652 134.999 146.328 133.344 144.672C133.012 144.341 132.35 144.01 131.688 143.348C131.357 143.017 131.026 143.017 131.026 142.686C129.04 141.031 126.391 140.037 123.743 140.037C120.763 140.037 117.784 141.362 116.129 143.679C112.818 147.983 113.811 154.604 118.446 158.577C118.777 158.577 118.777 158.908 119.108 158.908C119.77 159.239 120.101 159.901 120.763 160.232C122.75 161.556 124.405 162.549 126.391 163.542C127.385 163.874 128.378 164.536 129.371 165.198C135.33 168.839 140.296 171.819 144.268 175.46C145.924 177.116 145.924 178.771 145.924 180.426V181.088L149.234 184.068C148.572 185.061 147.91 185.723 147.579 186.716C131.026 212.87 124.736 243.658 129.04 274.115L124.736 275.44C124.736 275.771 124.405 275.771 124.405 276.102C123.743 277.426 122.75 278.75 120.763 279.743C115.798 281.399 109.839 282.061 102.886 282.723H102.555C101.562 282.723 100.238 282.723 99.2447 283.054C97.2584 283.054 95.272 283.385 92.9546 283.716C92.2925 283.716 91.6304 284.047 90.9683 284.047C90.6372 284.047 90.3062 284.047 89.9751 284.378C84.0161 285.702 80.3745 291.33 81.3677 296.627C82.3608 301.262 86.6646 304.241 91.9615 304.241C92.9546 304.241 93.6168 304.241 94.6099 303.91C94.941 303.91 95.272 303.91 95.272 303.579C95.9342 303.579 96.5963 303.248 97.2584 303.248C99.5758 302.586 101.231 301.924 103.217 300.931C104.211 300.6 105.204 299.938 106.197 299.607H106.528C112.818 297.289 118.446 295.303 123.743 294.641H124.405C126.391 294.641 127.716 295.634 128.709 296.296C129.04 296.296 129.04 296.627 129.371 296.627L134.006 295.965C141.951 320.463 157.18 342.313 177.374 358.204C182.009 361.845 186.644 364.825 191.609 367.804L189.623 372.108C189.623 372.439 189.954 372.439 189.954 372.77C190.616 374.094 191.278 375.75 190.616 378.067C188.63 383.033 185.65 387.999 182.009 393.627V393.958C181.347 394.951 180.685 395.613 180.022 396.606C178.698 398.262 177.705 399.917 176.381 401.903C176.05 402.234 175.719 402.896 175.388 403.558C175.388 403.889 175.057 404.221 175.057 404.221C172.408 409.848 174.395 416.139 179.36 418.456C180.685 419.118 182.009 419.449 183.333 419.449C187.306 419.449 191.278 416.801 193.265 413.159C193.265 412.828 193.596 412.497 193.596 412.497C193.927 411.835 194.258 411.173 194.589 410.842C195.582 408.524 195.913 406.869 196.575 404.883C196.906 403.889 197.237 402.896 197.568 401.903C199.886 395.282 201.541 389.985 204.521 385.35C205.845 383.364 207.5 383.033 208.824 382.371C209.155 382.371 209.155 382.371 209.487 382.04L211.804 377.736C226.37 383.364 242.261 386.344 258.152 386.344C267.752 386.344 277.684 385.35 286.954 383.033C292.913 381.709 298.541 380.053 304.169 378.067L306.155 381.709C306.486 381.709 306.486 381.709 306.817 382.04C308.472 382.371 309.797 383.033 311.121 385.019C313.769 389.654 315.756 395.282 318.073 401.572V401.903C318.404 402.896 318.735 403.889 319.066 404.883C319.728 406.869 320.059 408.855 321.053 410.842C321.384 411.504 321.715 411.835 322.046 412.497C322.046 412.828 322.377 413.159 322.377 413.159C324.363 417.132 328.336 419.449 332.308 419.449C333.633 419.449 334.957 419.118 336.281 418.456C338.599 417.132 340.585 415.145 341.247 412.497C341.909 409.848 341.909 406.869 340.585 404.221C340.585 403.889 340.254 403.889 340.254 403.558C339.923 402.896 339.592 402.234 339.261 401.903C338.268 399.917 336.943 398.262 335.619 396.606C334.957 395.613 334.295 394.951 333.633 393.958V393.627C329.991 387.999 326.681 383.033 325.025 378.067C324.363 375.75 325.025 374.425 325.356 372.77C325.356 372.439 325.687 372.439 325.687 372.108L324.032 368.135C341.578 357.873 356.476 343.306 367.732 325.429C373.691 316.16 378.325 305.897 381.636 295.634L385.609 296.296C385.94 296.296 385.94 295.965 386.271 295.965C387.595 295.303 388.588 294.31 390.574 294.31H391.237C396.533 294.972 402.161 296.958 408.451 299.276H408.783C409.776 299.607 410.769 300.269 411.762 300.6C413.748 301.593 415.404 302.255 417.721 302.917C418.383 302.917 419.045 303.248 419.707 303.248C420.038 303.248 420.37 303.248 420.701 303.579C421.694 303.91 422.356 303.91 423.349 303.91C428.315 303.91 432.619 300.6 433.943 296.296C433.943 292.323 430.301 287.027 424.342 285.371ZM271.063 269.149L256.497 276.102L241.93 269.149L238.288 253.59L248.22 241.01H264.442L274.374 253.59L271.063 269.149ZM357.469 234.72C360.117 245.976 360.779 257.231 359.786 268.156L309.135 253.59C304.5 252.266 301.851 247.631 302.844 242.996C303.176 241.672 303.838 240.348 304.831 239.354L344.889 203.269C350.517 212.539 354.82 223.133 357.469 234.72ZM328.998 183.406L285.63 214.194C281.988 216.511 277.022 215.849 274.043 212.208C273.049 211.215 272.718 209.89 272.387 208.566L269.408 154.604C292.251 157.252 313.107 167.515 328.998 183.406ZM232.992 156.259C236.633 155.597 239.944 154.935 243.585 154.273L240.606 207.242C240.275 211.877 236.633 215.849 231.667 215.849C230.343 215.849 228.688 215.518 227.695 214.856L183.664 183.406C197.237 169.833 214.121 160.563 232.992 156.259ZM167.773 203.269L207.169 238.361C210.811 241.341 211.142 246.969 208.162 250.61C207.169 251.935 205.845 252.928 204.19 253.259L152.876 268.156C150.89 245.644 155.855 222.802 167.773 203.269ZM158.835 292.986L211.473 284.047C215.777 283.716 219.749 286.695 220.742 290.999C221.074 292.986 221.074 294.641 220.411 296.296L200.217 344.961C181.678 333.043 166.78 314.835 158.835 292.986ZM279.671 358.866C272.056 360.521 264.442 361.514 256.497 361.514C244.91 361.514 233.654 359.528 223.06 356.217L249.213 308.876C251.862 305.897 256.165 304.573 259.807 306.559C261.462 307.552 262.787 308.876 263.78 310.201L289.271 356.217C286.292 357.21 282.981 357.873 279.671 358.866ZM344.227 312.849C335.95 326.091 325.025 336.685 312.445 344.961L291.589 294.972C290.595 290.999 292.251 286.695 296.223 284.709C297.548 284.047 299.203 283.716 300.858 283.716L353.827 292.654C351.841 299.938 348.53 306.559 344.227 312.849Z" fill="white"/>
</svg>
