<svg width="538" height="632" viewBox="0 0 538 632" fill="none" xmlns="http://www.w3.org/2000/svg">
<path d="M0 158V474L269 632V553.632L66.9343 434.816V197.184L0 158Z" fill="#F96B13"/>
<path d="M471.066 197.184V513.184L538 474V158L471.066 197.184Z" fill="#CC4E00"/>
<path d="M202.066 39.184L471.066 197.184L538 158L269 0L202.066 39.184Z" fill="#FFCA73"/>
<path d="M0 158L66.9343 197.184L133.869 158L66.9343 118.816L0 158Z" fill="#FFCA73"/>
<path d="M66.9343 197.184V433.552L133.869 394.368V158L66.9343 197.184Z" fill="#CC4E00"/>
<path d="M269 553.632V632L335.934 592.816V513.184L269 553.632Z" fill="#CC4E00"/>
<path d="M66.9343 434.817L269 553.633L335.934 514.449L133.869 395.633L66.9343 434.817Z" fill="#FFCA73"/>
<path d="M202.066 39.1836V118.816L404.131 237.632V475.264L471.066 514.448V198.448L202.066 39.1836Z" fill="#F96B13"/>
</svg>
