<svg width="146" height="146" viewBox="0 0 146 146" fill="none" xmlns="http://www.w3.org/2000/svg">
<g clip-path="url(#clip0_54_3925)">
<path d="M82.2979 0.594629C67.9772 -1.24441 53.4328 1.20458 40.5037 7.63192C27.5748 14.0593 16.8422 24.1762 9.66316 36.7034C2.48422 49.2308 -0.818704 63.6053 0.172133 78.0096C1.16297 92.4138 6.40306 106.201 15.2298 117.627C24.0564 129.054 36.0732 137.606 49.7605 142.202C63.4475 146.799 78.1903 147.233 92.1243 143.45C106.059 139.668 118.559 131.838 128.043 120.952C137.527 110.064 143.569 96.6104 145.407 82.2888C147.87 63.087 142.605 43.6931 130.77 28.3728C118.935 13.0524 101.5 3.06044 82.2979 0.594629Z" fill="#FF6C37"/>
<path d="M52.7763 77.6128C52.8047 77.6708 52.8525 77.7169 52.9109 77.7433C52.9693 77.7702 53.0355 77.7757 53.0975 77.7588L64.7775 75.2403L59.8646 70.2617L52.8639 77.2624C52.8087 77.2999 52.7695 77.356 52.7531 77.4207C52.7371 77.4855 52.7453 77.554 52.7763 77.6128Z" fill="white"/>
<path d="M107.469 27.4629C105.841 27.4646 104.235 27.8313 102.767 28.536C101.299 29.2408 100.009 30.2657 98.9905 31.5352C97.9719 32.8048 97.2513 34.2867 96.8812 35.8717C96.5102 37.4567 96.5 39.1047 96.8515 40.6941C97.2029 42.2836 97.9057 43.774 98.9082 45.0558C99.9115 46.3375 101.19 47.3778 102.648 48.1005C104.107 48.8232 105.709 49.2091 107.337 49.2306C108.964 49.2521 110.575 48.9081 112.053 48.2241L104.651 40.8219C104.566 40.7371 104.499 40.6365 104.453 40.5256C104.406 40.4148 104.382 40.2959 104.382 40.1759C104.382 40.0559 104.406 39.9369 104.453 39.8261C104.499 39.7153 104.566 39.6146 104.651 39.5298L114.323 29.8646C112.381 28.3028 109.961 27.455 107.469 27.4629Z" fill="white"/>
<path d="M115.652 31.1201L106.585 40.1502L113.695 47.2604C114.219 46.8927 114.708 46.477 115.155 46.0194C117.104 44.0576 118.238 41.431 118.331 38.6673C118.422 35.9036 117.466 33.2074 115.652 31.1201Z" fill="white"/>
<path d="M97.5101 47.7863H97.3497C97.1612 47.7844 96.9728 47.8017 96.7877 47.8374H96.7224C96.5186 47.8812 96.3192 47.9396 96.1231 48.0126L95.9703 48.0856C95.8234 48.1467 95.6817 48.2197 95.5467 48.3046L95.3863 48.4068C95.2097 48.5286 95.0434 48.6654 94.8897 48.8156L68.0039 75.7083L71.3327 79.0371L99.8028 54.0497C99.9641 53.9082 100.11 53.7517 100.241 53.5825L100.365 53.4219C100.462 53.279 100.55 53.1303 100.628 52.9766C100.671 52.889 100.708 52.8014 100.744 52.7138C100.793 52.597 100.835 52.4774 100.868 52.3561C100.868 52.2685 100.92 52.1809 100.941 52.0933C100.978 51.9121 101.002 51.7296 101.014 51.5458V51.3049C101.014 51.1735 101.014 51.0421 101.014 50.9107C101.014 50.7793 101.014 50.7355 100.978 50.6479C100.843 49.9589 100.506 49.3251 100.012 48.8274C99.5167 48.3301 98.8852 47.9902 98.1968 47.852H98.0576C97.8776 47.8168 97.6943 47.7949 97.5101 47.7863Z" fill="white"/>
<path d="M61.1201 68.9704L66.6389 74.4599L93.5978 47.501C94.4755 46.6432 95.6189 46.1103 96.8387 45.9899C92.0725 42.3399 86.8742 43.2962 61.1201 68.9704Z" fill="white"/>
<path d="M101.322 55.1006L100.993 55.4218L72.5232 80.4024L77.3631 85.2351C89.364 73.8835 100.015 63.0722 101.322 55.1006Z" fill="white"/>
<path d="M30.3078 113.625C30.3225 113.677 30.3529 113.723 30.3947 113.756C30.4365 113.79 30.4876 113.811 30.5414 113.814L42.9513 114.668L35.9945 107.712L30.3662 113.333C30.3297 113.371 30.3048 113.419 30.2944 113.47C30.2841 113.522 30.2888 113.576 30.3078 113.625Z" fill="white"/>
<path d="M37.293 106.419L44.6295 113.756C44.7166 113.848 44.8331 113.908 44.9593 113.926C45.0856 113.943 45.2141 113.916 45.323 113.85C45.4367 113.794 45.5273 113.7 45.5792 113.584C45.6313 113.468 45.6413 113.337 45.6077 113.215L44.374 107.944C44.2941 107.602 44.3303 107.244 44.4772 106.926C44.6239 106.608 44.8727 106.347 45.1843 106.185C58.0468 99.7396 68.4201 93.1034 76.034 86.4748L70.924 81.3652L59.974 83.7231L37.293 106.419Z" fill="white"/>
<path d="M69.3555 79.818L66.6107 77.0732L62.8147 80.8619C62.7873 80.8948 62.7722 80.9363 62.7722 80.9787C62.7722 81.0217 62.7873 81.0627 62.8147 81.0955C62.832 81.1343 62.8635 81.1658 62.9023 81.1831C62.9415 81.2006 62.9853 81.2033 63.0264 81.1904L69.3555 79.818Z" fill="white"/>
<path d="M115.907 37.0044C115.87 36.8895 115.808 36.784 115.726 36.6948C115.645 36.6057 115.546 36.5351 115.434 36.4878C115.323 36.4404 115.203 36.4173 115.082 36.4201C114.962 36.423 114.843 36.4517 114.734 36.5043C114.625 36.5568 114.529 36.6321 114.451 36.7249C114.374 36.8178 114.317 36.9261 114.286 37.0427C114.254 37.1591 114.247 37.2812 114.266 37.4005C114.285 37.5198 114.329 37.6336 114.396 37.7344C114.614 38.1734 114.701 38.6662 114.645 39.1532C114.59 39.6402 114.394 40.1008 114.082 40.4792C113.98 40.6028 113.915 40.753 113.895 40.9123C113.874 41.0714 113.9 41.2332 113.968 41.3785C114.035 41.524 114.144 41.647 114.279 41.7333C114.414 41.8196 114.572 41.8657 114.731 41.8662C114.856 41.8648 114.978 41.8368 115.091 41.7839C115.203 41.7309 115.302 41.6544 115.382 41.5596C115.899 40.9314 116.223 40.1674 116.316 39.3594C116.409 38.5515 116.267 37.7337 115.907 37.0044Z" fill="#FF6C37"/>
</g>
<defs>
<clipPath id="clip0_54_3925">
<rect width="146" height="146" fill="white"/>
</clipPath>
</defs>
</svg>
