<svg width="272" height="271" viewBox="0 0 272 271" fill="none" xmlns="http://www.w3.org/2000/svg">
<path d="M136.085 0C143.768 0.0140976 151.324 0.662589 158.669 1.88908V80.9767L214.802 25.0515C221.002 29.4499 226.802 34.3418 232.165 39.6848C237.53 45.0279 242.454 50.8221 246.868 56.9968L190.733 112.922H270.117C271.349 120.239 272 127.739 272 135.408V135.591C272 143.26 271.349 150.774 270.117 158.091H190.719L246.868 214.002C242.454 220.177 237.53 225.971 232.181 231.314H232.165C226.802 236.657 221.002 241.563 214.819 245.947L158.669 190.022V269.11C151.337 270.336 143.782 270.984 136.099 271H135.901C128.216 270.984 120.69 270.336 113.344 269.11V190.022L57.2111 245.947C44.8142 237.164 33.976 226.352 25.145 214.002L81.281 158.091H1.89641C0.651047 150.76 0 143.218 0 135.549V135.155C0.0129046 133.165 0.143374 130.734 0.330769 128.218L0.388634 127.461C0.943496 120.381 1.89641 112.922 1.89641 112.922H81.281L25.145 56.9968C29.5457 50.8221 34.4569 45.0419 39.8192 39.7131L39.8463 39.6848C45.1978 34.3418 51.0113 29.4499 57.2111 25.0515L113.344 80.9767V1.88908C120.69 0.662589 128.232 0.0140976 135.928 0H136.085ZM136.072 101.63H135.942C125.839 101.63 116.162 103.477 107.217 106.832C103.865 115.727 102.009 125.37 101.996 135.436V135.563C102.009 145.628 103.865 155.271 107.231 164.167C116.162 167.522 125.839 169.369 135.942 169.369H136.072C146.175 169.369 155.852 167.522 164.783 164.167C168.148 155.257 170.004 145.628 170.004 135.563V135.436C170.004 125.37 168.148 115.727 164.783 106.832C155.852 103.477 146.175 101.63 136.072 101.63Z" fill="#FF4A00"/>
</svg>
