<?xml version="1.0" encoding="utf-8"?>
<!-- Generator: Adobe Illustrator 21.1.0, SVG Export Plug-In . SVG Version: 6.00 Build 0)  -->
<svg version="1.1" id="BG_logo" xmlns="http://www.w3.org/2000/svg" xmlns:xlink="http://www.w3.org/1999/xlink" x="0px" y="0px"
	 viewBox="0 0 2036 484" style="enable-background:new 0 0 2036 484;" xml:space="preserve">
<style type="text/css">
	.st0{fill:#F9F9F9;}
</style>
<g>
	<g>
		<g>
			<path class="st0" d="M204.5,147.4h-39.1c-11.6,0-21,9.4-21,21v142.6c0,11.6,9.4,21,21,21h39.1c11.6,0,21-9.4,21-21V168.4
				C225.4,156.8,216.1,147.4,204.5,147.4z"/>
		</g>
		<path class="st0" d="M315.1,442.9H276c-11.6,0-20.9-9.4-20.9-20.9v-39.1c0-11.6,9.4-20.9,20.9-20.9h39.1c11.6,0,21,9.4,21,20.9
			v39.1C336,433.5,326.6,442.9,315.1,442.9z"/>
		<path class="st0" d="M204.5,361.9h-69.1c-11.6,0-20.9-9.4-20.9-21V57.4c0-11.6-9.4-21-20.9-21H54.4c-11.6,0-21,9.4-21,21v364.6
			c0,11.6,9.4,21,21,21h60v0h90c11.6,0,20.9-9.4,20.9-21v-39.1C225.4,371.3,216.1,361.9,204.5,361.9z"/>
		<path class="st0" d="M144.9,57.4v39.1c0,11.6,9.4,20.9,20.9,20.9h68.2c11.6,0,20.9,9.4,20.9,21v172.6c0,11.6,9.4,21,21,21H315
			c11.6,0,21-9.4,21-21V57.4c0-11.6-9.4-21-21-21H165.8C154.3,36.4,144.9,45.8,144.9,57.4z"/>
	</g>
	<g>
		<g>
			<path class="st0" d="M466.4,226.2c-6.4,0-11.2-1.7-14.5-5c-3.3-3.3-5-8.1-5-14.3V102.5c0-6.2,1.7-11,5-14.3c3.3-3.3,8.1-5,14.5-5
				h49.5c10.3,0,19,1.5,26.3,4.6c7.2,3,12.7,7.3,16.5,12.9c3.8,5.5,5.7,12,5.7,19.5c0,8.4-2.4,15.5-7.2,21.5
				c-4.8,5.9-11.3,10-19.6,12.2v-3.2c9.7,1.8,17.3,5.7,22.6,11.8c5.3,6.1,8,13.9,8,23.3c0,12.6-4.5,22.5-13.5,29.7
				c-9,7.2-21.3,10.8-36.8,10.8H466.4z M482.6,140h26.6c6.8,0,11.7-1.2,14.9-3.6c3.2-2.4,4.8-6.1,4.8-11.2c0-5-1.6-8.7-4.8-11
				c-3.2-2.4-8.1-3.5-14.9-3.5h-26.6V140z M482.6,198.8h30.2c6.9,0,11.9-1.3,15.1-4c3.2-2.6,4.8-6.6,4.8-11.9s-1.6-9.2-4.8-11.8
				c-3.2-2.6-8.2-3.9-15.1-3.9h-30.2V198.8z"/>
			<path class="st0" d="M615.8,264.5c-4.2,0-7.6-1.1-10.1-3.2c-2.6-2.2-4.2-5-4.8-8.5c-0.6-3.5,0-7.2,1.7-11.2l13.6-29.4v14.6
				l-34.7-79.3c-1.8-4.1-2.3-7.8-1.7-11.4c0.6-3.5,2.4-6.3,5.4-8.4c3-2.1,7-3.1,12.2-3.1c4.3,0,7.8,1,10.4,2.9c2.6,2,5,5.8,7.2,11.5
				l20.3,52.7h-6.9l21.5-52.9c2.2-5.5,4.6-9.3,7.4-11.3c2.8-2,6.5-2.9,11.3-2.9c4.1,0,7.3,1,9.7,3.1c2.4,2.1,3.9,4.9,4.5,8.4
				c0.5,3.5-0.1,7.3-1.8,11.4l-46,103.4c-2.4,5.4-5.1,9-8,10.8C624,263.6,620.3,264.5,615.8,264.5z"/>
			<path class="st0" d="M715,228c-5.9,0-10.5-1.6-13.7-4.7c-3.2-3.1-4.8-7.6-4.8-13.6v-67.1c0-5.8,1.5-10.3,4.6-13.4
				c3-3.1,7.4-4.7,13.1-4.7c5.7,0,10,1.6,13,4.7c3,3.1,4.5,7.6,4.5,13.4v8.3h-2c1.3-8.1,4.8-14.5,10.4-19.3c5.6-4.7,12.6-7.2,21-7.5
				c3.9-0.1,6.9,0.8,8.8,2.9c2,2.1,3,6,3.1,11.7c0,4.9-1,8.7-3,11.6c-2,2.8-5.9,4.5-11.6,5.1l-4.7,0.4c-7.2,0.7-12.4,2.7-15.6,6
				c-3.2,3.3-4.9,8.2-4.9,14.7v33.2c0,5.9-1.6,10.5-4.7,13.6C725.4,226.4,720.9,228,715,228z"/>
			<path class="st0" d="M833.2,228.4c-11.1,0-20.7-2.1-29-6.3c-8.2-4.2-14.7-10.2-19.3-18c-4.6-7.8-6.9-17.1-6.9-27.8
				c0-8.1,1.3-15.4,3.9-21.8c2.6-6.4,6.3-11.9,11.2-16.4c4.9-4.5,10.7-8,17.4-10.3c6.8-2.4,14.3-3.5,22.7-3.5
				c11.1,0,20.7,2.1,29,6.3c8.2,4.2,14.6,10.2,19.2,17.9c4.5,7.8,6.8,17.1,6.8,27.9c0,8-1.3,15.2-3.9,21.7c-2.6,6.5-6.3,12-11,16.5
				c-4.8,4.5-10.6,8-17.4,10.3C848.9,227.2,841.4,228.4,833.2,228.4z M833.2,201.8c3.6,0,6.9-0.9,9.7-2.7c2.8-1.8,5-4.6,6.6-8.3
				c1.6-3.7,2.3-8.5,2.3-14.5c0-9.1-1.8-15.6-5.3-19.6c-3.5-4-8-6-13.4-6c-3.6,0-6.9,0.9-9.7,2.6c-2.8,1.8-5.1,4.5-6.7,8.2
				c-1.6,3.7-2.4,8.6-2.4,14.7c0,8.9,1.8,15.4,5.3,19.5C823.1,199.8,827.6,201.8,833.2,201.8z"/>
			<path class="st0" d="M922.6,228c-5.7,0-10.1-1.6-13.2-4.7c-3.1-3.1-4.7-7.6-4.7-13.6v-67.1c0-5.8,1.5-10.3,4.6-13.4
				c3-3.1,7.4-4.7,13.1-4.7c5.7,0,10,1.6,13,4.7c3,3.1,4.5,7.6,4.5,13.4v9.5l-2.2-8.3c3.2-6.4,7.9-11.2,13.9-14.6
				c6-3.4,12.9-5.1,20.6-5.1c8,0,14.5,1.5,19.7,4.6c5.1,3,9,7.8,11.6,14.2c2.6,6.4,3.9,14.5,3.9,24.2v42.6c0,5.9-1.6,10.5-4.7,13.6
				c-3.1,3.1-7.6,4.7-13.4,4.7c-5.8,0-10.3-1.6-13.4-4.7c-3.1-3.1-4.7-7.6-4.7-13.6v-41.2c0-6.1-1-10.4-3.1-13
				c-2.1-2.6-5.2-3.9-9.2-3.9c-5.4,0-9.7,1.7-13,5.2c-3.2,3.4-4.9,8.1-4.9,13.9v38.9C940.8,221.9,934.7,228,922.6,228z"/>
			<path class="st0" d="M1161,228.4c-16.4,0-30.2-3-41.7-9.1c-11.4-6.1-20.1-14.6-26.1-25.5c-5.9-10.9-8.9-23.7-8.9-38.3
				c0-11.4,1.8-21.6,5.4-30.7c3.6-9.1,8.7-17,15.5-23.5c6.8-6.6,15-11.6,24.8-15c9.8-3.4,20.9-5.2,33.4-5.2c6.8,0,13.6,0.6,20.7,1.9
				c7,1.3,13.9,3.7,20.7,7.2c3.5,1.6,5.9,3.9,7.2,6.8c1.3,2.9,1.7,5.9,1.2,9.1c-0.5,3.2-1.6,6.1-3.4,8.7c-1.8,2.6-4.3,4.4-7.4,5.3
				c-3.1,0.9-6.6,0.4-10.5-1.3c-4.1-1.9-8.4-3.3-13.2-4.4c-4.7-1-9.7-1.5-15-1.5c-9.1,0-16.6,1.6-22.6,4.9c-6,3.2-10.5,8-13.5,14.4
				c-3,6.4-4.5,14.1-4.5,23.3c0,13.8,3.4,24.2,10.1,31.2c6.8,7,16.8,10.5,30,10.5c4.1,0,8.5-0.4,13.3-1.2c4.8-0.8,9.6-2,14.5-3.4
				l-6.9,14v-34.7h-14.2c-4.6,0-8.1-1.1-10.6-3.4c-2.5-2.3-3.8-5.5-3.8-9.7c0-4.2,1.2-7.4,3.8-9.6c2.5-2.2,6-3.3,10.6-3.3h30
				c4.7,0,8.3,1.3,10.8,3.8c2.5,2.5,3.8,6.1,3.8,10.8v44.8c0,4.1-0.8,7.5-2.5,10.3c-1.7,2.8-4.4,4.9-8,6.1
				c-6.4,2.2-13.2,3.9-20.7,5.1C1175.9,227.8,1168.4,228.4,1161,228.4z"/>
			<path class="st0" d="M1287.5,228.4c-11.1,0-20.7-2.1-29-6.3c-8.2-4.2-14.7-10.2-19.3-18c-4.6-7.8-6.9-17.1-6.9-27.8
				c0-8.1,1.3-15.4,3.9-21.8c2.6-6.4,6.3-11.9,11.2-16.4c4.9-4.5,10.7-8,17.4-10.3c6.8-2.4,14.3-3.5,22.7-3.5
				c11.1,0,20.7,2.1,29,6.3c8.2,4.2,14.6,10.2,19.2,17.9c4.5,7.8,6.8,17.1,6.8,27.9c0,8-1.3,15.2-3.9,21.7c-2.6,6.5-6.3,12-11,16.5
				c-4.8,4.5-10.6,8-17.4,10.3C1303.3,227.2,1295.7,228.4,1287.5,228.4z M1287.5,201.8c3.6,0,6.9-0.9,9.7-2.7c2.8-1.8,5-4.6,6.6-8.3
				c1.6-3.7,2.3-8.5,2.3-14.5c0-9.1-1.8-15.6-5.3-19.6c-3.5-4-8-6-13.4-6c-3.6,0-6.9,0.9-9.7,2.6c-2.8,1.8-5.1,4.5-6.7,8.2
				c-1.6,3.7-2.4,8.6-2.4,14.7c0,8.9,1.8,15.4,5.3,19.5C1277.4,199.8,1282,201.8,1287.5,201.8z"/>
			<path class="st0" d="M1376.9,228c-5.7,0-10.1-1.6-13.2-4.7c-3.1-3.1-4.7-7.6-4.7-13.6v-67.1c0-5.8,1.5-10.3,4.6-13.4
				c3-3.1,7.4-4.7,13.1-4.7c5.7,0,10,1.6,13,4.7c3,3.1,4.5,7.6,4.5,13.4v9.5l-2.2-8.3c3.2-6.4,7.9-11.2,13.9-14.6
				c6-3.4,12.9-5.1,20.6-5.1c8,0,14.5,1.5,19.7,4.6c5.1,3,9,7.8,11.6,14.2c2.6,6.4,3.9,14.5,3.9,24.2v42.6c0,5.9-1.6,10.5-4.7,13.6
				c-3.1,3.1-7.6,4.7-13.4,4.7c-5.8,0-10.3-1.6-13.4-4.7c-3.1-3.1-4.7-7.6-4.7-13.6v-41.2c0-6.1-1-10.4-3.1-13
				c-2.1-2.6-5.2-3.9-9.2-3.9c-5.4,0-9.7,1.7-13,5.2c-3.2,3.4-4.9,8.1-4.9,13.9v38.9C1395.2,221.9,1389.1,228,1376.9,228z"/>
			<path class="st0" d="M1492.9,226.2c-3.6,0-6.6-0.9-8.9-2.7c-2.3-1.8-3.9-4.2-4.7-7c-0.8-2.8-0.8-5.9,0.1-9.2
				c0.9-3.3,2.6-6.4,5.2-9.2l47-53.1v8.1h-40.1c-4.3,0-7.6-1.1-9.9-3.4c-2.3-2.3-3.4-5.6-3.4-9.9c0-4.3,1.1-7.6,3.4-9.8
				c2.3-2.2,5.6-3.3,9.9-3.3h57.4c4.1,0,7.4,0.9,9.9,2.7c2.6,1.8,4.3,4.2,5.2,7c0.9,2.8,0.9,5.9,0.1,9.1c-0.8,3.2-2.5,6.3-5.1,9.1
				l-48.3,54.5v-9.3h43.2c9.1,0,13.6,4.4,13.6,13.2c0,4.3-1.1,7.6-3.4,9.9c-2.3,2.3-5.7,3.4-10.1,3.4H1492.9z"/>
			<path class="st0" d="M1614.3,228.4c-7.7,0-14.5-1.4-20.4-4.3c-5.9-2.8-10.5-6.7-13.8-11.7c-3.3-4.9-5-10.6-5-16.9
				c0-7.3,1.9-13,5.7-17.2c3.8-4.2,9.9-7.2,18.2-9c8.4-1.8,19.5-2.7,33.5-2.7h11.2v17h-11.2c-5.3,0-9.6,0.4-13.1,1.1
				c-3.4,0.7-6,1.9-7.6,3.4c-1.6,1.6-2.4,3.5-2.4,6c0,3.1,1.1,5.7,3.3,7.7c2.2,2,5.4,3,9.6,3c3.4,0,6.4-0.7,9-2.2
				c2.6-1.5,4.8-3.5,6.4-6.2c1.6-2.6,2.4-5.7,2.4-9.2v-23.5c0-4.9-1.3-8.3-3.8-10.3c-2.5-2-6.8-3-12.9-3c-3.2,0-6.9,0.4-10.9,1.1
				c-4.1,0.7-8.6,2.1-13.6,4c-3.6,1.4-6.8,1.6-9.3,0.6c-2.6-0.9-4.6-2.6-6-4.9c-1.4-2.3-2.1-4.8-2-7.5c0.1-2.7,0.9-5.3,2.6-7.7
				c1.7-2.4,4.3-4.3,7.8-5.7c6.5-2.4,12.5-4.1,17.9-4.9c5.5-0.8,10.5-1.2,15.1-1.2c11.1,0,20.2,1.6,27.5,4.8
				c7.2,3.2,12.6,8,16.2,14.6c3.6,6.6,5.4,15,5.4,25.2v41c0,5.9-1.4,10.5-4.3,13.6c-2.8,3.1-7,4.7-12.4,4.7c-5.5,0-9.8-1.6-12.7-4.7
				c-2.9-3.1-4.4-7.6-4.4-13.6v-5.3l1.2,2.8c-0.7,4.3-2.2,8-4.7,11.2c-2.4,3.1-5.6,5.5-9.5,7.3
				C1623.8,227.5,1619.3,228.4,1614.3,228.4z"/>
			<path class="st0" d="M1732.7,228.4c-13,0-22.5-3.5-28.7-10.4c-6.2-7-9.2-17.5-9.2-31.5V99.6c0-5.9,1.6-10.5,4.7-13.6
				c3.1-3.1,7.5-4.7,13.2-4.7c5.8,0,10.3,1.6,13.5,4.7c3.2,3.1,4.8,7.6,4.8,13.6v85.6c0,5,1,8.7,2.9,10.9c2,2.3,4.5,3.4,7.6,3.4
				c0.9,0,1.9-0.1,2.9-0.3c1-0.2,2.1-0.4,3.3-0.5c2.3,0,4,0.9,5.2,2.6c1.1,1.8,1.7,5.3,1.7,10.7c0,4.7-0.9,8.3-2.8,10.6
				c-1.9,2.4-4.8,3.9-8.7,4.6c-1.1,0.1-2.6,0.3-4.7,0.6C1736.4,228.2,1734.5,228.4,1732.7,228.4z"/>
			<path class="st0" d="M1818.7,228.4c-12.2,0-22.7-2.1-31.5-6.4c-8.9-4.3-15.6-10.3-20.4-18.1c-4.7-7.8-7.1-17.1-7.1-27.8
				c0-10.3,2.3-19.3,6.8-27.1c4.5-7.8,10.7-13.9,18.7-18.2c7.9-4.4,16.9-6.6,27.1-6.6c7.4,0,14.2,1.2,20.3,3.5
				c6.1,2.4,11.3,5.8,15.6,10.3c4.3,4.5,7.6,10,9.8,16.3c2.2,6.4,3.3,13.5,3.3,21.3c0,2.7-0.7,4.7-2.2,6c-1.5,1.3-3.9,1.9-7.1,1.9
				h-62v-17h45l-3.2,2.6c0-5-0.7-9.1-2-12.2c-1.4-3.1-3.3-5.5-6-7.1c-2.6-1.6-5.9-2.4-9.8-2.4c-4.2,0-7.8,1-10.8,2.9
				c-3,2-5.4,4.8-7,8.6c-1.6,3.8-2.4,8.5-2.4,14.2v1.8c0,9.6,2.1,16.5,6.4,20.6c4.3,4.1,10.8,6.2,19.8,6.2c3,0,6.4-0.4,10.2-1.1
				c3.9-0.7,7.5-1.8,11.1-3.1c3.5-1.3,6.6-1.6,9.1-0.7c2.6,0.9,4.6,2.4,6,4.5c1.4,2.1,2.2,4.5,2.3,7.1c0.1,2.6-0.5,5.2-1.8,7.7
				c-1.4,2.5-3.6,4.4-6.7,5.8c-4.7,2.2-9.8,3.8-15.1,4.9C1829.5,227.8,1824.1,228.4,1818.7,228.4z"/>
			<path class="st0" d="M1885.4,226.2c-3.6,0-6.6-0.9-8.9-2.7c-2.3-1.8-3.9-4.2-4.7-7c-0.8-2.8-0.8-5.9,0.1-9.2
				c0.9-3.3,2.6-6.4,5.2-9.2l47-53.1v8.1H1884c-4.3,0-7.6-1.1-9.9-3.4c-2.3-2.3-3.4-5.6-3.4-9.9c0-4.3,1.1-7.6,3.4-9.8
				c2.3-2.2,5.6-3.3,9.9-3.3h57.4c4.1,0,7.4,0.9,9.9,2.7c2.6,1.8,4.3,4.2,5.2,7c0.9,2.8,0.9,5.9,0.1,9.1c-0.8,3.2-2.5,6.3-5.1,9.1
				l-48.3,54.5v-9.3h43.2c9.1,0,13.6,4.4,13.6,13.2c0,4.3-1.1,7.6-3.4,9.9c-2.3,2.3-5.7,3.4-10.1,3.4H1885.4z"/>
		</g>
		<g>
			<path class="st0" d="M485.4,375.9c-1.2,0-2-0.4-2.7-1.1c-0.6-0.7-0.9-1.7-0.9-2.9v-77.6h-27.6c-1.1,0-1.9-0.3-2.5-1
				c-0.6-0.7-0.9-1.5-0.9-2.5c0-1.1,0.3-1.9,0.9-2.5c0.6-0.6,1.5-0.9,2.5-0.9h62.6c1.1,0,1.9,0.3,2.5,0.9c0.6,0.6,0.9,1.4,0.9,2.5
				c0,1.1-0.3,1.9-0.9,2.5c-0.6,0.6-1.4,0.9-2.5,0.9H489V372c0,1.2-0.3,2.2-0.9,2.9C487.6,375.6,486.7,375.9,485.4,375.9z"/>
			<path class="st0" d="M544.7,376.2c-5.8,0-10.8-1.2-14.9-3.7c-4.2-2.5-7.4-6.1-9.6-10.7c-2.2-4.6-3.4-10.2-3.4-16.5
				c0-6.3,1.1-11.8,3.4-16.5c2.2-4.7,5.3-8.4,9.3-11c4-2.7,8.5-4,13.7-4c3.8,0,7.1,0.7,10,2.1c2.9,1.4,5.4,3.3,7.4,5.8
				c2,2.5,3.6,5.6,4.7,9.2c1.1,3.6,1.6,7.7,1.6,12.3c0,1.2-0.3,2-0.9,2.6c-0.6,0.6-1.4,0.9-2.4,0.9h-41.8V341h40.6l-1.9,1.6
				c0-4.8-0.7-8.9-2-12.3c-1.3-3.4-3.3-5.9-5.8-7.8c-2.6-1.8-5.8-2.7-9.5-2.7c-4.2,0-7.8,1.1-10.8,3.2c-2.9,2.1-5.1,5-6.6,8.7
				c-1.5,3.7-2.2,7.9-2.2,12.7v0.6c0,8,1.8,14.1,5.4,18.3c3.6,4.3,8.7,6.4,15.3,6.4c2.9,0,5.6-0.4,8.3-1.2c2.7-0.8,5.3-2.2,7.8-4.2
				c0.8-0.6,1.5-0.9,2.3-0.9c0.7,0,1.3,0.2,1.9,0.6c0.5,0.4,0.8,0.9,1,1.6c0.2,0.6,0.2,1.3-0.1,2c-0.3,0.7-0.8,1.3-1.6,1.9
				c-2.5,2.2-5.4,3.8-8.9,4.9C551.6,375.6,548.1,376.2,544.7,376.2z"/>
			<path class="st0" d="M604.1,376.2c-5.5,0-10.2-1.3-14.1-3.9c-3.9-2.6-7-6.3-9.1-11.1c-2.1-4.8-3.2-10.3-3.2-16.6
				c0-4.8,0.6-9.1,1.8-12.9c1.2-3.8,2.9-7,5.2-9.6c2.3-2.7,5-4.7,8.3-6.2c3.3-1.5,7-2.2,11-2.2c2.9,0,5.8,0.5,8.8,1.6
				c3,1,5.7,2.8,8.2,5.2c0.5,0.5,0.9,1.1,1,1.7c0.2,0.7,0.1,1.3-0.1,1.9c-0.2,0.6-0.6,1.1-1,1.5c-0.5,0.4-1,0.6-1.7,0.6
				c-0.7,0-1.3-0.3-2-0.9c-2.2-1.9-4.3-3.2-6.5-3.9c-2.2-0.7-4.3-1.1-6.4-1.1c-3.2,0-5.9,0.5-8.3,1.6c-2.4,1.1-4.4,2.7-6.1,4.7
				c-1.7,2.1-2.9,4.6-3.8,7.6c-0.8,3-1.3,6.5-1.3,10.4c0,7.8,1.7,13.9,5,18.3c3.4,4.4,8.2,6.7,14.4,6.7c2.1,0,4.2-0.4,6.4-1.1
				c2.2-0.7,4.4-2,6.5-3.9c0.7-0.7,1.4-1,2-0.9c0.7,0,1.2,0.2,1.7,0.6c0.5,0.4,0.8,0.9,1,1.5c0.2,0.6,0.2,1.3,0.1,1.9
				c-0.2,0.7-0.5,1.2-1,1.7c-2.4,2.4-5.1,4.1-8.1,5.1C609.9,375.7,607,376.2,604.1,376.2z"/>
			<path class="st0" d="M637.9,375.9c-1.2,0-2-0.3-2.7-1c-0.6-0.7-0.9-1.6-0.9-2.9v-81.5c0-1.3,0.3-2.3,0.9-2.9
				c0.6-0.6,1.5-0.9,2.7-0.9c1.1,0,1.9,0.3,2.5,0.9c0.6,0.6,0.9,1.6,0.9,2.9v38.3H640c1.5-5,4.2-8.7,7.9-11.3
				c3.7-2.6,8-3.9,12.9-3.9c4.5,0,8.2,0.9,11.2,2.6c3,1.7,5.2,4.4,6.7,7.8c1.5,3.5,2.2,7.8,2.2,12.9v35c0,1.2-0.3,2.2-0.9,2.9
				c-0.6,0.7-1.5,1-2.5,1c-1.2,0-2-0.3-2.7-1c-0.6-0.7-0.9-1.6-0.9-2.9v-34.3c0-6.1-1.1-10.5-3.4-13.2c-2.2-2.8-5.8-4.2-10.6-4.2
				c-5.6,0-10,1.8-13.4,5.5c-3.4,3.7-5,8.6-5,14.9v31.3C641.4,374.6,640.2,375.9,637.9,375.9z"/>
			<path class="st0" d="M702.7,375.9c-1.2,0-2-0.3-2.7-1c-0.6-0.7-0.9-1.6-0.9-2.9V318c0-1.3,0.3-2.3,0.9-3c0.6-0.7,1.5-1,2.7-1
				c1.1,0,1.9,0.3,2.5,1c0.6,0.7,0.9,1.7,0.9,3v11.7l-1.3-0.7c1.5-5,4.2-8.7,7.9-11.3c3.7-2.6,8-3.9,12.9-3.9
				c4.5,0,8.2,0.9,11.2,2.5c3,1.7,5.2,4.3,6.7,7.8c1.5,3.5,2.2,7.8,2.2,13.1v35c0,1.2-0.3,2.2-0.9,2.9c-0.6,0.7-1.5,1-2.5,1
				c-1.2,0-2-0.3-2.7-1c-0.6-0.7-0.9-1.6-0.9-2.9v-34.3c0-6.1-1.1-10.5-3.4-13.2c-2.2-2.8-5.8-4.2-10.6-4.2c-5.6,0-10,1.8-13.4,5.5
				c-3.4,3.7-5,8.6-5,14.9v31.3C706.2,374.6,705,375.9,702.7,375.9z"/>
			<path class="st0" d="M767.5,299.3c-1.6,0-2.9-0.5-3.8-1.4c-0.9-0.9-1.3-2.2-1.3-3.9c0-1.7,0.4-2.9,1.3-3.8
				c0.9-0.9,2.1-1.3,3.8-1.3c1.6,0,2.9,0.4,3.8,1.3c0.9,0.9,1.3,2.1,1.3,3.8c0,1.7-0.4,2.9-1.3,3.9
				C770.3,298.9,769.1,299.3,767.5,299.3z M767.5,375.7c-1.2,0-2-0.4-2.7-1.1c-0.6-0.7-0.9-1.7-0.9-3v-53.2c0-1.3,0.3-2.3,0.9-3
				c0.6-0.7,1.5-1,2.7-1c1.1,0,1.9,0.3,2.5,1c0.6,0.7,0.9,1.7,0.9,3v53.2c0,1.2-0.3,2.2-0.9,3C769.5,375.3,768.6,375.7,767.5,375.7z
				"/>
			<path class="st0" d="M812.5,376.2c-5.5,0-10.2-1.3-14.1-3.9c-3.9-2.6-7-6.3-9.1-11.1c-2.1-4.8-3.2-10.3-3.2-16.6
				c0-4.8,0.6-9.1,1.8-12.9c1.2-3.8,2.9-7,5.2-9.6c2.3-2.7,5-4.7,8.3-6.2c3.3-1.5,7-2.2,11-2.2c2.9,0,5.8,0.5,8.8,1.6
				c3,1,5.7,2.8,8.2,5.2c0.5,0.5,0.9,1.1,1,1.7c0.2,0.7,0.1,1.3-0.1,1.9s-0.6,1.1-1,1.5c-0.5,0.4-1,0.6-1.7,0.6
				c-0.7,0-1.3-0.3-2-0.9c-2.2-1.9-4.3-3.2-6.5-3.9c-2.2-0.7-4.3-1.1-6.4-1.1c-3.2,0-5.9,0.5-8.3,1.6c-2.4,1.1-4.4,2.7-6.1,4.7
				c-1.7,2.1-2.9,4.6-3.8,7.6c-0.8,3-1.3,6.5-1.3,10.4c0,7.8,1.7,13.9,5,18.3c3.4,4.4,8.2,6.7,14.4,6.7c2.1,0,4.2-0.4,6.4-1.1
				c2.2-0.7,4.4-2,6.5-3.9c0.7-0.7,1.4-1,2-0.9c0.7,0,1.2,0.2,1.7,0.6c0.5,0.4,0.8,0.9,1,1.5c0.2,0.6,0.2,1.3,0.1,1.9
				c-0.2,0.7-0.5,1.2-1,1.7c-2.4,2.4-5.1,4.1-8.1,5.1C818.2,375.7,815.3,376.2,812.5,376.2z"/>
			<path class="st0" d="M859.4,376.2c-3.8,0-7.2-0.8-10.1-2.4c-3-1.6-5.3-3.7-7.1-6.5c-1.7-2.7-2.6-5.8-2.6-9.2c0-4.5,1-8,3.1-10.6
				c2.1-2.6,5.6-4.4,10.5-5.4c4.9-1,11.7-1.6,20.4-1.6h5v5.6h-4.9c-6.9,0-12.4,0.3-16.3,0.9c-3.9,0.6-6.6,1.8-8.2,3.4
				c-1.5,1.7-2.3,4-2.3,7c0,3.7,1.2,6.8,3.6,9.1c2.4,2.3,5.6,3.5,9.7,3.5c3.3,0,6.2-0.8,8.7-2.5c2.5-1.7,4.5-4,6-7
				c1.5-3,2.2-6.4,2.2-10.2v-14.2c0-5.6-1-9.6-3.1-12.1c-2.1-2.5-5.4-3.8-9.9-3.8c-2.9,0-5.8,0.4-8.5,1.2c-2.7,0.8-5.6,2.2-8.7,4
				c-0.9,0.5-1.6,0.7-2.3,0.5c-0.7-0.2-1.2-0.5-1.5-1c-0.3-0.5-0.6-1.1-0.7-1.8c-0.1-0.7,0-1.4,0.3-2.1c0.3-0.7,0.8-1.2,1.6-1.6
				c3.2-1.9,6.5-3.3,9.9-4.3c3.4-1,6.6-1.4,9.8-1.4c4.5,0,8.3,0.8,11.3,2.5c3,1.7,5.2,4.1,6.6,7.5c1.4,3.3,2.1,7.6,2.1,12.8v35.6
				c0,1.2-0.3,2.2-0.8,2.9c-0.5,0.7-1.4,1-2.4,1c-1.1,0-1.9-0.3-2.5-1c-0.6-0.7-0.9-1.6-0.9-2.9v-11.4h1.2c-0.7,3.2-1.9,6-3.7,8.3
				c-1.8,2.3-4,4.1-6.6,5.3C865.6,375.6,862.7,376.2,859.4,376.2z"/>
			<path class="st0" d="M918.6,376.2c-5.2,0-9.2-1.7-12-5.2c-2.8-3.5-4.2-8.4-4.2-14.8v-65.5c0-1.3,0.3-2.3,0.9-2.9
				c0.6-0.6,1.5-0.9,2.7-0.9c1.1,0,1.9,0.3,2.5,0.9c0.6,0.6,0.9,1.6,0.9,2.9v64.7c0,4.8,0.9,8.4,2.7,10.8c1.8,2.4,4.4,3.5,7.7,3.5
				c0.8,0,1.4,0,2-0.1c0.5-0.1,1.1-0.1,1.6-0.1c0.7-0.1,1.2,0.1,1.6,0.4c0.3,0.4,0.5,1.1,0.5,2.3c0,1.2-0.3,2-0.8,2.6
				c-0.5,0.6-1.4,1-2.7,1.2c-0.5,0.1-1.1,0.1-1.7,0.2C919.9,376.2,919.3,376.2,918.6,376.2z"/>
			<path class="st0" d="M969.9,375.2c-1.2,0-2.2-0.4-2.9-1.1c-0.7-0.7-1-1.8-1-3.2v-79c0-1.4,0.3-2.5,1-3.2c0.7-0.7,1.7-1.1,2.9-1.1
				h27.2c5.6,0,10.4,0.9,14.2,2.7c3.9,1.8,6.8,4.4,8.9,7.8c2.1,3.4,3.1,7.6,3.1,12.6c0,5.5-1.5,10-4.6,13.7c-3,3.6-7.2,6.1-12.3,7.2
				v-1.7c5.8,0.7,10.4,2.9,13.7,6.7c3.4,3.8,5,8.8,5,15c0,7.8-2.3,13.7-6.9,17.8c-4.6,4.1-11.2,6.1-19.7,6.1H969.9z M972.9,327.5
				h23.4c6.5,0,11.4-1.4,14.8-4.3c3.4-2.9,5.1-7,5.1-12.5s-1.7-9.6-5.1-12.5c-3.4-2.9-8.3-4.3-14.8-4.3h-23.4V327.5z M972.9,368.7
				H998c6.7,0,11.7-1.4,15-4.3c3.3-2.9,5-7.2,5-13c0-6-1.7-10.4-5-13.2c-3.3-2.8-8.3-4.2-15-4.2h-25.1V368.7z"/>
			<path class="st0" d="M1062,376.2c-4.5,0-8.2-0.9-11.2-2.6c-3-1.7-5.2-4.4-6.7-7.8c-1.5-3.5-2.2-7.8-2.2-12.9V318
				c0-1.3,0.3-2.3,0.9-3c0.6-0.7,1.5-1,2.7-1c1.1,0,1.9,0.3,2.5,1c0.6,0.7,0.9,1.7,0.9,3v34.5c0,5.8,1.1,10.1,3.4,13
				c2.2,2.9,5.7,4.3,10.5,4.3c5.2,0,9.5-1.9,12.7-5.7c3.2-3.8,4.9-8.7,4.9-14.9V318c0-1.3,0.3-2.3,0.9-3c0.6-0.7,1.5-1,2.7-1
				c1.1,0,1.9,0.3,2.5,1c0.6,0.7,0.9,1.7,0.9,3v54.1c0,2.6-1.1,3.9-3.4,3.9c-1.1,0-1.9-0.3-2.5-1c-0.6-0.7-0.9-1.6-0.9-2.9v-12.3
				l1.4,0.9c-1.5,5.1-4,8.9-7.6,11.6C1070.8,374.9,1066.7,376.2,1062,376.2z"/>
			<path class="st0" d="M1124.4,376.2c-3.5,0-6.9-0.5-10.4-1.5c-3.4-1-6.7-2.7-9.8-5.1c-0.6-0.4-1-0.9-1.2-1.6
				c-0.2-0.6-0.2-1.3-0.1-1.9c0.1-0.7,0.4-1.2,0.8-1.7c0.4-0.5,0.9-0.7,1.6-0.8c0.6-0.1,1.3,0.1,2,0.6c3,2.2,5.9,3.6,8.8,4.5
				c2.9,0.8,5.7,1.2,8.6,1.2c4.7,0,8.3-1,10.8-2.9c2.5-1.9,3.7-4.5,3.7-7.7c0-2.7-0.8-4.7-2.4-6.2c-1.6-1.5-4.1-2.6-7.7-3.5
				l-10.1-2.5c-4.9-1.2-8.4-3-10.8-5.7c-2.3-2.6-3.5-6-3.5-10.1c0-3.6,0.9-6.7,2.6-9.3c1.7-2.7,4.2-4.7,7.4-6.2
				c3.2-1.5,6.9-2.2,11-2.2c3.4,0,6.6,0.5,9.7,1.6c3.1,1.1,5.8,2.7,8.1,5c0.6,0.5,1,1.1,1.2,1.7c0.2,0.7,0.2,1.3,0,1.9
				c-0.2,0.6-0.5,1.1-1,1.6c-0.5,0.4-1,0.6-1.6,0.6c-0.6,0-1.3-0.2-2-0.7c-2.2-1.8-4.6-3.2-7.1-4c-2.5-0.9-5-1.3-7.5-1.3
				c-4.5,0-7.9,1-10.4,3c-2.4,2-3.6,4.7-3.6,8.1c0,2.6,0.8,4.6,2.3,6.2c1.5,1.6,3.9,2.8,7.1,3.6l10.1,2.5c5,1.2,8.8,3.1,11.2,5.5
				c2.5,2.4,3.7,5.7,3.7,9.9c0,5.3-1.9,9.5-5.8,12.6C1136.3,374.6,1131.1,376.2,1124.4,376.2z"/>
			<path class="st0" d="M1165,299.3c-1.6,0-2.9-0.5-3.8-1.4c-0.9-0.9-1.3-2.2-1.3-3.9c0-1.7,0.4-2.9,1.3-3.8
				c0.9-0.9,2.1-1.3,3.8-1.3c1.6,0,2.9,0.4,3.8,1.3c0.9,0.9,1.3,2.1,1.3,3.8c0,1.7-0.4,2.9-1.3,3.9
				C1167.9,298.9,1166.6,299.3,1165,299.3z M1165,375.7c-1.2,0-2-0.4-2.7-1.1c-0.6-0.7-0.9-1.7-0.9-3v-53.2c0-1.3,0.3-2.3,0.9-3
				c0.6-0.7,1.5-1,2.7-1c1.1,0,1.9,0.3,2.5,1c0.6,0.7,0.9,1.7,0.9,3v53.2c0,1.2-0.3,2.2-0.9,3C1167.1,375.3,1166.2,375.7,1165,375.7
				z"/>
			<path class="st0" d="M1190.7,375.9c-1.2,0-2-0.3-2.7-1c-0.6-0.7-0.9-1.6-0.9-2.9V318c0-1.3,0.3-2.3,0.9-3c0.6-0.7,1.5-1,2.7-1
				c1.1,0,1.9,0.3,2.5,1c0.6,0.7,0.9,1.7,0.9,3v11.7l-1.3-0.7c1.5-5,4.2-8.7,7.9-11.3c3.7-2.6,8-3.9,12.9-3.9
				c4.5,0,8.2,0.9,11.2,2.5c3,1.7,5.2,4.3,6.7,7.8c1.5,3.5,2.2,7.8,2.2,13.1v35c0,1.2-0.3,2.2-0.9,2.9c-0.6,0.7-1.5,1-2.5,1
				c-1.2,0-2-0.3-2.7-1c-0.6-0.7-0.9-1.6-0.9-2.9v-34.3c0-6.1-1.1-10.5-3.4-13.2c-2.2-2.8-5.8-4.2-10.6-4.2c-5.6,0-10,1.8-13.4,5.5
				c-3.4,3.7-5,8.6-5,14.9v31.3C1194.2,374.6,1193,375.9,1190.7,375.9z"/>
			<path class="st0" d="M1276.3,376.2c-5.8,0-10.8-1.2-14.9-3.7c-4.2-2.5-7.4-6.1-9.6-10.7c-2.2-4.6-3.4-10.2-3.4-16.5
				c0-6.3,1.1-11.8,3.4-16.5c2.2-4.7,5.3-8.4,9.3-11c4-2.7,8.5-4,13.7-4c3.8,0,7.1,0.7,10,2.1c2.9,1.4,5.4,3.3,7.4,5.8
				c2,2.5,3.6,5.6,4.7,9.2c1.1,3.6,1.6,7.7,1.6,12.3c0,1.2-0.3,2-0.9,2.6c-0.6,0.6-1.4,0.9-2.4,0.9h-41.8V341h40.6l-1.9,1.6
				c0-4.8-0.7-8.9-2-12.3c-1.3-3.4-3.3-5.9-5.8-7.8c-2.6-1.8-5.8-2.7-9.5-2.7c-4.2,0-7.8,1.1-10.8,3.2c-2.9,2.1-5.1,5-6.6,8.7
				c-1.5,3.7-2.2,7.9-2.2,12.7v0.6c0,8,1.8,14.1,5.4,18.3c3.6,4.3,8.7,6.4,15.3,6.4c2.9,0,5.6-0.4,8.3-1.2c2.7-0.8,5.3-2.2,7.8-4.2
				c0.8-0.6,1.5-0.9,2.3-0.9c0.7,0,1.3,0.2,1.9,0.6c0.5,0.4,0.8,0.9,1,1.6c0.2,0.6,0.2,1.3-0.1,2c-0.3,0.7-0.8,1.3-1.6,1.9
				c-2.5,2.2-5.4,3.8-8.9,4.9C1283.2,375.6,1279.8,376.2,1276.3,376.2z"/>
			<path class="st0" d="M1331.1,376.2c-3.5,0-6.9-0.5-10.4-1.5c-3.4-1-6.7-2.7-9.8-5.1c-0.6-0.4-1-0.9-1.2-1.6
				c-0.2-0.6-0.2-1.3-0.1-1.9c0.1-0.7,0.4-1.2,0.8-1.7c0.4-0.5,0.9-0.7,1.6-0.8c0.6-0.1,1.3,0.1,2,0.6c3,2.2,5.9,3.6,8.8,4.5
				c2.9,0.8,5.7,1.2,8.6,1.2c4.7,0,8.3-1,10.8-2.9c2.5-1.9,3.7-4.5,3.7-7.7c0-2.7-0.8-4.7-2.4-6.2c-1.6-1.5-4.1-2.6-7.7-3.5
				l-10.1-2.5c-4.9-1.2-8.4-3-10.8-5.7c-2.3-2.6-3.5-6-3.5-10.1c0-3.6,0.9-6.7,2.6-9.3c1.7-2.7,4.2-4.7,7.4-6.2
				c3.2-1.5,6.9-2.2,11-2.2c3.4,0,6.6,0.5,9.7,1.6c3.1,1.1,5.8,2.7,8.1,5c0.6,0.5,1,1.1,1.2,1.7c0.2,0.7,0.2,1.3,0,1.9
				c-0.2,0.6-0.5,1.1-1,1.6c-0.5,0.4-1,0.6-1.6,0.6c-0.6,0-1.3-0.2-2-0.7c-2.2-1.8-4.6-3.2-7.1-4c-2.5-0.9-5-1.3-7.5-1.3
				c-4.5,0-7.9,1-10.4,3c-2.4,2-3.6,4.7-3.6,8.1c0,2.6,0.8,4.6,2.3,6.2c1.5,1.6,3.9,2.8,7.1,3.6l10.1,2.5c5,1.2,8.8,3.1,11.2,5.5
				c2.5,2.4,3.7,5.7,3.7,9.9c0,5.3-1.9,9.5-5.8,12.6C1343,374.6,1337.8,376.2,1331.1,376.2z"/>
			<path class="st0" d="M1386.4,376.2c-3.5,0-6.9-0.5-10.4-1.5c-3.4-1-6.7-2.7-9.8-5.1c-0.6-0.4-1-0.9-1.2-1.6
				c-0.2-0.6-0.2-1.3-0.1-1.9c0.1-0.7,0.4-1.2,0.8-1.7c0.4-0.5,0.9-0.7,1.6-0.8c0.6-0.1,1.3,0.1,2,0.6c3,2.2,5.9,3.6,8.8,4.5
				c2.9,0.8,5.7,1.2,8.6,1.2c4.7,0,8.3-1,10.8-2.9c2.5-1.9,3.7-4.5,3.7-7.7c0-2.7-0.8-4.7-2.4-6.2c-1.6-1.5-4.1-2.6-7.7-3.5
				l-10.1-2.5c-4.9-1.2-8.4-3-10.8-5.7c-2.3-2.6-3.5-6-3.5-10.1c0-3.6,0.9-6.7,2.6-9.3c1.7-2.7,4.2-4.7,7.4-6.2
				c3.2-1.5,6.9-2.2,11-2.2c3.4,0,6.6,0.5,9.7,1.6c3.1,1.1,5.8,2.7,8.1,5c0.6,0.5,1,1.1,1.2,1.7c0.2,0.7,0.2,1.3,0,1.9
				c-0.2,0.6-0.5,1.1-1,1.6c-0.5,0.4-1,0.6-1.6,0.6c-0.6,0-1.3-0.2-2-0.7c-2.2-1.8-4.6-3.2-7.1-4c-2.5-0.9-5-1.3-7.5-1.3
				c-4.5,0-7.9,1-10.4,3c-2.4,2-3.6,4.7-3.6,8.1c0,2.6,0.8,4.6,2.3,6.2c1.5,1.6,3.9,2.8,7.1,3.6l10.1,2.5c5,1.2,8.8,3.1,11.2,5.5
				c2.5,2.4,3.7,5.7,3.7,9.9c0,5.3-1.9,9.5-5.8,12.6C1398.3,374.6,1393.1,376.2,1386.4,376.2z"/>
			<path class="st0" d="M1451.1,375.9c-1,0-1.8-0.2-2.4-0.7c-0.6-0.5-0.9-1.1-0.9-1.9c0-0.8,0.1-1.7,0.5-2.7l32.5-80.4
				c0.5-1.2,1.2-2.1,2-2.7c0.8-0.5,1.5-0.8,2.3-0.8c0.9,0,1.8,0.3,2.5,0.8c0.7,0.5,1.3,1.4,1.8,2.7l32.5,80.4c0.5,1,0.7,1.9,0.6,2.7
				c0,0.8-0.3,1.5-0.8,1.9c-0.5,0.5-1.3,0.7-2.3,0.7c-1.1,0-1.9-0.3-2.6-0.9c-0.7-0.6-1.2-1.5-1.7-2.5l-8.9-22.5l3.8,1.9H1460
				l3.9-1.9l-8.9,22.5c-0.5,1.2-1,2.1-1.7,2.7C1452.7,375.7,1451.9,375.9,1451.1,375.9z M1485,297l-19.7,49.8l-2.7-1.5h44.8
				l-2.4,1.5l-19.8-49.8H1485z"/>
			<path class="st0" d="M1539.7,375.9c-1.2,0-2-0.3-2.7-1c-0.6-0.7-0.9-1.6-0.9-2.9V318c0-1.3,0.3-2.3,0.9-3c0.6-0.7,1.5-1,2.7-1
				c1.1,0,1.9,0.3,2.5,1c0.6,0.7,0.9,1.7,0.9,3v11.7l-1.3-0.7c1.5-5,4.2-8.7,7.9-11.3c3.7-2.6,8-3.9,12.9-3.9
				c4.5,0,8.2,0.9,11.2,2.5c3,1.7,5.2,4.3,6.7,7.8c1.5,3.5,2.2,7.8,2.2,13.1v35c0,1.2-0.3,2.2-0.9,2.9c-0.6,0.7-1.5,1-2.5,1
				c-1.2,0-2-0.3-2.7-1c-0.6-0.7-0.9-1.6-0.9-2.9v-34.3c0-6.1-1.1-10.5-3.4-13.2c-2.2-2.8-5.8-4.2-10.6-4.2c-5.6,0-10,1.8-13.4,5.5
				c-3.4,3.7-5,8.6-5,14.9v31.3C1543.2,374.6,1542,375.9,1539.7,375.9z"/>
			<path class="st0" d="M1618.2,376.2c-3.8,0-7.2-0.8-10.1-2.4c-3-1.6-5.3-3.7-7.1-6.5c-1.7-2.7-2.6-5.8-2.6-9.2c0-4.5,1-8,3.1-10.6
				c2.1-2.6,5.6-4.4,10.5-5.4c4.9-1,11.7-1.6,20.4-1.6h5v5.6h-4.9c-6.9,0-12.4,0.3-16.3,0.9c-3.9,0.6-6.6,1.8-8.2,3.4
				c-1.5,1.7-2.3,4-2.3,7c0,3.7,1.2,6.8,3.6,9.1c2.4,2.3,5.6,3.5,9.7,3.5c3.3,0,6.2-0.8,8.7-2.5c2.5-1.7,4.5-4,6-7
				c1.5-3,2.2-6.4,2.2-10.2v-14.2c0-5.6-1-9.6-3.1-12.1c-2.1-2.5-5.4-3.8-9.9-3.8c-2.9,0-5.8,0.4-8.5,1.2c-2.7,0.8-5.6,2.2-8.7,4
				c-0.8,0.5-1.6,0.7-2.3,0.5c-0.7-0.2-1.2-0.5-1.5-1s-0.6-1.1-0.7-1.8c-0.1-0.7,0-1.4,0.3-2.1c0.3-0.7,0.8-1.2,1.6-1.6
				c3.2-1.9,6.5-3.3,9.9-4.3c3.4-1,6.6-1.4,9.8-1.4c4.5,0,8.3,0.8,11.3,2.5c3,1.7,5.2,4.1,6.6,7.5c1.4,3.3,2.1,7.6,2.1,12.8v35.6
				c0,1.2-0.3,2.2-0.8,2.9c-0.5,0.7-1.4,1-2.4,1c-1.1,0-1.9-0.3-2.5-1c-0.6-0.7-0.9-1.6-0.9-2.9v-11.4h1.2c-0.7,3.2-1.9,6-3.7,8.3
				c-1.8,2.3-4,4.1-6.6,5.3C1624.4,375.6,1621.5,376.2,1618.2,376.2z"/>
			<path class="st0" d="M1677.5,376.2c-5.2,0-9.2-1.7-12-5.2c-2.8-3.5-4.2-8.4-4.2-14.8v-65.5c0-1.3,0.3-2.3,0.9-2.9
				c0.6-0.6,1.5-0.9,2.7-0.9c1.1,0,1.9,0.3,2.5,0.9c0.6,0.6,0.9,1.6,0.9,2.9v64.7c0,4.8,0.9,8.4,2.7,10.8c1.8,2.4,4.4,3.5,7.7,3.5
				c0.8,0,1.4,0,2-0.1c0.5-0.1,1.1-0.1,1.6-0.1c0.7-0.1,1.2,0.1,1.6,0.4c0.3,0.4,0.5,1.1,0.5,2.3c0,1.2-0.3,2-0.8,2.6
				c-0.5,0.6-1.4,1-2.7,1.2c-0.5,0.1-1.1,0.1-1.7,0.2C1678.7,376.2,1678.1,376.2,1677.5,376.2z"/>
			<path class="st0" d="M1704.8,398.3c-0.9,0-1.7-0.3-2.2-0.8c-0.5-0.5-0.8-1.2-0.9-2.1c0-0.9,0.1-1.8,0.4-2.7l8-19.5v3.5l-22.7-57
				c-0.4-1-0.5-1.9-0.4-2.8c0.1-0.9,0.5-1.6,1-2.1c0.6-0.5,1.4-0.8,2.5-0.8c1,0,1.8,0.2,2.3,0.7c0.5,0.5,0.9,1.3,1.3,2.4l20.6,53.6
				h-2.9l20.6-53.6c0.5-1.2,1-2,1.5-2.4c0.5-0.5,1.3-0.7,2.3-0.7c1,0,1.8,0.3,2.3,0.8c0.5,0.5,0.8,1.2,0.9,2.1
				c0.1,0.8-0.1,1.7-0.5,2.7l-30.2,75.7c-0.5,1.2-1,1.9-1.6,2.4C1706.6,398.1,1705.8,398.3,1704.8,398.3z"/>
			<path class="st0" d="M1769,376.2c-3.5,0-6.9-0.5-10.4-1.5c-3.4-1-6.7-2.7-9.8-5.1c-0.6-0.4-1-0.9-1.2-1.6
				c-0.2-0.6-0.2-1.3-0.1-1.9c0.1-0.7,0.4-1.2,0.8-1.7c0.4-0.5,0.9-0.7,1.6-0.8c0.6-0.1,1.3,0.1,2,0.6c3,2.2,5.9,3.6,8.8,4.5
				c2.9,0.8,5.7,1.2,8.6,1.2c4.7,0,8.3-1,10.8-2.9c2.5-1.9,3.7-4.5,3.7-7.7c0-2.7-0.8-4.7-2.4-6.2c-1.6-1.5-4.1-2.6-7.7-3.5
				l-10.1-2.5c-4.9-1.2-8.4-3-10.8-5.7c-2.3-2.6-3.5-6-3.5-10.1c0-3.6,0.9-6.7,2.6-9.3c1.7-2.7,4.2-4.7,7.4-6.2
				c3.2-1.5,6.9-2.2,11-2.2c3.4,0,6.6,0.5,9.7,1.6c3.1,1.1,5.8,2.7,8.1,5c0.6,0.5,1,1.1,1.2,1.7c0.2,0.7,0.2,1.3,0,1.9
				c-0.2,0.6-0.5,1.1-1,1.6c-0.5,0.4-1,0.6-1.6,0.6c-0.6,0-1.3-0.2-2-0.7c-2.2-1.8-4.6-3.2-7.1-4c-2.5-0.9-5-1.3-7.5-1.3
				c-4.5,0-7.9,1-10.4,3c-2.4,2-3.6,4.7-3.6,8.1c0,2.6,0.8,4.6,2.3,6.2c1.5,1.6,3.9,2.8,7.1,3.6l10.1,2.5c5,1.2,8.8,3.1,11.2,5.5
				c2.5,2.4,3.7,5.7,3.7,9.9c0,5.3-1.9,9.5-5.8,12.6C1780.9,374.6,1775.6,376.2,1769,376.2z"/>
			<path class="st0" d="M1826.6,376.2c-4.2,0-7.6-0.8-10.4-2.5c-2.8-1.7-4.9-4-6.2-7.2c-1.4-3.1-2.1-6.9-2.1-11.5V321h-8.6
				c-1,0-1.8-0.3-2.4-0.8c-0.6-0.5-0.9-1.3-0.9-2.3c0-0.9,0.3-1.6,0.9-2.2c0.6-0.5,1.4-0.8,2.4-0.8h8.6v-15.5c0-1.3,0.3-2.3,0.9-2.9
				c0.6-0.6,1.5-0.9,2.7-0.9c1.1,0,1.9,0.3,2.5,0.9c0.6,0.6,0.9,1.6,0.9,2.9v15.5h15.6c1.1,0,1.9,0.3,2.4,0.8
				c0.5,0.5,0.8,1.3,0.8,2.2c0,1-0.3,1.8-0.8,2.3c-0.5,0.5-1.4,0.8-2.4,0.8h-15.6V354c0,5.1,1,8.9,2.9,11.6c1.9,2.7,5.1,4,9.6,4
				c1.5,0,2.8-0.2,3.9-0.6c1-0.4,1.9-0.6,2.6-0.6c0.5,0,1,0.2,1.4,0.7c0.4,0.5,0.6,1.3,0.6,2.4c0,0.7-0.1,1.3-0.4,2
				c-0.3,0.7-0.8,1.1-1.4,1.2c-0.8,0.3-2,0.6-3.5,0.9C1829.2,376,1827.8,376.2,1826.6,376.2z"/>
		</g>
	</g>
</g>
</svg>
