<?xml version="1.0" encoding="utf-8"?>
<!-- Generator: Adobe Illustrator 21.1.0, SVG Export Plug-In . SVG Version: 6.00 Build 0)  -->
<svg version="1.1" id="Layer_1" xmlns="http://www.w3.org/2000/svg" xmlns:xlink="http://www.w3.org/1999/xlink" x="0px" y="0px"
	 viewBox="0 0 264 47" style="enable-background:new 0 0 264 47;" xml:space="preserve">
<style type="text/css">
	.st0{clip-path:url(#SVGID_2_);}
	.st1{fill:#FFFFFF;}
	.st2{opacity:0.75;}
</style>
<g>
	<defs>
		<rect id="SVGID_1_" width="263.2" height="47"/>
	</defs>
	<clipPath id="SVGID_2_">
		<use xlink:href="#SVGID_1_"  style="overflow:visible;"/>
	</clipPath>
	<g class="st0">
		<path class="st1" d="M26.4,13.3c-0.3-1-1-1.8-1.8-2.4c-0.8-0.6-1.8-0.9-2.9-0.9h-8.3V5c0-0.7-0.1-1.3-0.4-1.9
			c-0.3-0.6-0.6-1.2-1.1-1.6c-0.5-0.5-1-0.8-1.6-1.1C9.6,0.1,9,0,8.3,0H5C4.3,0,3.7,0.1,3.1,0.4S1.9,1,1.5,1.5
			C1,1.9,0.6,2.5,0.4,3.1S0,4.3,0,5v36.6c0,0.7,0.1,1.3,0.4,1.9c0.3,0.6,0.6,1.2,1.1,1.6c0.5,0.5,1,0.8,1.6,1.1
			c0.6,0.3,1.3,0.4,1.9,0.4h16.7c0.7,0,1.3-0.1,1.9-0.4c0.6-0.3,1.2-0.6,1.6-1.1c0.5-0.5,0.8-1,1.1-1.6c0.3-0.6,0.4-1.3,0.4-1.9V15
			C26.7,14.4,26.6,13.9,26.4,13.3z M23.3,40c0,0.4-0.1,0.9-0.3,1.3c-0.2,0.4-0.4,0.8-0.7,1.1c-0.3,0.3-0.7,0.6-1.1,0.7
			c-0.4,0.2-0.8,0.3-1.3,0.3H6.7c-0.9,0-1.7-0.4-2.4-1c-0.6-0.6-1-1.5-1-2.4c0-0.9,0.4-1.7,1-2.4c0.6-0.6,1.5-1,2.4-1h10v-3.3h-10
			c-0.9,0-1.7-0.4-2.4-1c-0.6-0.6-1-1.5-1-2.4V6.4c0-0.2,0-0.3,0.1-0.5C3.6,5.2,4,4.5,4.6,4.1s1.3-0.7,2.1-0.7
			c0.8,0,1.5,0.3,2.1,0.7c0.6,0.5,1,1.1,1.2,1.9C10,6.1,10,6.3,10,6.5v6.8h10c0.9,0,1.7,0.4,2.4,1c0.6,0.6,1,1.5,1,2.4V40z"/>
		<path class="st1" d="M16.7,20H10v6.7h6.7V20z"/>
		<path class="st1" d="M45,32.7V9h11.7c4.6,0,7.1,2.5,7.1,6.5c0,0.9-0.3,1.9-0.8,2.6c-0.5,0.8-1.2,1.4-2.1,1.8
			c2,0.7,3.6,2.3,3.6,5.7c0,4.3-2.9,7.1-8.8,7.1H45z M49.8,13.1v5.1H56c2,0,3-0.9,3-2.6c0-1.8-1-2.6-3.3-2.6L49.8,13.1z M56.1,28.6
			c2.3,0,3.6-1.5,3.6-3.4c0-2.1-1.4-3-3.6-3h-6.3v6.4H56.1z"/>
		<path class="st1" d="M76.6,30.4c-0.6,1.6-2.6,2.5-4.7,2.5c-3.7,0-6.4-2.5-6.4-6.4V15.1h4.6v10.7c0,2.2,1,3.3,3,3.3
			c2.1,0,3.6-1.4,3.6-3.3V15.1h4.6v18c0,5-3.6,7.9-8.1,7.9c-5.1,0-7.7-2.8-7.7-7.3h4.3c0,2.1,1.2,3.4,3.6,3.4c1.7,0,3.2-1.5,3.2-3.8
			V30.4z"/>
		<path class="st1" d="M83.1,32.7V15.1h4.4v2.1c1.5-2.4,3.3-2.6,5.2-2.6h0.6v4.7c-0.4-0.1-0.9-0.1-1.3-0.1c-2.9,0-4.2,1.4-4.2,4.2
			v9.1H83.1z"/>
		<path class="st1" d="M93,23.9c0-5.6,3.5-9.2,9-9.2c5.5,0,8.9,3.6,8.9,9.2s-3.5,9.2-8.9,9.2C96.4,33.1,93,29.4,93,23.9z
			 M106.3,23.9c0-3.6-1.4-5.3-4.2-5.3c-2.8,0-4.3,1.7-4.3,5.3s1.4,5.4,4.2,5.4C104.9,29.3,106.3,27.5,106.3,23.9z"/>
		<path class="st1" d="M123.7,32.7V22c0-2.7-0.8-3.5-3-3.5c-2.4,0-3.6,1.4-3.6,4v10.1h-4.6V15.1h4.4v2.6c1.1-2,2.9-3,5.7-3
			c3.4,0,5.8,2,5.8,5.9v12.2H123.7z"/>
		<path class="st1" d="M154.1,32.3l-0.1-2.2c-1.1,1.9-3.7,3-6.8,3C141,33.1,137,27.3,137,21c0-6.7,3.8-12,11.1-12
			c5.4,0,9.5,3.2,9.9,7.7h-4.8c-0.2-2.1-2.5-3.8-5.1-3.8c-3.8,0-6.3,2.9-6.3,8.3c0,3.7,1.9,7.9,6.3,7.9c3.1,0,5.5-2.3,5.5-5.2h-5
			v-3.8h9.4v12.1H154.1z"/>
		<path class="st1" d="M159.5,24c0-5.3,3.3-8.8,8.6-8.8c5.2,0,8.5,3.5,8.5,8.8c0,5.3-3.3,8.8-8.5,8.8
			C162.7,32.8,159.5,29.2,159.5,24z M172.1,24c0-3.4-1.4-5.1-4-5.1c-2.7,0-4,1.7-4,5.1c0,3.4,1.4,5.1,4,5.1
			C170.7,29.1,172.1,27.4,172.1,24L172.1,24z"/>
		<path class="st1" d="M188.7,32.3V22.2c0-2.6-0.7-3.3-2.9-3.3c-2.3,0-3.4,1.3-3.4,3.8v9.6H178V15.6h4.2V18c1-1.9,2.7-2.9,5.4-2.9
			c3.2,0,5.5,1.9,5.5,5.6v11.6L188.7,32.3z"/>
		<path class="st1" d="M194.4,32.3v-3.4l8.5-9.8h-8v-3.5h13.6v3.6l-8.5,9.5h8.8v3.6L194.4,32.3z"/>
		<path class="st1" d="M220.4,32.3c-0.1-0.5-0.2-1-0.3-1.5c-1.1,1.2-2.8,1.9-5.1,1.9c-3.8,0-5.6-1.9-5.6-4.6c0-4.8,3.2-5.4,7.7-6
			c2.2-0.3,2.8-0.7,2.8-1.9c0-1.1-1.1-1.7-2.8-1.7c-2,0-2.8,1-3,2.5H210c0.1-3.5,2-5.9,7.3-5.9c5.3,0,7.1,2.4,7.1,6.6v10.6
			L220.4,32.3z M220.1,24.1c-0.4,0.4-1.2,0.7-2.9,1c-2.5,0.5-3.3,1.2-3.3,2.6c0,1.3,0.7,1.9,2.1,1.9c2.3,0,4-1.7,4-3.6L220.1,24.1z"
			/>
		<path class="st1" d="M226.3,32.3V9.5h4.4v22.9L226.3,32.3z"/>
		<path class="st1" d="M236.5,25.1c0.1,2.5,1.6,4.1,3.7,4.1c1.4,0,2.7-0.7,3-1.9h4.6c-1,3.4-3.8,5.4-7.3,5.4c-5.6,0-8.4-3.1-8.4-9.1
			c0-5.2,3-8.5,8.1-8.5c5.1,0,7.9,3.3,7.9,10H236.5z M243.4,22.3c-0.1-2.5-1.7-3.7-3.4-3.7s-3.2,1.4-3.4,3.7H243.4z"/>
		<path class="st1" d="M248.8,32.3v-3.4l8.5-9.8h-8v-3.5H263v3.6l-8.5,9.5h8.8v3.6L248.8,32.3z"/>
		<g class="st2">
			<path class="st1" d="M36.2,47c0,0-0.1,0-0.1-0.1c0,0-0.1-0.1-0.1-0.1V0.2c0,0,0-0.1,0.1-0.1c0,0,0.1-0.1,0.1-0.1s0.1,0,0.1,0.1
				c0,0,0.1,0.1,0.1,0.1v46.6c0,0,0,0.1-0.1,0.1C36.3,47,36.2,47,36.2,47z"/>
		</g>
	</g>
</g>
</svg>
